  0
SECTION
  2
HEADER
  9
$ACADVER
  1
AC1024
  9
$ACADMAINTVER
 70
     6
  9
$DWGCODEPAGE
  3
ANSI_1252
  9
$LASTSAVEDBY
  1
imyz
  9
$INSBASE
 10
0.0
 20
0.0
 30
0.0
  9
$EXTMIN
 10
1.000000000000000E+20
 20
1.000000000000000E+20
 30
1.000000000000000E+20
  9
$EXTMAX
 10
-1.000000000000000E+20
 20
-1.000000000000000E+20
 30
-1.000000000000000E+20
  9
$LIMMIN
 10
0.0
 20
0.0
  9
$LIMMAX
 10
420.0
 20
297.0
  9
$ORTHOMODE
 70
     0
  9
$REGENMODE
 70
     1
  9
$FILLMODE
 70
     1
  9
$QTEXTMODE
 70
     0
  9
$MIRRTEXT
 70
     0
  9
$LTSCALE
 40
1.0
  9
$ATTMODE
 70
     1
  9
$TEXTSIZE
 40
2.5
  9
$TRACEWID
 40
1.0
  9
$TEXTSTYLE
  7
Standard
  9
$CLAYER
  8
Izmeri
  9
$CELTYPE
  6
ByLayer
  9
$CECOLOR
 62
   256
  9
$CELTSCALE
 40
1.0
  9
$DISPSILH
 70
     0
  9
$DIMSCALE
 40
1.0
  9
$DIMASZ
 40
2.5
  9
$DIMEXO
 40
0.625
  9
$DIMDLI
 40
3.75
  9
$DIMRND
 40
0.0
  9
$DIMDLE
 40
0.0
  9
$DIMEXE
 40
1.25
  9
$DIMTP
 40
0.0
  9
$DIMTM
 40
0.0
  9
$DIMTXT
 40
2.5
  9
$DIMCEN
 40
2.5
  9
$DIMTSZ
 40
0.0
  9
$DIMTOL
 70
     0
  9
$DIMLIM
 70
     0
  9
$DIMTIH
 70
     0
  9
$DIMTOH
 70
     0
  9
$DIMSE1
 70
     0
  9
$DIMSE2
 70
     0
  9
$DIMTAD
 70
     1
  9
$DIMZIN
 70
     8
  9
$DIMBLK
  1

  9
$DIMASO
 70
     1
  9
$DIMSHO
 70
     1
  9
$DIMPOST
  1

  9
$DIMAPOST
  1

  9
$DIMALT
 70
     0
  9
$DIMALTD
 70
     3
  9
$DIMALTF
 40
0.03937007874016
  9
$DIMLFAC
 40
1.0
  9
$DIMTOFL
 70
     1
  9
$DIMTVP
 40
0.0
  9
$DIMTIX
 70
     0
  9
$DIMSOXD
 70
     0
  9
$DIMSAH
 70
     0
  9
$DIMBLK1
  1

  9
$DIMBLK2
  1

  9
$DIMSTYLE
  2
ISO-25
  9
$DIMCLRD
 70
     0
  9
$DIMCLRE
 70
     0
  9
$DIMCLRT
 70
     0
  9
$DIMTFAC
 40
1.0
  9
$DIMGAP
 40
0.625
  9
$DIMJUST
 70
     0
  9
$DIMSD1
 70
     0
  9
$DIMSD2
 70
     0
  9
$DIMTOLJ
 70
     0
  9
$DIMTZIN
 70
     8
  9
$DIMALTZ
 70
     0
  9
$DIMALTTZ
 70
     0
  9
$DIMUPT
 70
     0
  9
$DIMDEC
 70
     2
  9
$DIMTDEC
 70
     2
  9
$DIMALTU
 70
     2
  9
$DIMALTTD
 70
     3
  9
$DIMTXSTY
  7
Standard
  9
$DIMAUNIT
 70
     0
  9
$DIMADEC
 70
     0
  9
$DIMALTRND
 40
0.0
  9
$DIMAZIN
 70
     0
  9
$DIMDSEP
 70
    44
  9
$DIMATFIT
 70
     3
  9
$DIMFRAC
 70
     0
  9
$DIMLDRBLK
  1

  9
$DIMLUNIT
 70
     2
  9
$DIMLWD
 70
    -2
  9
$DIMLWE
 70
    -2
  9
$DIMTMOVE
 70
     0
  9
$DIMFXL
 40
1.0
  9
$DIMFXLON
 70
     0
  9
$DIMJOGANG
 40
0.7853981633974483
  9
$DIMTFILL
 70
     0
  9
$DIMTFILLCLR
 70
     0
  9
$DIMARCSYM
 70
     0
  9
$DIMLTYPE
  6

  9
$DIMLTEX1
  6

  9
$DIMLTEX2
  6

  9
$DIMTXTDIRECTION
 70
     0
  9
$LUNITS
 70
     2
  9
$LUPREC
 70
     3
  9
$SKETCHINC
 40
1.0
  9
$FILLETRAD
 40
10.0
  9
$AUNITS
 70
     0
  9
$AUPREC
 70
     0
  9
$MENU
  1
.
  9
$ELEVATION
 40
0.0
  9
$PELEVATION
 40
0.0
  9
$THICKNESS
 40
0.0
  9
$LIMCHECK
 70
     0
  9
$CHAMFERA
 40
10.0
  9
$CHAMFERB
 40
10.0
  9
$CHAMFERC
 40
20.0
  9
$CHAMFERD
 40
0.0
  9
$SKPOLY
 70
     0
  9
$TDCREATE
 40
2455022.720692847
  9
$TDUCREATE
 40
2455022.637359514
  9
$TDUPDATE
 40
2457230.898773148
  9
$TDUUPDATE
 40
2457230.815439815
  9
$TDINDWG
 40
0.0
  9
$TDUSRTIMER
 40
2457230.803912037
  9
$USRTIMER
 70
     1
  9
$ANGBASE
 50
0.0
  9
$ANGDIR
 70
     0
  9
$PDMODE
 70
     0
  9
$PDSIZE
 40
0.0
  9
$PLINEWID
 40
0.0
  9
$SPLFRAME
 70
     0
  9
$SPLINETYPE
 70
     6
  9
$SPLINESEGS
 70
     8
  9
$HANDSEED
  5
632
  9
$SURFTAB1
 70
     6
  9
$SURFTAB2
 70
     6
  9
$SURFTYPE
 70
     6
  9
$SURFU
 70
     6
  9
$SURFV
 70
     6
  9
$UCSBASE
  2

  9
$UCSNAME
  2

  9
$UCSORG
 10
0.0
 20
0.0
 30
0.0
  9
$UCSXDIR
 10
1.0
 20
0.0
 30
0.0
  9
$UCSYDIR
 10
0.0
 20
1.0
 30
0.0
  9
$UCSORTHOREF
  2

  9
$UCSORTHOVIEW
 70
     0
  9
$UCSORGTOP
 10
0.0
 20
0.0
 30
0.0
  9
$UCSORGBOTTOM
 10
0.0
 20
0.0
 30
0.0
  9
$UCSORGLEFT
 10
0.0
 20
0.0
 30
0.0
  9
$UCSORGRIGHT
 10
0.0
 20
0.0
 30
0.0
  9
$UCSORGFRONT
 10
0.0
 20
0.0
 30
0.0
  9
$UCSORGBACK
 10
0.0
 20
0.0
 30
0.0
  9
$PUCSBASE
  2

  9
$PUCSNAME
  2

  9
$PUCSORG
 10
0.0
 20
0.0
 30
0.0
  9
$PUCSXDIR
 10
1.0
 20
0.0
 30
0.0
  9
$PUCSYDIR
 10
0.0
 20
1.0
 30
0.0
  9
$PUCSORTHOREF
  2

  9
$PUCSORTHOVIEW
 70
     0
  9
$PUCSORGTOP
 10
0.0
 20
0.0
 30
0.0
  9
$PUCSORGBOTTOM
 10
0.0
 20
0.0
 30
0.0
  9
$PUCSORGLEFT
 10
0.0
 20
0.0
 30
0.0
  9
$PUCSORGRIGHT
 10
0.0
 20
0.0
 30
0.0
  9
$PUCSORGFRONT
 10
0.0
 20
0.0
 30
0.0
  9
$PUCSORGBACK
 10
0.0
 20
0.0
 30
0.0
  9
$USERI1
 70
     0
  9
$USERI2
 70
     0
  9
$USERI3
 70
     0
  9
$USERI4
 70
     0
  9
$USERI5
 70
     0
  9
$USERR1
 40
0.0
  9
$USERR2
 40
0.0
  9
$USERR3
 40
0.0
  9
$USERR4
 40
0.0
  9
$USERR5
 40
0.0
  9
$WORLDVIEW
 70
     1
  9
$SHADEDGE
 70
     3
  9
$SHADEDIF
 70
    70
  9
$TILEMODE
 70
     1
  9
$MAXACTVP
 70
    64
  9
$PINSBASE
 10
0.0
 20
0.0
 30
0.0
  9
$PLIMCHECK
 70
     0
  9
$PEXTMIN
 10
1.000000000000000E+20
 20
1.000000000000000E+20
 30
1.000000000000000E+20
  9
$PEXTMAX
 10
-1.000000000000000E+20
 20
-1.000000000000000E+20
 30
-1.000000000000000E+20
  9
$PLIMMIN
 10
0.0
 20
0.0
  9
$PLIMMAX
 10
0.0
 20
0.0
  9
$UNITMODE
 70
     0
  9
$VISRETAIN
 70
     1
  9
$PLINEGEN
 70
     0
  9
$PSLTSCALE
 70
     1
  9
$TREEDEPTH
 70
  3020
  9
$CMLSTYLE
  2
Standard
  9
$CMLJUST
 70
     0
  9
$CMLSCALE
 40
20.0
  9
$PROXYGRAPHICS
 70
     1
  9
$MEASUREMENT
 70
     1
  9
$CELWEIGHT
370
    -1
  9
$ENDCAPS
280
     0
  9
$JOINSTYLE
280
     0
  9
$LWDISPLAY
290
     0
  9
$INSUNITS
 70
     4
  9
$HYPERLINKBASE
  1

  9
$STYLESHEET
  1

  9
$XEDIT
290
     1
  9
$CEPSNTYPE
380
     0
  9
$PSTYLEMODE
290
     1
  9
$FINGERPRINTGUID
  2
{EC6BB858-51AA-46EC-B484-6C9CC7AB3E2E}
  9
$VERSIONGUID
  2
{FAEB1C32-E019-11D5-929B-00C0DF256EC4}
  9
$EXTNAMES
290
     1
  9
$PSVPSCALE
 40
0.0
  9
$OLESTARTUP
290
     0
  9
$SORTENTS
280
   127
  9
$INDEXCTL
280
     0
  9
$HIDETEXT
280
     1
  9
$XCLIPFRAME
280
     0
  9
$HALOGAP
280
     0
  9
$OBSCOLOR
 70
   257
  9
$OBSLTYPE
280
     0
  9
$INTERSECTIONDISPLAY
280
     0
  9
$INTERSECTIONCOLOR
 70
   257
  9
$DIMASSOC
280
     2
  9
$PROJECTNAME
  1

  9
$CAMERADISPLAY
290
     0
  9
$LENSLENGTH
 40
50.0
  9
$CAMERAHEIGHT
 40
0.0
  9
$STEPSPERSEC
 40
2.0
  9
$STEPSIZE
 40
6.0
  9
$3DDWFPREC
 40
2.0
  9
$PSOLWIDTH
 40
5.0
  9
$PSOLHEIGHT
 40
80.0
  9
$LOFTANG1
 40
1.570796326794897
  9
$LOFTANG2
 40
1.570796326794897
  9
$LOFTMAG1
 40
0.0
  9
$LOFTMAG2
 40
0.0
  9
$LOFTPARAM
 70
     7
  9
$LOFTNORMALS
280
     1
  9
$LATITUDE
 40
37.795
  9
$LONGITUDE
 40
-122.394
  9
$NORTHDIRECTION
 40
0.0
  9
$TIMEZONE
 70
 -8000
  9
$LIGHTGLYPHDISPLAY
280
     1
  9
$TILEMODELIGHTSYNCH
280
     1
  9
$SOLIDHIST
280
     1
  9
$SHOWHIST
280
     1
  9
$DWFFRAME
280
     2
  9
$DGNFRAME
280
     2
  9
$REALWORLDSCALE
290
     1
  9
$INTERFERECOLOR
 62
   256
  9
$CSHADOW
280
     0
  9
$SHADOWPLANELOCATION
 40
0.0
  0
ENDSEC
  0
SECTION
  2
CLASSES
  0
CLASS
  1
ACDBDICTIONARYWDFLT
  2
AcDbDictionaryWithDefault
  3
ObjectDBX Classes
 90
        0
 91
        5
280
     0
281
     0
  0
CLASS
  1
VISUALSTYLE
  2
AcDbVisualStyle
  3
ObjectDBX Classes
 90
     4095
 91
        5
280
     0
281
     0
  0
CLASS
  1
TABLESTYLE
  2
AcDbTableStyle
  3
ObjectDBX Classes
 90
     4095
 91
        5
280
     0
281
     0
  0
CLASS
  1
DICTIONARYVAR
  2
AcDbDictionaryVar
  3
ObjectDBX Classes
 90
        0
 91
        5
280
     0
281
     0
  0
CLASS
  1
SCALE
  2
AcDbScale
  3
ObjectDBX Classes
 90
     1153
 91
        5
280
     0
281
     0
  0
CLASS
  1
CELLSTYLEMAP
  2
AcDbCellStyleMap
  3
ObjectDBX Classes
 90
     1152
 91
        5
280
     0
281
     0
  0
CLASS
  1
RASTERVARIABLES
  2
AcDbRasterVariables
  3
ISM
 90
        0
 91
        5
280
     0
281
     0
  0
CLASS
  1
MATERIAL
  2
AcDbMaterial
  3
ObjectDBX Classes
 90
     1153
 91
        5
280
     0
281
     0
  0
CLASS
  1
SUN
  2
AcDbSun
  3
SCENEOE
 90
     1153
 91
        5
280
     0
281
     0
  0
CLASS
  1
MLEADERSTYLE
  2
AcDbMLeaderStyle
  3
ACDB_MLEADERSTYLE_CLASS
 90
     4095
 91
        5
280
     0
281
     0
  0
CLASS
  1
SORTENTSTABLE
  2
AcDbSortentsTable
  3
ObjectDBX Classes
 90
        0
 91
        5
280
     0
281
     0
  0
CLASS
  1
FIELD
  2
AcDbField
  3
ObjectDBX Classes
 90
     1152
 91
        5
280
     0
281
     0
  0
CLASS
  1
DIMASSOC
  2
AcDbDimAssoc
  3
"AcDbDimAssoc|Product Desc:     AcDim ARX App For Dimension|Company:          Autodesk, Inc.|WEB Address:      www.autodesk.com"
 90
        0
 91
        5
280
     0
281
     0
  0
CLASS
  1
FIELDLIST
  2
AcDbFieldList
  3
ObjectDBX Classes
 90
     1152
 91
        5
280
     0
281
     0
  0
ENDSEC
  0
SECTION
  2
TABLES
  0
TABLE
  2
VPORT
  5
8
330
0
100
AcDbSymbolTable
 70
     1
  0
VPORT
  5
29
330
8
100
AcDbSymbolTableRecord
100
AcDbViewportTableRecord
  2
*Active
 70
     0
 10
0.0
 20
0.0
 11
1.0
 21
1.0
 12
136.7255015499945
 22
2.079795993630121
 13
0.0
 23
0.0
 14
10.0
 24
10.0
 15
10.0
 25
10.0
 16
0.0
 26
0.0
 36
1.0
 17
-134.1869158878504
 27
0.0
 37
0.0
 40
246.5280000000002
 41
1.813479623824451
 42
50.0
 43
0.0
 44
0.0
 50
0.0
 51
0.0
 71
    16
 72
  1000
 73
     1
 74
     3
 75
     0
 76
     0
 77
     0
 78
     0
281
     0
 65
     1
110
0.0
120
0.0
130
0.0
111
1.0
121
0.0
131
0.0
112
0.0
122
1.0
132
0.0
 79
     0
146
0.0
348
2F
 60
     3
 61
     5
292
     1
282
     1
141
0.0
142
0.0
 63
   256
361
80
  0
ENDTAB
  0
TABLE
  2
LTYPE
  5
5
330
0
100
AcDbSymbolTable
 70
     2
  0
LTYPE
  5
14
330
5
100
AcDbSymbolTableRecord
100
AcDbLinetypeTableRecord
  2
ByBlock
 70
     0
  3

 72
    65
 73
     0
 40
0.0
  0
LTYPE
  5
15
330
5
100
AcDbSymbolTableRecord
100
AcDbLinetypeTableRecord
  2
ByLayer
 70
     0
  3

 72
    65
 73
     0
 40
0.0
  0
LTYPE
  5
16
330
5
100
AcDbSymbolTableRecord
100
AcDbLinetypeTableRecord
  2
Continuous
 70
     0
  3
Solid line
 72
    65
 73
     0
 40
0.0
  0
LTYPE
  5
C1
330
5
100
AcDbSymbolTableRecord
100
AcDbLinetypeTableRecord
  2
ACAD_ISO02W100
 70
     0
  3
ISO dash __ __ __ __ __ __ __ __ __ __ __ __ __
 72
    65
 73
     2
 40
15.0
 49
12.0
 74
     0
 49
-3.0
 74
     0
  0
ENDTAB
  0
TABLE
  2
LAYER
  5
2
102
{ACAD_XDICTIONARY
360
21E
102
}
330
0
100
AcDbSymbolTable
 70
     5
  0
LAYER
  5
10
330
2
100
AcDbSymbolTableRecord
100
AcDbLayerTableRecord
  2
0
 70
     0
 62
     7
  6
Continuous
370
    -3
390
F
347
75
  0
LAYER
  5
B9
330
2
100
AcDbSymbolTableRecord
100
AcDbLayerTableRecord
  2
Defpoints
 70
     0
 62
     7
  6
Continuous
290
     0
370
    -3
390
F
347
75
  0
LAYER
  5
BA
330
2
100
AcDbSymbolTableRecord
100
AcDbLayerTableRecord
  2
Izmeri
 70
     0
 62
     1
  6
Continuous
370
    25
390
F
347
75
  0
LAYER
  5
BE
330
2
100
AcDbSymbolTableRecord
100
AcDbLayerTableRecord
  2
Neprintejas
 70
     0
 62
     2
  6
Continuous
290
     0
370
    15
390
F
347
75
1001
AcAecLayerStandard
1000

1000

  0
LAYER
  5
C0
330
2
100
AcDbSymbolTableRecord
100
AcDbLayerTableRecord
  2
BORDER
 70
     0
 62
     7
  6
Continuous
370
    -3
390
F
347
75
  0
ENDTAB
  0
TABLE
  2
STYLE
  5
3
330
0
100
AcDbSymbolTable
 70
     2
  0
STYLE
  5
11
330
3
100
AcDbSymbolTableRecord
100
AcDbTextStyleTableRecord
  2
Standard
 70
     0
 40
0.0
 41
1.0
 50
0.0
 71
     0
 42
2.5
  3
arial.ttf
  4

1001
ACAD
1000
Arial
1071
        0
  0
STYLE
  5
C9
330
3
100
AcDbSymbolTableRecord
100
AcDbTextStyleTableRecord
  2
ARIAL
 70
     0
 40
0.0
 41
1.0
 50
0.0
 71
     0
 42
2.5
  3
Arial.ttf
  4

1001
ACAD
1000
Arial
1071
    47650
  0
ENDTAB
  0
TABLE
  2
VIEW
  5
6
330
0
100
AcDbSymbolTable
 70
     0
  0
ENDTAB
  0
TABLE
  2
UCS
  5
7
330
0
100
AcDbSymbolTable
 70
     0
  0
ENDTAB
  0
TABLE
  2
APPID
  5
9
330
0
100
AcDbSymbolTable
 70
     7
  0
APPID
  5
12
330
9
100
AcDbSymbolTableRecord
100
AcDbRegAppTableRecord
  2
ACAD
 70
     0
  0
APPID
  5
BF
330
9
100
AcDbSymbolTableRecord
100
AcDbRegAppTableRecord
  2
AcAecLayerStandard
 70
     0
  0
APPID
  5
C4
330
9
100
AcDbSymbolTableRecord
100
AcDbRegAppTableRecord
  2
ACAD_PSEXT
 70
     0
  0
APPID
  5
C5
330
9
100
AcDbSymbolTableRecord
100
AcDbRegAppTableRecord
  2
ACAD_NAV_VCDISPLAY
 70
     0
  0
APPID
  5
C6
330
9
100
AcDbSymbolTableRecord
100
AcDbRegAppTableRecord
  2
AcDbDynamicBlockGUID
 70
     0
  0
APPID
  5
C7
330
9
100
AcDbSymbolTableRecord
100
AcDbRegAppTableRecord
  2
AcDbBlockRepETag
 70
     0
  0
APPID
  5
C8
330
9
100
AcDbSymbolTableRecord
100
AcDbRegAppTableRecord
  2
AEC_XDATA_BOUND_SPACE
 70
     0
  0
ENDTAB
  0
TABLE
  2
DIMSTYLE
  5
A
330
0
100
AcDbSymbolTable
 70
     1
100
AcDbDimStyleTable
  0
DIMSTYLE
105
27
102
{ACAD_REACTORS
330
15F
330
16D
330
17B
330
189
330
1D2
330
1E1
330
1F0
330
1FF
330
26C
330
27A
330
288
330
296
330
2DF
330
2EE
330
2FD
330
30C
330
348
330
34A
330
34C
330
34E
330
38B
330
38E
330
391
330
394
102
}
330
A
100
AcDbSymbolTableRecord
100
AcDbDimStyleTableRecord
  2
ISO-25
 70
     0
 41
2.5
 42
0.625
 43
3.75
 44
1.25
 73
     0
 74
     0
 77
     1
 78
     8
140
2.5
141
2.5
143
0.03937007874016
147
0.625
171
     3
172
     1
178
     0
271
     2
272
     2
274
     3
278
    44
283
     0
284
     8
340
11
  0
ENDTAB
  0
TABLE
  2
BLOCK_RECORD
  5
1
330
0
100
AcDbSymbolTable
 70
    31
  0
BLOCK_RECORD
  5
1F
330
1
100
AcDbSymbolTableRecord
100
AcDbBlockTableRecord
  2
*Model_Space
340
22
 70
     0
280
     1
281
     0
  0
BLOCK_RECORD
  5
1B
330
1
100
AcDbSymbolTableRecord
100
AcDbBlockTableRecord
  2
*Paper_Space
340
1E
 70
     0
280
     1
281
     0
  0
BLOCK_RECORD
  5
23
330
1
100
AcDbSymbolTableRecord
100
AcDbBlockTableRecord
  2
*Paper_Space0
340
26
 70
     0
280
     1
281
     0
  0
BLOCK_RECORD
  5
F0
102
{ACAD_XDICTIONARY
360
F1
102
}
330
1
100
AcDbSymbolTableRecord
100
AcDbBlockTableRecord
  2
A3
340
0
310
2800000020000000200000000100080000000000000400000000000000000000000000000000000000000000000080000080000000808000800000008000800080800000C0C0C000C0DCC000F0CAA6000020400000206000002080000020A0000020C0000020E00000400000004020000040400000406000004080000040A0
310
000040C0000040E00000600000006020000060400000606000006080000060A0000060C0000060E00000800000008020000080400000806000008080000080A0000080C0000080E00000A0000000A0200000A0400000A0600000A0800000A0A00000A0C00000A0E00000C0000000C0200000C0400000C0600000C0800000C0
310
A00000C0C00000C0E00000E0000000E0200000E0400000E0600000E0800000E0A00000E0C00000E0E00040000000400020004000400040006000400080004000A0004000C0004000E00040200000402020004020400040206000402080004020A0004020C0004020E000404000004040200040404000404060004040800040
310
40A0004040C0004040E00040600000406020004060400040606000406080004060A0004060C0004060E00040800000408020004080400040806000408080004080A0004080C0004080E00040A0000040A0200040A0400040A0600040A0800040A0A00040A0C00040A0E00040C0000040C0200040C0400040C0600040C08000
310
40C0A00040C0C00040C0E00040E0000040E0200040E0400040E0600040E0800040E0A00040E0C00040E0E00080000000800020008000400080006000800080008000A0008000C0008000E00080200000802020008020400080206000802080008020A0008020C0008020E00080400000804020008040400080406000804080
310
008040A0008040C0008040E00080600000806020008060400080606000806080008060A0008060C0008060E00080800000808020008080400080806000808080008080A0008080C0008080E00080A0000080A0200080A0400080A0600080A0800080A0A00080A0C00080A0E00080C0000080C0200080C0400080C0600080C0
310
800080C0A00080C0C00080C0E00080E0000080E0200080E0400080E0600080E0800080E0A00080E0C00080E0E000C0000000C0002000C0004000C0006000C0008000C000A000C000C000C000E000C0200000C0202000C0204000C0206000C0208000C020A000C020C000C020E000C0400000C0402000C0404000C0406000C0
310
408000C040A000C040C000C040E000C0600000C0602000C0604000C0606000C0608000C060A000C060C000C060E000C0800000C0802000C0804000C0806000C0808000C080A000C080C000C080E000C0A00000C0A02000C0A04000C0A06000C0A08000C0A0A000C0A0C000C0A0E000C0C00000C0C02000C0C04000C0C06000
310
C0C08000C0C0A000F0FBFF00A4A0A000808080000000FF0000FF000000FFFF00FF000000FF00FF00FFFF0000FFFFFF0000000000000000000000000000000000000000000000000000000000000000000000000000000000000000000000000000000000000000000000000000000000000000000000000000000000000000
310
0000000000000000000000000000000000000000000000000000000000000000000000000000000000000000000000000000000000000000000000000000000000000000000000000000000000000000000000000000000000000000000000000000000000000000000000000000000000005BFFFFFFFFFFFFFFFFFFFFFFFF
310
FFFFFFFFFFFFFFFFFFFFFFF9FFFFFFF95B00005BFF00000000000000000000000000000000FFFFFFFFFFFFF9FFFFFFF95B00005BFF00000000000000000000000000000000FFFFFFFFFFFFF9FFFFFFFF5B00005BFF0000000000000000000000000000000000000000000000000000FF5B00005BFF00000000000000000000
310
00000000000000000000000000000000FF5B00005BFF0000000000000000000000000000000000000000000000000000FF5B00005BFF0000000000000000000000000000000000000000000000000000FF5B00005BFF0000000000000000000000000000000000000000000000000000FF5B00005BFF000000000000000000
310
0000000000000000000000000000000000FF5B00005BFF0000000000000000000000000000000000000000000000000000FF5B00005BFF0000000000000000000000000000000000000000000000000000FF5B00005BFF0000000000000000000000000000000000000000000000000000FF5B00005BFF0000000000000000
310
000000000000000000000000000000000000FF5B00005BFF0000000000000000000000000000000000000000000000000000FF5B00005BFF0000000000000000000000000000000000000000000000000000FF5B00005BFF0000000000000000000000000000000000000000000000000000FF5B00005BFF00000000000000
310
00000000000000000000000000000000000000FF5B00005BFF0000000000000000000000000000000000000000000000000000FF5B00005BFF0000000000000000000000000000000000000000000000000000FF5B00005BFFFFFFFFFFFFFFFFFFFFFFFFFFFFFFFFFFFFFFFFFFFFFFFFFFFFFFFF5B00000000000000000000
310
00000000000000000000000000000000000000000000000000000000000000000000000000000000000000000000000000000000000000000000000000000000000000000000000000000000000000000000000000000000000000000000000000000000000000000000000000000000000000000000000000000000000000
310
0000000000000000000000000000000000000000000000000000000000000000000000000000000000000000000000000000000000000000
102
{BLKREFS
331
EF
102
}
 70
     4
280
     1
281
     0
1001
AcDbBlockRepETag
1070
     1
1071
      122
1001
AcDbDynamicBlockGUID
1000
{5A31316D-F1BF-7B4D-963B-53302430C0EC}
  0
BLOCK_RECORD
  5
161
330
1
100
AcDbSymbolTableRecord
100
AcDbBlockTableRecord
  2
*D3
340
0
 70
     0
280
     1
281
     0
  0
BLOCK_RECORD
  5
16F
330
1
100
AcDbSymbolTableRecord
100
AcDbBlockTableRecord
  2
*D4
340
0
 70
     0
280
     1
281
     0
  0
BLOCK_RECORD
  5
17D
330
1
100
AcDbSymbolTableRecord
100
AcDbBlockTableRecord
  2
*D5
340
0
 70
     0
280
     1
281
     0
  0
BLOCK_RECORD
  5
18B
330
1
100
AcDbSymbolTableRecord
100
AcDbBlockTableRecord
  2
*D6
340
0
 70
     0
280
     1
281
     0
  0
BLOCK_RECORD
  5
1D5
330
1
100
AcDbSymbolTableRecord
100
AcDbBlockTableRecord
  2
*D7
340
0
 70
     0
280
     1
281
     0
  0
BLOCK_RECORD
  5
1E4
330
1
100
AcDbSymbolTableRecord
100
AcDbBlockTableRecord
  2
*D8
340
0
 70
     0
280
     1
281
     0
  0
BLOCK_RECORD
  5
1F3
330
1
100
AcDbSymbolTableRecord
100
AcDbBlockTableRecord
  2
*D9
340
0
 70
     0
280
     1
281
     0
  0
BLOCK_RECORD
  5
202
330
1
100
AcDbSymbolTableRecord
100
AcDbBlockTableRecord
  2
*D10
340
0
 70
     0
280
     1
281
     0
  0
BLOCK_RECORD
  5
26E
330
1
100
AcDbSymbolTableRecord
100
AcDbBlockTableRecord
  2
*D12
340
0
 70
     0
280
     1
281
     0
  0
BLOCK_RECORD
  5
27C
330
1
100
AcDbSymbolTableRecord
100
AcDbBlockTableRecord
  2
*D13
340
0
 70
     0
280
     1
281
     0
  0
BLOCK_RECORD
  5
28A
330
1
100
AcDbSymbolTableRecord
100
AcDbBlockTableRecord
  2
*D14
340
0
 70
     0
280
     1
281
     0
  0
BLOCK_RECORD
  5
298
330
1
100
AcDbSymbolTableRecord
100
AcDbBlockTableRecord
  2
*D15
340
0
 70
     0
280
     1
281
     0
  0
BLOCK_RECORD
  5
2E2
330
1
100
AcDbSymbolTableRecord
100
AcDbBlockTableRecord
  2
*D16
340
0
 70
     0
280
     1
281
     0
  0
BLOCK_RECORD
  5
2F1
330
1
100
AcDbSymbolTableRecord
100
AcDbBlockTableRecord
  2
*D17
340
0
 70
     0
280
     1
281
     0
  0
BLOCK_RECORD
  5
300
330
1
100
AcDbSymbolTableRecord
100
AcDbBlockTableRecord
  2
*D18
340
0
 70
     0
280
     1
281
     0
  0
BLOCK_RECORD
  5
30F
330
1
100
AcDbSymbolTableRecord
100
AcDbBlockTableRecord
  2
*D19
340
0
 70
     0
280
     1
281
     0
  0
BLOCK_RECORD
  5
3A7
330
1
100
AcDbSymbolTableRecord
100
AcDbBlockTableRecord
  2
*D20
340
0
 70
     0
280
     1
281
     0
  0
BLOCK_RECORD
  5
3B3
330
1
100
AcDbSymbolTableRecord
100
AcDbBlockTableRecord
  2
*D21
340
0
 70
     0
280
     1
281
     0
  0
BLOCK_RECORD
  5
3BF
330
1
100
AcDbSymbolTableRecord
100
AcDbBlockTableRecord
  2
*D22
340
0
 70
     0
280
     1
281
     0
  0
BLOCK_RECORD
  5
3CB
330
1
100
AcDbSymbolTableRecord
100
AcDbBlockTableRecord
  2
*D23
340
0
 70
     0
280
     1
281
     0
  0
BLOCK_RECORD
  5
3D7
330
1
100
AcDbSymbolTableRecord
100
AcDbBlockTableRecord
  2
*D24
340
0
 70
     0
280
     1
281
     0
  0
BLOCK_RECORD
  5
3E3
330
1
100
AcDbSymbolTableRecord
100
AcDbBlockTableRecord
  2
*D25
340
0
 70
     0
280
     1
281
     0
  0
BLOCK_RECORD
  5
3EF
330
1
100
AcDbSymbolTableRecord
100
AcDbBlockTableRecord
  2
*D26
340
0
 70
     0
280
     1
281
     0
  0
BLOCK_RECORD
  5
3FB
330
1
100
AcDbSymbolTableRecord
100
AcDbBlockTableRecord
  2
*D27
340
0
 70
     0
280
     1
281
     0
  0
BLOCK_RECORD
  5
5E6
330
1
100
AcDbSymbolTableRecord
100
AcDbBlockTableRecord
  2
*D28
340
0
 70
     0
280
     1
281
     0
  0
BLOCK_RECORD
  5
614
330
1
100
AcDbSymbolTableRecord
100
AcDbBlockTableRecord
  2
*D29
340
0
 70
     0
280
     1
281
     0
  0
BLOCK_RECORD
  5
623
330
1
100
AcDbSymbolTableRecord
100
AcDbBlockTableRecord
  2
*D30
340
0
 70
     0
280
     1
281
     0
  0
ENDTAB
  0
ENDSEC
  0
SECTION
  2
BLOCKS
  0
BLOCK
  5
20
330
1F
100
AcDbEntity
  8
0
100
AcDbBlockBegin
  2
*Model_Space
 70
     0
 10
0.0
 20
0.0
 30
0.0
  3
*Model_Space
  1
*Model_Space
  0
ENDBLK
  5
21
330
1F
100
AcDbEntity
  8
0
100
AcDbBlockEnd
  0
BLOCK
  5
1C
330
1B
100
AcDbEntity
 67
     1
  8
0
100
AcDbBlockBegin
  2
*Paper_Space
 70
     0
 10
0.0
 20
0.0
 30
0.0
  3
*Paper_Space
  1
*Paper_Space
  0
ENDBLK
  5
1D
330
1B
100
AcDbEntity
 67
     1
  8
0
100
AcDbBlockEnd
  0
BLOCK
  5
24
330
23
100
AcDbEntity
  8
0
100
AcDbBlockBegin
  2
*Paper_Space0
 70
     0
 10
0.0
 20
0.0
 30
0.0
  3
*Paper_Space0
  1
*Paper_Space0
  0
ENDBLK
  5
25
330
23
100
AcDbEntity
  8
0
100
AcDbBlockEnd
  0
BLOCK
  5
F3
330
F0
100
AcDbEntity
  8
0
100
AcDbBlockBegin
  2
A3
 70
     2
 10
0.0
 20
0.0
 30
0.0
  3
A3
  1
A3
  0
MTEXT
  5
F4
102
{ACAD_XDICTIONARY
360
F5
102
}
330
F0
100
AcDbEntity
  8
0
370
    15
100
AcDbMText
 10
344.6352095028163
 20
39.82152386193752
 30
0.0
 40
3.0
 41
67.55912260384211
 46
1.095375254638529
 71
     4
 72
     5
  1
{\fTahoma|b0|i0|c0|p34;\C5;25000_final.dwg}
  7
ARIAL
 73
     1
 44
1.0
1001
ACAD
1000
ACAD_MTEXT_DEFINED_HEIGHT_BEGIN
1070
    46
1040
1.095375254638529
1000
ACAD_MTEXT_DEFINED_HEIGHT_END
  0
LINE
  5
F9
330
F0
100
AcDbEntity
  8
0
100
AcDbLine
 10
242.6618171895951
 20
43.3969215759509
 30
0.0
 11
414.9999999999999
 21
43.3969215759509
 31
0.0
  0
LINE
  5
FA
330
F0
100
AcDbEntity
  8
0
100
AcDbLine
 10
242.6618171895951
 20
4.999999999995339
 30
0.0
 11
242.6618171895951
 21
43.3969215759509
 31
0.0
  0
LINE
  5
FB
330
F0
100
AcDbEntity
  8
0
370
    15
100
AcDbLine
 10
242.6618171895951
 20
29.19846078796587
 30
0.0
 11
325.2151985778702
 21
29.19846078796587
 31
0.0
  0
LINE
  5
FC
330
F0
100
AcDbEntity
  8
0
370
    15
100
AcDbLine
 10
259.6592518362012
 20
4.999999999995339
 30
0.0
 11
259.6592518362012
 21
29.19846078796587
 31
0.0
  0
LINE
  5
FD
330
F0
100
AcDbEntity
  8
0
370
    15
100
AcDbLine
 10
325.2151985778702
 20
4.999999999995339
 30
0.0
 11
325.2151985778702
 21
43.3969215759509
 31
0.0
  0
LINE
  5
FE
330
F0
100
AcDbEntity
  8
0
370
    15
100
AcDbLine
 10
283.9385078837326
 20
4.999999999995339
 30
0.0
 11
283.9385078837327
 21
29.19846078796587
 31
0.0
  0
TEXT
  5
FF
330
F0
100
AcDbEntity
  8
0
370
    15
100
AcDbText
 10
399.0766889541972
 20
17.05277387248855
 30
0.0
 40
2.559794771730267
  1
Scale
  7
ARIAL
100
AcDbText
  0
LINE
  5
100
330
F0
100
AcDbEntity
  8
0
370
    15
100
AcDbLine
 10
397.0090417299394
 20
5.000000000000114
 30
0.0
 11
397.0090417299392
 21
37.19846078796587
 31
0.0
  0
TEXT
  5
101
330
F0
100
AcDbEntity
  8
0
370
    15
100
AcDbText
 10
243.6694860943593
 20
22.90187377692598
 30
0.0
 40
2.6
  1
Drawn by
  7
ARIAL
100
AcDbText
  0
LWPOLYLINE
  5
102
330
F0
100
AcDbEntity
  8
Neprintejas
100
AcDbPolyline
 90
        4
 70
     1
 43
0.0
 10
419.9999999999999
 20
0.0000000000001137
 10
0.0
 20
0.0000000000001137
 10
0.0
 20
297.0000000000001
 10
419.9999999999999
 20
297.0000000000001
  0
LWPOLYLINE
  5
103
330
F0
100
AcDbEntity
  8
0
100
AcDbPolyline
 90
        4
 70
     1
 43
0.0
 10
414.9999999999999
 20
5.000000000000114
 10
5.0
 20
5.000000000000114
 10
5.0
 20
292.0000000000001
 10
414.9999999999999
 20
292.0000000000001
  0
ATTDEF
  5
104
330
F0
100
AcDbEntity
  8
Izmeri
 62
     5
370
    15
100
AcDbText
 10
365.4446139709278
 20
31.02061506996444
 30
0.0
 40
3.0
  1

 72
     1
 11
366.6110532615145
 21
32.52061506996444
 31
0.0
100
AcDbAttributeDefinition
  3
Objekts
  2
1
 70
     0
 74
     2
280
     1
  0
TEXT
  5
105
330
F0
100
AcDbEntity
  8
0
100
AcDbText
 10
258.5285076754689
 20
31.44657826175415
 30
0.0
 40
2.50001955133206
  1
   
  7
ARIAL
100
AcDbText
  0
MTEXT
  5
106
330
F0
100
AcDbEntity
  8
0
370
    15
100
AcDbMText
 10
283.9385078837327
 20
29.19846078796587
 30
0.0
 40
5.759538236393099
 41
82.55338138827506
 46
14.19846078798503
 71
     8
 72
     5
  1
{\fArial|b0|i1|c186|p34;\H0.34707x;e-mail.: imants.treidis@\fArial|b0|i1|c0|p34;gmail.com\POriginal design by Johann Rocholl http://deltabot.tumblr.com}
  7
ARIAL
 73
     1
 44
0.729225126670961
1001
ACAD
1000
ACAD_MTEXT_DEFINED_HEIGHT_BEGIN
1070
    46
1040
14.19846078798503
1000
ACAD_MTEXT_DEFINED_HEIGHT_END
  0
LINE
  5
107
330
F0
100
AcDbEntity
  8
0
370
    15
100
AcDbLine
 10
325.2151985778702
 20
29.19846078796587
 30
0.0
 11
397.0090417299392
 21
29.19846078796587
 31
0.0
  0
LINE
  5
108
330
F0
100
AcDbEntity
  8
0
370
    15
100
AcDbLine
 10
325.2151985778702
 20
21.19846078796587
 30
0.0
 11
414.9999999999999
 21
21.19846078796587
 31
0.0
  0
ATTDEF
  5
109
330
F0
100
AcDbEntity
  8
Izmeri
 62
     5
370
    15
100
AcDbText
 10
365.4446139709278
 20
22.92266735267532
 30
0.0
 40
3.0
  1

 72
     1
 11
366.6110532615145
 21
24.42266735267532
 31
0.0
100
AcDbAttributeDefinition
  3
Ras.Nr.
  2
2
 70
     0
 74
     2
280
     1
  0
ATTDEF
  5
10A
330
F0
100
AcDbEntity
  8
Izmeri
 62
     5
370
    15
100
AcDbText
 10
365.4446139709278
 20
14.82215428199862
 30
0.0
 40
3.0
  1

 72
     1
 11
366.6110532615145
 21
16.32215428199862
 31
0.0
100
AcDbAttributeDefinition
  3
Rasējums1
  2
3
 70
     0
 74
     2
280
     1
  0
TEXT
  5
10B
330
F0
100
AcDbEntity
  8
0
370
    15
100
AcDbText
 10
399.076688954197
 20
33.05277387248856
 30
0.0
 40
2.559794771730267
  1
Revision
  7
ARIAL
100
AcDbText
  0
ATTDEF
  5
10C
330
F0
100
AcDbEntity
  8
Izmeri
 62
     5
370
    15
100
AcDbText
 10
365.444613970928
 20
6.623693494032864
 30
0.0
 40
3.0
  1

 72
     1
 11
366.6110532615147
 21
8.123693494032864
 31
0.0
100
AcDbAttributeDefinition
  3
Rasējums2
  2
4
 70
     0
 74
     2
280
     1
  0
ATTDEF
  5
10D
330
F0
100
AcDbEntity
  8
Izmeri
 62
     5
370
    15
100
AcDbText
 10
403.9770560631892
 20
26.1706005233483
 30
0.0
 40
3.0
  1

 72
     1
 11
405.1434953537758
 21
27.6706005233483
 31
0.0
100
AcDbAttributeDefinition
  3
Revīzija
  2
5
 70
     0
 74
     2
280
     1
  0
LINE
  5
10E
330
F0
100
AcDbEntity
  8
0
370
    15
100
AcDbLine
 10
242.6618171895951
 20
21.19846078796587
 30
0.0
 11
325.2151985778702
 21
21.19846078796587
 31
0.0
  0
LINE
  5
10F
330
F0
100
AcDbEntity
  8
0
370
    15
100
AcDbLine
 10
242.6618171895951
 20
13.19846078796587
 30
0.0
 11
325.2151985778702
 21
13.19846078796587
 31
0.0
  0
TEXT
  5
110
330
F0
100
AcDbEntity
  8
0
370
    15
100
AcDbText
 10
243.6694860943593
 20
14.90187377692598
 30
0.0
 40
2.6
  1
Checked
  7
ARIAL
100
AcDbText
  0
TEXT
  5
111
330
F0
100
AcDbEntity
  8
0
370
    15
100
AcDbText
 10
243.6694860943593
 20
6.703412988960224
 30
0.0
 40
2.6
  1
Approved
  7
ARIAL
100
AcDbText
  0
LINE
  5
112
330
F0
100
AcDbEntity
  8
0
370
    15
100
AcDbLine
 10
308.2177639312641
 20
4.999999999995339
 30
0.0
 11
308.2177639312641
 21
29.19846078796587
 31
0.0
  0
ATTDEF
  5
113
330
F0
100
AcDbEntity
  8
Izmeri
 62
     5
370
    15
100
AcDbText
 10
403.9770560631894
 20
9.470857058686583
 30
0.0
 40
3.0
  1

 72
     1
 11
405.143495353776
 21
10.97085705868658
 31
0.0
100
AcDbAttributeDefinition
  3
Mērogs
  2
6
 70
     0
 74
     2
280
     1
  0
ATTDEF
  5
114
330
F0
100
AcDbEntity
  8
Izmeri
 62
     5
370
    15
100
AcDbText
 10
260.7901332756097
 20
23.02061506996445
 30
0.0
 40
3.0
  1

 11
260.7901332756097
 21
24.52061506996445
 31
0.0
100
AcDbAttributeDefinition
  3
Rasēja:
  2
7
 70
     0
 74
     2
280
     1
  0
ATTDEF
  5
115
330
F0
100
AcDbEntity
  8
Izmeri
 62
     5
370
    15
100
AcDbText
 10
309.3486453706727
 20
23.02061506996445
 30
0.0
 40
3.0
  1

 41
0.7
 11
309.3486453706727
 21
24.52061506996445
 31
0.0
100
AcDbAttributeDefinition
  3
Ras.dat.:
  2
8
 70
     0
 74
     2
280
     1
  0
ATTDEF
  5
116
330
F0
100
AcDbEntity
  8
Izmeri
 62
     5
370
    15
100
AcDbText
 10
260.7901332756097
 20
15.02061506996445
 30
0.0
 40
3.0
  1

 11
260.7901332756097
 21
16.52061506996445
 31
0.0
100
AcDbAttributeDefinition
  3
Pārbaud.:
  2
9
 70
     0
 74
     2
280
     1
  0
ATTDEF
  5
117
330
F0
100
AcDbEntity
  8
Izmeri
 62
     5
370
    15
100
AcDbText
 10
309.3486453706727
 20
15.02061506996445
 30
0.0
 40
3.0
  1

 11
309.3486453706727
 21
16.52061506996445
 31
0.0
100
AcDbAttributeDefinition
  3
Pārbaud. dat.:
  2
10
 70
     0
 74
     2
280
     1
  0
ATTDEF
  5
118
330
F0
100
AcDbEntity
  8
Izmeri
 62
     5
370
    15
100
AcDbText
 10
260.7901332756097
 20
7.02061506996445
 30
0.0
 40
3.0
  1

 11
260.7901332756097
 21
8.52061506996445
 31
0.0
100
AcDbAttributeDefinition
  3
Apst.raž.:
  2
11
 70
     0
 74
     2
280
     1
  0
TEXT
  5
119
330
F0
100
AcDbEntity
  8
0
370
    15
100
AcDbText
 10
326.7372665626104
 20
30.90187377692598
 30
0.0
 40
2.6
  1
Obj.
  7
ARIAL
100
AcDbText
  0
TEXT
  5
11A
330
F0
100
AcDbEntity
  8
0
370
    15
100
AcDbText
 10
326.7372665626104
 20
14.70341298896022
 30
0.0
 40
2.6
  1
Drawing
  7
ARIAL
100
AcDbText
  0
TEXT
  5
11B
330
F0
100
AcDbEntity
  8
0
370
    15
100
AcDbText
 10
326.7372665626104
 20
22.70341298896022
 30
0.0
 40
2.6
  1
Dwg. No.
  7
ARIAL
100
AcDbText
  0
ATTDEF
  5
11C
330
F0
100
AcDbEntity
  8
Izmeri
 62
     5
370
    15
100
AcDbText
 10
309.3486453706727
 20
7.02061506996445
 30
0.0
 40
3.0
  1

 11
309.3486453706727
 21
8.52061506996445
 31
0.0
100
AcDbAttributeDefinition
  3
Apst.raž.dat.:
  2
12
 70
     0
 74
     2
280
     1
  0
LINE
  5
11D
330
F0
100
AcDbEntity
  8
0
370
    15
100
AcDbLine
 10
325.2151985778702
 20
37.19846078796587
 30
0.0
 11
414.9999999999999
 21
37.19846078796587
 31
0.0
  0
TEXT
  5
11E
330
F0
100
AcDbEntity
  8
0
370
    15
100
AcDbText
 10
326.7372665626104
 20
38.90187377692598
 30
0.0
 40
2.6
  1
Library.
  7
ARIAL
100
AcDbText
  0
ENDBLK
  5
11F
330
F0
100
AcDbEntity
  8
0
100
AcDbBlockEnd
  0
BLOCK
  5
162
330
161
100
AcDbEntity
  8
0
100
AcDbBlockBegin
  2
*D3
 70
     1
 10
0.0
 20
0.0
 30
0.0
  3
*D3
  1
*D3
  0
LINE
  5
163
330
161
100
AcDbEntity
  8
Izmeri
 62
     0
370
    -2
100
AcDbLine
 10
1547.350786352838
 20
731.893327978158
 30
0.0
 11
1531.258348711303
 21
731.893327978158
 31
0.0
  0
LINE
  5
164
330
161
100
AcDbEntity
  8
Izmeri
 62
     0
370
    -2
100
AcDbLine
 10
1547.350786352838
 20
651.893327978158
 30
0.0
 11
1531.258348711303
 21
651.893327978158
 31
0.0
  0
LINE
  5
165
330
161
100
AcDbEntity
  8
Izmeri
 62
     0
370
    -2
100
AcDbLine
 10
1532.508348711303
 20
729.393327978158
 30
0.0
 11
1532.508348711303
 21
654.393327978158
 31
0.0
  0
SOLID
  5
166
330
161
100
AcDbEntity
  8
Izmeri
 62
     0
100
AcDbTrace
 10
1532.92501537797
 20
729.393327978158
 30
0.0
 11
1532.091682044636
 21
729.393327978158
 31
0.0
 12
1532.508348711303
 22
731.893327978158
 32
0.0
 13
1532.508348711303
 23
731.893327978158
 33
0.0
  0
SOLID
  5
167
330
161
100
AcDbEntity
  8
Izmeri
 62
     0
100
AcDbTrace
 10
1532.091682044636
 20
654.393327978158
 30
0.0
 11
1532.92501537797
 21
654.393327978158
 31
0.0
 12
1532.508348711303
 22
651.893327978158
 32
0.0
 13
1532.508348711303
 23
651.893327978158
 33
0.0
  0
MTEXT
  5
168
330
161
100
AcDbEntity
  8
Izmeri
 62
     0
100
AcDbMText
 10
1530.606916241999
 20
691.893327978158
 30
0.0
 40
2.5
 41
0.0
 46
0.0
 71
     5
 72
     1
  1
80
 11
0.0
 21
1.0
 31
0.0
 73
     1
 44
1.0
  0
POINT
  5
169
330
161
100
AcDbEntity
  8
Defpoints
 62
     0
100
AcDbPoint
 10
1547.975786352838
 20
731.893327978158
 30
0.0
  0
POINT
  5
16A
330
161
100
AcDbEntity
  8
Defpoints
 62
     0
100
AcDbPoint
 10
1547.975786352838
 20
651.893327978158
 30
0.0
  0
POINT
  5
16B
330
161
100
AcDbEntity
  8
Defpoints
 62
     0
100
AcDbPoint
 10
1532.508348711303
 20
651.893327978158
 30
0.0
  0
ENDBLK
  5
16C
330
161
100
AcDbEntity
  8
0
100
AcDbBlockEnd
  0
BLOCK
  5
170
330
16F
100
AcDbEntity
  8
0
100
AcDbBlockBegin
  2
*D4
 70
     1
 10
0.0
 20
0.0
 30
0.0
  3
*D4
  1
*D4
  0
LINE
  5
171
330
16F
100
AcDbEntity
  8
Izmeri
 62
     0
370
    -2
100
AcDbLine
 10
1547.350786352838
 20
731.893327978158
 30
0.0
 11
1536.770135052188
 21
731.893327978158
 31
0.0
  0
LINE
  5
172
330
16F
100
AcDbEntity
  8
Izmeri
 62
     0
370
    -2
100
AcDbLine
 10
1547.350786352838
 20
711.8933279781322
 30
0.0
 11
1536.770135052188
 21
711.8933279781322
 31
0.0
  0
LINE
  5
173
330
16F
100
AcDbEntity
  8
Izmeri
 62
     0
370
    -2
100
AcDbLine
 10
1538.020135052188
 20
729.393327978158
 30
0.0
 11
1538.020135052188
 21
714.3933279781322
 31
0.0
  0
SOLID
  5
174
330
16F
100
AcDbEntity
  8
Izmeri
 62
     0
100
AcDbTrace
 10
1538.436801718855
 20
729.393327978158
 30
0.0
 11
1537.603468385522
 21
729.393327978158
 31
0.0
 12
1538.020135052188
 22
731.893327978158
 32
0.0
 13
1538.020135052188
 23
731.893327978158
 33
0.0
  0
SOLID
  5
175
330
16F
100
AcDbEntity
  8
Izmeri
 62
     0
100
AcDbTrace
 10
1537.603468385522
 20
714.3933279781322
 30
0.0
 11
1538.436801718855
 21
714.3933279781322
 31
0.0
 12
1538.020135052188
 22
711.8933279781322
 32
0.0
 13
1538.020135052188
 23
711.8933279781322
 33
0.0
  0
MTEXT
  5
176
330
16F
100
AcDbEntity
  8
Izmeri
 62
     0
100
AcDbMText
 10
1536.118702582884
 20
721.8933279781452
 30
0.0
 40
2.5
 41
0.0
 46
0.0
 71
     5
 72
     1
  1
20
 11
0.0
 21
1.0
 31
0.0
 73
     1
 44
1.0
  0
POINT
  5
177
330
16F
100
AcDbEntity
  8
Defpoints
 62
     0
100
AcDbPoint
 10
1547.975786352838
 20
731.893327978158
 30
0.0
  0
POINT
  5
178
330
16F
100
AcDbEntity
  8
Defpoints
 62
     0
100
AcDbPoint
 10
1547.975786352838
 20
711.8933279781322
 30
0.0
  0
POINT
  5
179
330
16F
100
AcDbEntity
  8
Defpoints
 62
     0
100
AcDbPoint
 10
1538.020135052188
 20
711.8933279781322
 30
0.0
  0
ENDBLK
  5
17A
330
16F
100
AcDbEntity
  8
0
100
AcDbBlockEnd
  0
BLOCK
  5
17E
330
17D
100
AcDbEntity
  8
0
100
AcDbBlockBegin
  2
*D5
 70
     1
 10
0.0
 20
0.0
 30
0.0
  3
*D5
  1
*D5
  0
LINE
  5
17F
330
17D
100
AcDbEntity
  8
Izmeri
 62
     0
370
    -2
100
AcDbLine
 10
1547.350786352838
 20
711.8933279781322
 30
0.0
 11
1536.770135052188
 21
711.8933279781322
 31
0.0
  0
LINE
  5
180
330
17D
100
AcDbEntity
  8
Izmeri
 62
     0
370
    -2
100
AcDbLine
 10
1547.350786352839
 20
671.8933279781769
 30
0.0
 11
1536.770135052188
 21
671.8933279781769
 31
0.0
  0
LINE
  5
181
330
17D
100
AcDbEntity
  8
Izmeri
 62
     0
370
    -2
100
AcDbLine
 10
1538.020135052188
 20
709.3933279781322
 30
0.0
 11
1538.020135052188
 21
674.3933279781769
 31
0.0
  0
SOLID
  5
182
330
17D
100
AcDbEntity
  8
Izmeri
 62
     0
100
AcDbTrace
 10
1538.436801718855
 20
709.3933279781322
 30
0.0
 11
1537.603468385522
 21
709.3933279781322
 31
0.0
 12
1538.020135052188
 22
711.8933279781322
 32
0.0
 13
1538.020135052188
 23
711.8933279781322
 33
0.0
  0
SOLID
  5
183
330
17D
100
AcDbEntity
  8
Izmeri
 62
     0
100
AcDbTrace
 10
1537.603468385522
 20
674.3933279781769
 30
0.0
 11
1538.436801718855
 21
674.3933279781769
 31
0.0
 12
1538.020135052188
 22
671.8933279781769
 32
0.0
 13
1538.020135052188
 23
671.8933279781769
 33
0.0
  0
MTEXT
  5
184
330
17D
100
AcDbEntity
  8
Izmeri
 62
     0
100
AcDbMText
 10
1536.118702582884
 20
691.8933279781545
 30
0.0
 40
2.5
 41
0.0
 46
0.0
 71
     5
 72
     1
  1
40
 11
0.0
 21
1.0
 31
0.0
 73
     1
 44
1.0
  0
POINT
  5
185
330
17D
100
AcDbEntity
  8
Defpoints
 62
     0
100
AcDbPoint
 10
1547.975786352838
 20
711.8933279781322
 30
0.0
  0
POINT
  5
186
330
17D
100
AcDbEntity
  8
Defpoints
 62
     0
100
AcDbPoint
 10
1547.975786352839
 20
671.8933279781769
 30
0.0
  0
POINT
  5
187
330
17D
100
AcDbEntity
  8
Defpoints
 62
     0
100
AcDbPoint
 10
1538.020135052188
 20
671.8933279781769
 30
0.0
  0
ENDBLK
  5
188
330
17D
100
AcDbEntity
  8
0
100
AcDbBlockEnd
  0
BLOCK
  5
18C
330
18B
100
AcDbEntity
  8
0
100
AcDbBlockBegin
  2
*D6
 70
     1
 10
0.0
 20
0.0
 30
0.0
  3
*D6
  1
*D6
  0
LINE
  5
18D
330
18B
100
AcDbEntity
  8
Izmeri
 62
     0
370
    -2
100
AcDbLine
 10
1547.350786352839
 20
671.8933279781769
 30
0.0
 11
1536.770135052188
 21
671.8933279781769
 31
0.0
  0
LINE
  5
18E
330
18B
100
AcDbEntity
  8
Izmeri
 62
     0
370
    -2
100
AcDbLine
 10
1547.350786352838
 20
651.893327978158
 30
0.0
 11
1536.770135052188
 21
651.893327978158
 31
0.0
  0
LINE
  5
18F
330
18B
100
AcDbEntity
  8
Izmeri
 62
     0
370
    -2
100
AcDbLine
 10
1538.020135052188
 20
669.3933279781769
 30
0.0
 11
1538.020135052188
 21
654.393327978158
 31
0.0
  0
SOLID
  5
190
330
18B
100
AcDbEntity
  8
Izmeri
 62
     0
100
AcDbTrace
 10
1538.436801718855
 20
669.3933279781769
 30
0.0
 11
1537.603468385522
 21
669.3933279781769
 31
0.0
 12
1538.020135052188
 22
671.8933279781769
 32
0.0
 13
1538.020135052188
 23
671.8933279781769
 33
0.0
  0
SOLID
  5
191
330
18B
100
AcDbEntity
  8
Izmeri
 62
     0
100
AcDbTrace
 10
1537.603468385522
 20
654.393327978158
 30
0.0
 11
1538.436801718855
 21
654.393327978158
 31
0.0
 12
1538.020135052188
 22
651.893327978158
 32
0.0
 13
1538.020135052188
 23
651.893327978158
 33
0.0
  0
MTEXT
  5
192
330
18B
100
AcDbEntity
  8
Izmeri
 62
     0
100
AcDbMText
 10
1536.118702582884
 20
661.8933279781675
 30
0.0
 40
2.5
 41
0.0
 46
0.0
 71
     5
 72
     1
  1
20
 11
0.0
 21
1.0
 31
0.0
 73
     1
 44
1.0
  0
POINT
  5
193
330
18B
100
AcDbEntity
  8
Defpoints
 62
     0
100
AcDbPoint
 10
1547.975786352839
 20
671.8933279781769
 30
0.0
  0
POINT
  5
194
330
18B
100
AcDbEntity
  8
Defpoints
 62
     0
100
AcDbPoint
 10
1547.975786352838
 20
651.893327978158
 30
0.0
  0
POINT
  5
195
330
18B
100
AcDbEntity
  8
Defpoints
 62
     0
100
AcDbPoint
 10
1538.020135052188
 20
651.893327978158
 30
0.0
  0
ENDBLK
  5
196
330
18B
100
AcDbEntity
  8
0
100
AcDbBlockEnd
  0
BLOCK
  5
1D6
330
1D5
100
AcDbEntity
  8
0
100
AcDbBlockBegin
  2
*D7
 70
     1
 10
0.0
 20
0.0
 30
0.0
  3
*D7
  1
*D7
  0
LINE
  5
1D7
330
1D5
100
AcDbEntity
  8
Izmeri
 62
     0
370
    -2
100
AcDbLine
 10
1542.975786352838
 20
722.5183279781451
 30
0.0
 11
1542.975786352838
 21
745.1717404040628
 31
0.0
  0
LINE
  5
1D8
330
1D5
100
AcDbEntity
  8
Izmeri
 62
     0
370
    -2
100
AcDbLine
 10
1707.975786352838
 20
722.5183279781531
 30
0.0
 11
1707.975786352838
 21
745.1717404040628
 31
0.0
  0
LINE
  5
1D9
330
1D5
100
AcDbEntity
  8
Izmeri
 62
     0
370
    -2
100
AcDbLine
 10
1545.475786352838
 20
743.9217404040628
 30
0.0
 11
1705.475786352838
 21
743.9217404040628
 31
0.0
  0
SOLID
  5
1DA
330
1D5
100
AcDbEntity
  8
Izmeri
 62
     0
100
AcDbTrace
 10
1545.475786352838
 20
744.3384070707294
 30
0.0
 11
1545.475786352838
 21
743.5050737373962
 31
0.0
 12
1542.975786352838
 22
743.9217404040628
 32
0.0
 13
1542.975786352838
 23
743.9217404040628
 33
0.0
  0
SOLID
  5
1DB
330
1D5
100
AcDbEntity
  8
Izmeri
 62
     0
100
AcDbTrace
 10
1705.475786352838
 20
743.5050737373962
 30
0.0
 11
1705.475786352838
 21
744.3384070707294
 31
0.0
 12
1707.975786352838
 22
743.9217404040628
 32
0.0
 13
1707.975786352838
 23
743.9217404040628
 33
0.0
  0
MTEXT
  5
1DC
330
1D5
100
AcDbEntity
  8
Izmeri
 62
     0
100
AcDbMText
 10
1625.475786352838
 20
745.8231728733671
 30
0.0
 40
2.5
 41
0.0
 46
0.0
 71
     5
 72
     1
  1
165
 73
     1
 44
1.0
  0
POINT
  5
1DD
330
1D5
100
AcDbEntity
  8
Defpoints
 62
     0
100
AcDbPoint
 10
1542.975786352838
 20
721.8933279781451
 30
0.0
  0
POINT
  5
1DE
330
1D5
100
AcDbEntity
  8
Defpoints
 62
     0
100
AcDbPoint
 10
1707.975786352838
 20
721.8933279781531
 30
0.0
  0
POINT
  5
1DF
330
1D5
100
AcDbEntity
  8
Defpoints
 62
     0
100
AcDbPoint
 10
1707.975786352838
 20
743.9217404040628
 30
0.0
  0
ENDBLK
  5
1E0
330
1D5
100
AcDbEntity
  8
0
100
AcDbBlockEnd
  0
BLOCK
  5
1E5
330
1E4
100
AcDbEntity
  8
0
100
AcDbBlockBegin
  2
*D8
 70
     1
 10
0.0
 20
0.0
 30
0.0
  3
*D8
  1
*D8
  0
LINE
  5
1E6
330
1E4
100
AcDbEntity
  8
Izmeri
 62
     0
370
    -2
100
AcDbLine
 10
1592.975786352838
 20
732.518327978158
 30
0.0
 11
1592.975786352838
 21
738.5152573465971
 31
0.0
  0
LINE
  5
1E7
330
1E4
100
AcDbEntity
  8
Izmeri
 62
     0
370
    -2
100
AcDbLine
 10
1542.975786352838
 20
723.1433279781451
 30
0.0
 11
1542.975786352838
 21
738.5152573465971
 31
0.0
  0
LINE
  5
1E8
330
1E4
100
AcDbEntity
  8
Izmeri
 62
     0
370
    -2
100
AcDbLine
 10
1590.475786352838
 20
737.2652573465971
 30
0.0
 11
1545.475786352838
 21
737.2652573465971
 31
0.0
  0
SOLID
  5
1E9
330
1E4
100
AcDbEntity
  8
Izmeri
 62
     0
100
AcDbTrace
 10
1590.475786352838
 20
736.8485906799305
 30
0.0
 11
1590.475786352838
 21
737.6819240132637
 31
0.0
 12
1592.975786352838
 22
737.2652573465971
 32
0.0
 13
1592.975786352838
 23
737.2652573465971
 33
0.0
  0
SOLID
  5
1EA
330
1E4
100
AcDbEntity
  8
Izmeri
 62
     0
100
AcDbTrace
 10
1545.475786352838
 20
737.6819240132637
 30
0.0
 11
1545.475786352838
 21
736.8485906799305
 31
0.0
 12
1542.975786352838
 22
737.2652573465971
 32
0.0
 13
1542.975786352838
 23
737.2652573465971
 33
0.0
  0
MTEXT
  5
1EB
330
1E4
100
AcDbEntity
  8
Izmeri
 62
     0
100
AcDbMText
 10
1567.975786352838
 20
739.1666898159013
 30
0.0
 40
2.5
 41
0.0
 46
0.0
 71
     5
 72
     1
  1
50
 73
     1
 44
1.0
  0
POINT
  5
1EC
330
1E4
100
AcDbEntity
  8
Defpoints
 62
     0
100
AcDbPoint
 10
1592.975786352838
 20
731.893327978158
 30
0.0
  0
POINT
  5
1ED
330
1E4
100
AcDbEntity
  8
Defpoints
 62
     0
100
AcDbPoint
 10
1542.975786352838
 20
722.5183279781451
 30
0.0
  0
POINT
  5
1EE
330
1E4
100
AcDbEntity
  8
Defpoints
 62
     0
100
AcDbPoint
 10
1542.975786352838
 20
737.2652573465971
 30
0.0
  0
ENDBLK
  5
1EF
330
1E4
100
AcDbEntity
  8
0
100
AcDbBlockEnd
  0
BLOCK
  5
1F4
330
1F3
100
AcDbEntity
  8
0
100
AcDbBlockBegin
  2
*D9
 70
     1
 10
0.0
 20
0.0
 30
0.0
  3
*D9
  1
*D9
  0
LINE
  5
1F5
330
1F3
100
AcDbEntity
  8
Izmeri
 62
     0
370
    -2
100
AcDbLine
 10
1592.975786352838
 20
732.518327978158
 30
0.0
 11
1592.975786352838
 21
738.5152573465971
 31
0.0
  0
LINE
  5
1F6
330
1F3
100
AcDbEntity
  8
Izmeri
 62
     0
370
    -2
100
AcDbLine
 10
1657.975786352838
 20
732.518327978158
 30
0.0
 11
1657.975786352838
 21
738.5152573465971
 31
0.0
  0
LINE
  5
1F7
330
1F3
100
AcDbEntity
  8
Izmeri
 62
     0
370
    -2
100
AcDbLine
 10
1595.475786352838
 20
737.2652573465971
 30
0.0
 11
1655.475786352838
 21
737.2652573465971
 31
0.0
  0
SOLID
  5
1F8
330
1F3
100
AcDbEntity
  8
Izmeri
 62
     0
100
AcDbTrace
 10
1595.475786352838
 20
737.6819240132637
 30
0.0
 11
1595.475786352838
 21
736.8485906799305
 31
0.0
 12
1592.975786352838
 22
737.2652573465971
 32
0.0
 13
1592.975786352838
 23
737.2652573465971
 33
0.0
  0
SOLID
  5
1F9
330
1F3
100
AcDbEntity
  8
Izmeri
 62
     0
100
AcDbTrace
 10
1655.475786352838
 20
736.8485906799305
 30
0.0
 11
1655.475786352838
 21
737.6819240132637
 31
0.0
 12
1657.975786352838
 22
737.2652573465971
 32
0.0
 13
1657.975786352838
 23
737.2652573465971
 33
0.0
  0
MTEXT
  5
1FA
330
1F3
100
AcDbEntity
  8
Izmeri
 62
     0
100
AcDbMText
 10
1625.475786352838
 20
739.1666898159013
 30
0.0
 40
2.5
 41
0.0
 46
0.0
 71
     5
 72
     1
  1
65
 73
     1
 44
1.0
  0
POINT
  5
1FB
330
1F3
100
AcDbEntity
  8
Defpoints
 62
     0
100
AcDbPoint
 10
1592.975786352838
 20
731.893327978158
 30
0.0
  0
POINT
  5
1FC
330
1F3
100
AcDbEntity
  8
Defpoints
 62
     0
100
AcDbPoint
 10
1657.975786352838
 20
731.893327978158
 30
0.0
  0
POINT
  5
1FD
330
1F3
100
AcDbEntity
  8
Defpoints
 62
     0
100
AcDbPoint
 10
1657.975786352838
 20
737.2652573465971
 30
0.0
  0
ENDBLK
  5
1FE
330
1F3
100
AcDbEntity
  8
0
100
AcDbBlockEnd
  0
BLOCK
  5
203
330
202
100
AcDbEntity
  8
0
100
AcDbBlockBegin
  2
*D10
 70
     1
 10
0.0
 20
0.0
 30
0.0
  3
*D10
  1
*D10
  0
LINE
  5
204
330
202
100
AcDbEntity
  8
Izmeri
 62
     0
370
    -2
100
AcDbLine
 10
1657.975786352838
 20
732.518327978158
 30
0.0
 11
1657.975786352838
 21
738.5152573465971
 31
0.0
  0
LINE
  5
205
330
202
100
AcDbEntity
  8
Izmeri
 62
     0
370
    -2
100
AcDbLine
 10
1707.975786352838
 20
723.1433279781531
 30
0.0
 11
1707.975786352838
 21
738.5152573465971
 31
0.0
  0
LINE
  5
206
330
202
100
AcDbEntity
  8
Izmeri
 62
     0
370
    -2
100
AcDbLine
 10
1660.475786352838
 20
737.2652573465971
 30
0.0
 11
1705.475786352838
 21
737.2652573465971
 31
0.0
  0
SOLID
  5
207
330
202
100
AcDbEntity
  8
Izmeri
 62
     0
100
AcDbTrace
 10
1660.475786352838
 20
737.6819240132637
 30
0.0
 11
1660.475786352838
 21
736.8485906799305
 31
0.0
 12
1657.975786352838
 22
737.2652573465971
 32
0.0
 13
1657.975786352838
 23
737.2652573465971
 33
0.0
  0
SOLID
  5
208
330
202
100
AcDbEntity
  8
Izmeri
 62
     0
100
AcDbTrace
 10
1705.475786352838
 20
736.8485906799305
 30
0.0
 11
1705.475786352838
 21
737.6819240132637
 31
0.0
 12
1707.975786352838
 22
737.2652573465971
 32
0.0
 13
1707.975786352838
 23
737.2652573465971
 33
0.0
  0
MTEXT
  5
209
330
202
100
AcDbEntity
  8
Izmeri
 62
     0
100
AcDbMText
 10
1682.975786352838
 20
739.1666898159013
 30
0.0
 40
2.5
 41
0.0
 46
0.0
 71
     5
 72
     1
  1
50
 73
     1
 44
1.0
  0
POINT
  5
20A
330
202
100
AcDbEntity
  8
Defpoints
 62
     0
100
AcDbPoint
 10
1657.975786352838
 20
731.893327978158
 30
0.0
  0
POINT
  5
20B
330
202
100
AcDbEntity
  8
Defpoints
 62
     0
100
AcDbPoint
 10
1707.975786352838
 20
722.5183279781531
 30
0.0
  0
POINT
  5
20C
330
202
100
AcDbEntity
  8
Defpoints
 62
     0
100
AcDbPoint
 10
1707.975786352838
 20
737.2652573465971
 30
0.0
  0
ENDBLK
  5
20D
330
202
100
AcDbEntity
  8
0
100
AcDbBlockEnd
  0
BLOCK
  5
26F
330
26E
100
AcDbEntity
  8
0
100
AcDbBlockBegin
  2
*D12
 70
     1
 10
0.0
 20
0.0
 30
0.0
  3
*D12
  1
*D12
  0
LINE
  5
270
330
26E
100
AcDbEntity
  8
Izmeri
 62
     0
370
    -2
100
AcDbLine
 10
18.02030258014372
 20
80.0
 30
0.0
 11
1.927864938608427
 21
80.0
 31
0.0
  0
LINE
  5
271
330
26E
100
AcDbEntity
  8
Izmeri
 62
     0
370
    -2
100
AcDbLine
 10
18.02030258014372
 20
0.0
 30
0.0
 11
1.927864938608423
 21
0.000000000000001
 31
0.0
  0
LINE
  5
272
330
26E
100
AcDbEntity
  8
Izmeri
 62
     0
370
    -2
100
AcDbLine
 10
3.177864938608427
 20
77.5
 30
0.0
 11
3.177864938608423
 21
2.500000000000001
 31
0.0
  0
SOLID
  5
273
330
26E
100
AcDbEntity
  8
Izmeri
 62
     0
100
AcDbTrace
 10
3.594531605275094
 20
77.5
 30
0.0
 11
2.761198271941761
 21
77.5
 31
0.0
 12
3.177864938608427
 22
80.0
 32
0.0
 13
3.177864938608427
 23
80.0
 33
0.0
  0
SOLID
  5
274
330
26E
100
AcDbEntity
  8
Izmeri
 62
     0
100
AcDbTrace
 10
2.761198271941756
 20
2.500000000000001
 30
0.0
 11
3.594531605275089
 21
2.500000000000001
 31
0.0
 12
3.177864938608423
 22
0.0000000000000009
 32
0.0
 13
3.177864938608423
 23
0.0000000000000009
 33
0.0
  0
MTEXT
  5
275
330
26E
100
AcDbEntity
  8
Izmeri
 62
     0
100
AcDbMText
 10
1.276432469304193
 20
40.0
 30
0.0
 40
2.5
 41
0.0
 46
0.0
 71
     5
 72
     1
  1
80
 11
6.106226635438361E-17
 21
1.0
 31
0.0
 73
     1
 44
1.0
  0
POINT
  5
276
330
26E
100
AcDbEntity
  8
Defpoints
 62
     0
100
AcDbPoint
 10
18.64530258014372
 20
80.0
 30
0.0
  0
POINT
  5
277
330
26E
100
AcDbEntity
  8
Defpoints
 62
     0
100
AcDbPoint
 10
18.64530258014372
 20
0.0
 30
0.0
  0
POINT
  5
278
330
26E
100
AcDbEntity
  8
Defpoints
 62
     0
100
AcDbPoint
 10
3.177864938608423
 20
0.0000000000000009
 30
0.0
  0
ENDBLK
  5
279
330
26E
100
AcDbEntity
  8
0
100
AcDbBlockEnd
  0
BLOCK
  5
27D
330
27C
100
AcDbEntity
  8
0
100
AcDbBlockBegin
  2
*D13
 70
     1
 10
0.0
 20
0.0
 30
0.0
  3
*D13
  1
*D13
  0
LINE
  5
27E
330
27C
100
AcDbEntity
  8
Izmeri
 62
     0
370
    -2
100
AcDbLine
 10
18.02030258014372
 20
80.0
 30
0.0
 11
7.439651279493775
 21
80.0
 31
0.0
  0
LINE
  5
27F
330
27C
100
AcDbEntity
  8
Izmeri
 62
     0
370
    -2
100
AcDbLine
 10
18.02030258014372
 20
59.99999999997414
 30
0.0
 11
7.439651279493773
 21
59.99999999997414
 31
0.0
  0
LINE
  5
280
330
27C
100
AcDbEntity
  8
Izmeri
 62
     0
370
    -2
100
AcDbLine
 10
8.689651279493775
 20
77.5
 30
0.0
 11
8.689651279493773
 21
62.49999999997414
 31
0.0
  0
SOLID
  5
281
330
27C
100
AcDbEntity
  8
Izmeri
 62
     0
100
AcDbTrace
 10
9.106317946160441
 20
77.5
 30
0.0
 11
8.27298461282711
 21
77.5
 31
0.0
 12
8.689651279493775
 22
80.0
 32
0.0
 13
8.689651279493775
 23
80.0
 33
0.0
  0
SOLID
  5
282
330
27C
100
AcDbEntity
  8
Izmeri
 62
     0
100
AcDbTrace
 10
8.272984612827107
 20
62.49999999997414
 30
0.0
 11
9.10631794616044
 21
62.49999999997414
 31
0.0
 12
8.689651279493773
 22
59.99999999997414
 32
0.0
 13
8.689651279493773
 23
59.99999999997414
 33
0.0
  0
MTEXT
  5
283
330
27C
100
AcDbEntity
  8
Izmeri
 62
     0
100
AcDbMText
 10
6.788218810189548
 20
69.99999999998707
 30
0.0
 40
2.5
 41
0.0
 46
0.0
 71
     5
 72
     1
  1
20
 11
8.881784196989766E-17
 21
1.0
 31
0.0
 73
     1
 44
1.0
  0
POINT
  5
284
330
27C
100
AcDbEntity
  8
Defpoints
 62
     0
100
AcDbPoint
 10
18.64530258014372
 20
80.0
 30
0.0
  0
POINT
  5
285
330
27C
100
AcDbEntity
  8
Defpoints
 62
     0
100
AcDbPoint
 10
18.64530258014372
 20
59.99999999997414
 30
0.0
  0
POINT
  5
286
330
27C
100
AcDbEntity
  8
Defpoints
 62
     0
100
AcDbPoint
 10
8.689651279493773
 20
59.99999999997414
 30
0.0
  0
ENDBLK
  5
287
330
27C
100
AcDbEntity
  8
0
100
AcDbBlockEnd
  0
BLOCK
  5
28B
330
28A
100
AcDbEntity
  8
0
100
AcDbBlockBegin
  2
*D14
 70
     1
 10
0.0
 20
0.0
 30
0.0
  3
*D14
  1
*D14
  0
LINE
  5
28C
330
28A
100
AcDbEntity
  8
Izmeri
 62
     0
370
    -2
100
AcDbLine
 10
18.02030258014372
 20
59.99999999997414
 30
0.0
 11
7.439651279493775
 21
59.99999999997414
 31
0.0
  0
LINE
  5
28D
330
28A
100
AcDbEntity
  8
Izmeri
 62
     0
370
    -2
100
AcDbLine
 10
18.02030258014452
 20
20.00000000001887
 30
0.0
 11
7.439651279493773
 21
20.00000000001887
 31
0.0
  0
LINE
  5
28E
330
28A
100
AcDbEntity
  8
Izmeri
 62
     0
370
    -2
100
AcDbLine
 10
8.689651279493775
 20
57.49999999997414
 30
0.0
 11
8.689651279493773
 21
22.50000000001887
 31
0.0
  0
SOLID
  5
28F
330
28A
100
AcDbEntity
  8
Izmeri
 62
     0
100
AcDbTrace
 10
9.106317946160441
 20
57.49999999997414
 30
0.0
 11
8.27298461282711
 21
57.49999999997414
 31
0.0
 12
8.689651279493775
 22
59.99999999997414
 32
0.0
 13
8.689651279493775
 23
59.99999999997414
 33
0.0
  0
SOLID
  5
290
330
28A
100
AcDbEntity
  8
Izmeri
 62
     0
100
AcDbTrace
 10
8.272984612827107
 20
22.50000000001887
 30
0.0
 11
9.10631794616044
 21
22.50000000001887
 31
0.0
 12
8.689651279493773
 22
20.00000000001887
 32
0.0
 13
8.689651279493773
 23
20.00000000001887
 33
0.0
  0
MTEXT
  5
291
330
28A
100
AcDbEntity
  8
Izmeri
 62
     0
100
AcDbMText
 10
6.788218810189541
 20
39.9999999999965
 30
0.0
 40
2.5
 41
0.0
 46
0.0
 71
     5
 72
     1
  1
40
 11
4.440892098505593E-17
 21
1.0
 31
0.0
 73
     1
 44
1.0
  0
POINT
  5
292
330
28A
100
AcDbEntity
  8
Defpoints
 62
     0
100
AcDbPoint
 10
18.64530258014372
 20
59.99999999997414
 30
0.0
  0
POINT
  5
293
330
28A
100
AcDbEntity
  8
Defpoints
 62
     0
100
AcDbPoint
 10
18.64530258014452
 20
20.00000000001887
 30
0.0
  0
POINT
  5
294
330
28A
100
AcDbEntity
  8
Defpoints
 62
     0
100
AcDbPoint
 10
8.689651279493773
 20
20.00000000001887
 30
0.0
  0
ENDBLK
  5
295
330
28A
100
AcDbEntity
  8
0
100
AcDbBlockEnd
  0
BLOCK
  5
299
330
298
100
AcDbEntity
  8
0
100
AcDbBlockBegin
  2
*D15
 70
     1
 10
0.0
 20
0.0
 30
0.0
  3
*D15
  1
*D15
  0
LINE
  5
29A
330
298
100
AcDbEntity
  8
Izmeri
 62
     0
370
    -2
100
AcDbLine
 10
18.02030258014452
 20
20.00000000001887
 30
0.0
 11
7.439651279493889
 21
20.00000000001887
 31
0.0
  0
LINE
  5
29B
330
298
100
AcDbEntity
  8
Izmeri
 62
     0
370
    -2
100
AcDbLine
 10
18.02030258014383
 20
0.0
 30
0.0
 11
7.439651279493887
 21
0.0000000000000007
 31
0.0
  0
LINE
  5
29C
330
298
100
AcDbEntity
  8
Izmeri
 62
     0
370
    -2
100
AcDbLine
 10
8.689651279493889
 20
17.50000000001887
 30
0.0
 11
8.689651279493887
 21
2.5
 31
0.0
  0
SOLID
  5
29D
330
298
100
AcDbEntity
  8
Izmeri
 62
     0
100
AcDbTrace
 10
9.106317946160555
 20
17.50000000001887
 30
0.0
 11
8.272984612827223
 21
17.50000000001887
 31
0.0
 12
8.689651279493889
 22
20.00000000001887
 32
0.0
 13
8.689651279493889
 23
20.00000000001887
 33
0.0
  0
SOLID
  5
29E
330
298
100
AcDbEntity
  8
Izmeri
 62
     0
100
AcDbTrace
 10
8.272984612827221
 20
2.5
 30
0.0
 11
9.106317946160553
 21
2.5
 31
0.0
 12
8.689651279493887
 22
0.0000000000000006
 32
0.0
 13
8.689651279493887
 23
0.0000000000000006
 33
0.0
  0
MTEXT
  5
29F
330
298
100
AcDbEntity
  8
Izmeri
 62
     0
100
AcDbMText
 10
6.788218810189658
 20
10.00000000000944
 30
0.0
 40
2.5
 41
0.0
 46
0.0
 71
     5
 72
     1
  1
20
 11
8.881784196992871E-17
 21
1.0
 31
0.0
 73
     1
 44
1.0
  0
POINT
  5
2A0
330
298
100
AcDbEntity
  8
Defpoints
 62
     0
100
AcDbPoint
 10
18.64530258014452
 20
20.00000000001887
 30
0.0
  0
POINT
  5
2A1
330
298
100
AcDbEntity
  8
Defpoints
 62
     0
100
AcDbPoint
 10
18.64530258014383
 20
0.0
 30
0.0
  0
POINT
  5
2A2
330
298
100
AcDbEntity
  8
Defpoints
 62
     0
100
AcDbPoint
 10
8.689651279493887
 20
0.0000000000000006
 30
0.0
  0
ENDBLK
  5
2A3
330
298
100
AcDbEntity
  8
0
100
AcDbBlockEnd
  0
BLOCK
  5
2E3
330
2E2
100
AcDbEntity
  8
0
100
AcDbBlockBegin
  2
*D16
 70
     1
 10
0.0
 20
0.0
 30
0.0
  3
*D16
  1
*D16
  0
LINE
  5
2E4
330
2E2
100
AcDbEntity
  8
Izmeri
 62
     0
370
    -2
100
AcDbLine
 10
13.64530258014372
 20
70.62499999998704
 30
0.0
 11
13.64530258014372
 21
93.27841242590478
 31
0.0
  0
LINE
  5
2E5
330
2E2
100
AcDbEntity
  8
Izmeri
 62
     0
370
    -2
100
AcDbLine
 10
178.6453025801437
 20
70.62499999999511
 30
0.0
 11
178.6453025801437
 21
93.27841242590478
 31
0.0
  0
LINE
  5
2E6
330
2E2
100
AcDbEntity
  8
Izmeri
 62
     0
370
    -2
100
AcDbLine
 10
16.14530258014372
 20
92.02841242590478
 30
0.0
 11
176.1453025801437
 21
92.02841242590478
 31
0.0
  0
SOLID
  5
2E7
330
2E2
100
AcDbEntity
  8
Izmeri
 62
     0
100
AcDbTrace
 10
16.14530258014372
 20
92.44507909257145
 30
0.0
 11
16.14530258014372
 21
91.6117457592381
 31
0.0
 12
13.64530258014372
 22
92.02841242590478
 32
0.0
 13
13.64530258014372
 23
92.02841242590478
 33
0.0
  0
SOLID
  5
2E8
330
2E2
100
AcDbEntity
  8
Izmeri
 62
     0
100
AcDbTrace
 10
176.1453025801437
 20
91.6117457592381
 30
0.0
 11
176.1453025801437
 21
92.44507909257145
 31
0.0
 12
178.6453025801437
 22
92.02841242590478
 32
0.0
 13
178.6453025801437
 23
92.02841242590478
 33
0.0
  0
MTEXT
  5
2E9
330
2E2
100
AcDbEntity
  8
Izmeri
 62
     0
100
AcDbMText
 10
96.14530258014372
 20
93.929844895209
 30
0.0
 40
2.5
 41
0.0
 46
0.0
 71
     5
 72
     1
  1
165
 73
     1
 44
1.0
  0
POINT
  5
2EA
330
2E2
100
AcDbEntity
  8
Defpoints
 62
     0
100
AcDbPoint
 10
13.64530258014372
 20
69.99999999998704
 30
0.0
  0
POINT
  5
2EB
330
2E2
100
AcDbEntity
  8
Defpoints
 62
     0
100
AcDbPoint
 10
178.6453025801437
 20
69.99999999999511
 30
0.0
  0
POINT
  5
2EC
330
2E2
100
AcDbEntity
  8
Defpoints
 62
     0
100
AcDbPoint
 10
178.6453025801437
 20
92.02841242590478
 30
0.0
  0
ENDBLK
  5
2ED
330
2E2
100
AcDbEntity
  8
0
100
AcDbBlockEnd
  0
BLOCK
  5
2F2
330
2F1
100
AcDbEntity
  8
0
100
AcDbBlockBegin
  2
*D17
 70
     1
 10
0.0
 20
0.0
 30
0.0
  3
*D17
  1
*D17
  0
LINE
  5
2F3
330
2F1
100
AcDbEntity
  8
Izmeri
 62
     0
370
    -2
100
AcDbLine
 10
63.64530258014372
 20
80.625
 30
0.0
 11
63.64530258014372
 21
86.621929368439
 31
0.0
  0
LINE
  5
2F4
330
2F1
100
AcDbEntity
  8
Izmeri
 62
     0
370
    -2
100
AcDbLine
 10
13.64530258014372
 20
71.24999999998704
 30
0.0
 11
13.64530258014372
 21
86.621929368439
 31
0.0
  0
LINE
  5
2F5
330
2F1
100
AcDbEntity
  8
Izmeri
 62
     0
370
    -2
100
AcDbLine
 10
61.14530258014372
 20
85.371929368439
 30
0.0
 11
16.14530258014372
 21
85.371929368439
 31
0.0
  0
SOLID
  5
2F6
330
2F1
100
AcDbEntity
  8
Izmeri
 62
     0
100
AcDbTrace
 10
61.14530258014372
 20
84.95526270177233
 30
0.0
 11
61.14530258014372
 21
85.78859603510567
 31
0.0
 12
63.64530258014372
 22
85.371929368439
 32
0.0
 13
63.64530258014372
 23
85.371929368439
 33
0.0
  0
SOLID
  5
2F7
330
2F1
100
AcDbEntity
  8
Izmeri
 62
     0
100
AcDbTrace
 10
16.14530258014372
 20
85.78859603510567
 30
0.0
 11
16.14530258014372
 21
84.95526270177233
 31
0.0
 12
13.64530258014372
 22
85.371929368439
 32
0.0
 13
13.64530258014372
 23
85.371929368439
 33
0.0
  0
MTEXT
  5
2F8
330
2F1
100
AcDbEntity
  8
Izmeri
 62
     0
100
AcDbMText
 10
38.64530258014372
 20
87.27336183774322
 30
0.0
 40
2.5
 41
0.0
 46
0.0
 71
     5
 72
     1
  1
50
 73
     1
 44
1.0
  0
POINT
  5
2F9
330
2F1
100
AcDbEntity
  8
Defpoints
 62
     0
100
AcDbPoint
 10
63.64530258014372
 20
80.0
 30
0.0
  0
POINT
  5
2FA
330
2F1
100
AcDbEntity
  8
Defpoints
 62
     0
100
AcDbPoint
 10
13.64530258014372
 20
70.62499999998704
 30
0.0
  0
POINT
  5
2FB
330
2F1
100
AcDbEntity
  8
Defpoints
 62
     0
100
AcDbPoint
 10
13.64530258014372
 20
85.371929368439
 30
0.0
  0
ENDBLK
  5
2FC
330
2F1
100
AcDbEntity
  8
0
100
AcDbBlockEnd
  0
BLOCK
  5
301
330
300
100
AcDbEntity
  8
0
100
AcDbBlockBegin
  2
*D18
 70
     1
 10
0.0
 20
0.0
 30
0.0
  3
*D18
  1
*D18
  0
LINE
  5
302
330
300
100
AcDbEntity
  8
Izmeri
 62
     0
370
    -2
100
AcDbLine
 10
63.64530258014372
 20
80.625
 30
0.0
 11
63.64530258014372
 21
86.621929368439
 31
0.0
  0
LINE
  5
303
330
300
100
AcDbEntity
  8
Izmeri
 62
     0
370
    -2
100
AcDbLine
 10
128.6453025801437
 20
80.625
 30
0.0
 11
128.6453025801437
 21
86.621929368439
 31
0.0
  0
LINE
  5
304
330
300
100
AcDbEntity
  8
Izmeri
 62
     0
370
    -2
100
AcDbLine
 10
66.14530258014372
 20
85.371929368439
 30
0.0
 11
126.1453025801437
 21
85.371929368439
 31
0.0
  0
SOLID
  5
305
330
300
100
AcDbEntity
  8
Izmeri
 62
     0
100
AcDbTrace
 10
66.14530258014372
 20
85.78859603510567
 30
0.0
 11
66.14530258014372
 21
84.95526270177233
 31
0.0
 12
63.64530258014372
 22
85.371929368439
 32
0.0
 13
63.64530258014372
 23
85.371929368439
 33
0.0
  0
SOLID
  5
306
330
300
100
AcDbEntity
  8
Izmeri
 62
     0
100
AcDbTrace
 10
126.1453025801437
 20
84.95526270177233
 30
0.0
 11
126.1453025801437
 21
85.78859603510567
 31
0.0
 12
128.6453025801437
 22
85.371929368439
 32
0.0
 13
128.6453025801437
 23
85.371929368439
 33
0.0
  0
MTEXT
  5
307
330
300
100
AcDbEntity
  8
Izmeri
 62
     0
100
AcDbMText
 10
96.14530258014372
 20
87.27336183774322
 30
0.0
 40
2.5
 41
0.0
 46
0.0
 71
     5
 72
     1
  1
65
 73
     1
 44
1.0
  0
POINT
  5
308
330
300
100
AcDbEntity
  8
Defpoints
 62
     0
100
AcDbPoint
 10
63.64530258014372
 20
80.0
 30
0.0
  0
POINT
  5
309
330
300
100
AcDbEntity
  8
Defpoints
 62
     0
100
AcDbPoint
 10
128.6453025801437
 20
80.0
 30
0.0
  0
POINT
  5
30A
330
300
100
AcDbEntity
  8
Defpoints
 62
     0
100
AcDbPoint
 10
128.6453025801437
 20
85.371929368439
 30
0.0
  0
ENDBLK
  5
30B
330
300
100
AcDbEntity
  8
0
100
AcDbBlockEnd
  0
BLOCK
  5
310
330
30F
100
AcDbEntity
  8
0
100
AcDbBlockBegin
  2
*D19
 70
     1
 10
0.0
 20
0.0
 30
0.0
  3
*D19
  1
*D19
  0
LINE
  5
311
330
30F
100
AcDbEntity
  8
Izmeri
 62
     0
370
    -2
100
AcDbLine
 10
128.6453025801437
 20
80.625
 30
0.0
 11
128.6453025801437
 21
86.621929368439
 31
0.0
  0
LINE
  5
312
330
30F
100
AcDbEntity
  8
Izmeri
 62
     0
370
    -2
100
AcDbLine
 10
178.6453025801437
 20
71.24999999999511
 30
0.0
 11
178.6453025801437
 21
86.621929368439
 31
0.0
  0
LINE
  5
313
330
30F
100
AcDbEntity
  8
Izmeri
 62
     0
370
    -2
100
AcDbLine
 10
131.1453025801437
 20
85.371929368439
 30
0.0
 11
176.1453025801437
 21
85.371929368439
 31
0.0
  0
SOLID
  5
314
330
30F
100
AcDbEntity
  8
Izmeri
 62
     0
100
AcDbTrace
 10
131.1453025801437
 20
85.78859603510567
 30
0.0
 11
131.1453025801437
 21
84.95526270177233
 31
0.0
 12
128.6453025801437
 22
85.371929368439
 32
0.0
 13
128.6453025801437
 23
85.371929368439
 33
0.0
  0
SOLID
  5
315
330
30F
100
AcDbEntity
  8
Izmeri
 62
     0
100
AcDbTrace
 10
176.1453025801437
 20
84.95526270177233
 30
0.0
 11
176.1453025801437
 21
85.78859603510567
 31
0.0
 12
178.6453025801437
 22
85.371929368439
 32
0.0
 13
178.6453025801437
 23
85.371929368439
 33
0.0
  0
MTEXT
  5
316
330
30F
100
AcDbEntity
  8
Izmeri
 62
     0
100
AcDbMText
 10
153.6453025801437
 20
87.27336183774322
 30
0.0
 40
2.5
 41
0.0
 46
0.0
 71
     5
 72
     1
  1
50
 73
     1
 44
1.0
  0
POINT
  5
317
330
30F
100
AcDbEntity
  8
Defpoints
 62
     0
100
AcDbPoint
 10
128.6453025801437
 20
80.0
 30
0.0
  0
POINT
  5
318
330
30F
100
AcDbEntity
  8
Defpoints
 62
     0
100
AcDbPoint
 10
178.6453025801437
 20
70.62499999999511
 30
0.0
  0
POINT
  5
319
330
30F
100
AcDbEntity
  8
Defpoints
 62
     0
100
AcDbPoint
 10
178.6453025801437
 20
85.371929368439
 30
0.0
  0
ENDBLK
  5
31A
330
30F
100
AcDbEntity
  8
0
100
AcDbBlockEnd
  0
BLOCK
  5
3A8
330
3A7
100
AcDbEntity
  8
0
100
AcDbBlockBegin
  2
*D20
 70
     1
 10
0.0
 20
0.0
 30
0.0
  3
*D20
  1
*D20
  0
LINE
  5
3AA
330
3A7
100
AcDbEntity
  8
Izmeri
 62
     0
370
    -2
100
AcDbLine
 10
-78.12499999999898
 20
40.00000000000557
 30
0.0
 11
-94.21743764153427
 21
40.00000000000557
 31
0.0
  0
LINE
  5
3AB
330
3A7
100
AcDbEntity
  8
Izmeri
 62
     0
370
    -2
100
AcDbLine
 10
-78.12499999999898
 20
-39.99999999999443
 30
0.0
 11
-94.21743764153427
 21
-39.99999999999443
 31
0.0
  0
LINE
  5
3AC
330
3A7
100
AcDbEntity
  8
Izmeri
 62
     0
370
    -2
100
AcDbLine
 10
-92.96743764153427
 20
37.50000000000557
 30
0.0
 11
-92.96743764153427
 21
-37.49999999999443
 31
0.0
  0
SOLID
  5
3AD
330
3A7
100
AcDbEntity
  8
Izmeri
 62
     0
100
AcDbTrace
 10
-92.5507709748676
 20
37.50000000000557
 30
0.0
 11
-93.38410430820095
 21
37.50000000000557
 31
0.0
 12
-92.96743764153427
 22
40.00000000000557
 32
0.0
 13
-92.96743764153427
 23
40.00000000000557
 33
0.0
  0
SOLID
  5
3AE
330
3A7
100
AcDbEntity
  8
Izmeri
 62
     0
100
AcDbTrace
 10
-93.38410430820095
 20
-37.49999999999443
 30
0.0
 11
-92.5507709748676
 21
-37.49999999999443
 31
0.0
 12
-92.96743764153427
 22
-39.99999999999443
 32
0.0
 13
-92.96743764153427
 23
-39.99999999999443
 33
0.0
  0
MTEXT
  5
3AF
330
3A7
100
AcDbEntity
  8
Izmeri
 62
     0
100
AcDbMText
 10
-94.8688701108385
 20
0.0000000000055707
 30
0.0
 40
2.5
 41
0.0
 46
0.0
 71
     5
 72
     1
  1
80
 11
0.0
 21
1.0
 31
0.0
 73
     1
 44
1.0
  0
POINT
  5
3B0
330
3A7
100
AcDbEntity
  8
Defpoints
 62
     0
100
AcDbPoint
 10
-77.49999999999898
 20
40.00000000000557
 30
0.0
  0
POINT
  5
3B1
330
3A7
100
AcDbEntity
  8
Defpoints
 62
     0
100
AcDbPoint
 10
-77.49999999999898
 20
-39.99999999999443
 30
0.0
  0
POINT
  5
3B2
330
3A7
100
AcDbEntity
  8
Defpoints
 62
     0
100
AcDbPoint
 10
-92.96743764153427
 20
-39.99999999999443
 30
0.0
  0
ENDBLK
  5
3A9
330
3A7
100
AcDbEntity
  8
0
100
AcDbBlockEnd
  0
BLOCK
  5
3B4
330
3B3
100
AcDbEntity
  8
0
100
AcDbBlockBegin
  2
*D21
 70
     1
 10
0.0
 20
0.0
 30
0.0
  3
*D21
  1
*D21
  0
LINE
  5
3B6
330
3B3
100
AcDbEntity
  8
Izmeri
 62
     0
370
    -2
100
AcDbLine
 10
-78.12499999999898
 20
40.00000000000557
 30
0.0
 11
-88.70565130064892
 21
40.00000000000557
 31
0.0
  0
LINE
  5
3B7
330
3B3
100
AcDbEntity
  8
Izmeri
 62
     0
370
    -2
100
AcDbLine
 10
-78.12499999999898
 20
19.99999999997971
 30
0.0
 11
-88.70565130064892
 21
19.99999999997971
 31
0.0
  0
LINE
  5
3B8
330
3B3
100
AcDbEntity
  8
Izmeri
 62
     0
370
    -2
100
AcDbLine
 10
-87.45565130064892
 20
37.50000000000557
 30
0.0
 11
-87.45565130064892
 21
22.49999999997971
 31
0.0
  0
SOLID
  5
3B9
330
3B3
100
AcDbEntity
  8
Izmeri
 62
     0
100
AcDbTrace
 10
-87.03898463398225
 20
37.50000000000557
 30
0.0
 11
-87.8723179673156
 21
37.50000000000557
 31
0.0
 12
-87.45565130064892
 22
40.00000000000557
 32
0.0
 13
-87.45565130064892
 23
40.00000000000557
 33
0.0
  0
SOLID
  5
3BA
330
3B3
100
AcDbEntity
  8
Izmeri
 62
     0
100
AcDbTrace
 10
-87.8723179673156
 20
22.49999999997971
 30
0.0
 11
-87.03898463398225
 21
22.49999999997971
 31
0.0
 12
-87.45565130064892
 22
19.99999999997971
 32
0.0
 13
-87.45565130064892
 23
19.99999999997971
 33
0.0
  0
MTEXT
  5
3BB
330
3B3
100
AcDbEntity
  8
Izmeri
 62
     0
100
AcDbMText
 10
-89.35708376995315
 20
29.99999999999264
 30
0.0
 40
2.5
 41
0.0
 46
0.0
 71
     5
 72
     1
  1
20
 11
0.0
 21
1.0
 31
0.0
 73
     1
 44
1.0
  0
POINT
  5
3BC
330
3B3
100
AcDbEntity
  8
Defpoints
 62
     0
100
AcDbPoint
 10
-77.49999999999898
 20
40.00000000000557
 30
0.0
  0
POINT
  5
3BD
330
3B3
100
AcDbEntity
  8
Defpoints
 62
     0
100
AcDbPoint
 10
-77.49999999999898
 20
19.99999999997971
 30
0.0
  0
POINT
  5
3BE
330
3B3
100
AcDbEntity
  8
Defpoints
 62
     0
100
AcDbPoint
 10
-87.45565130064892
 20
19.99999999997971
 30
0.0
  0
ENDBLK
  5
3B5
330
3B3
100
AcDbEntity
  8
0
100
AcDbBlockEnd
  0
BLOCK
  5
3C0
330
3BF
100
AcDbEntity
  8
0
100
AcDbBlockBegin
  2
*D22
 70
     1
 10
0.0
 20
0.0
 30
0.0
  3
*D22
  1
*D22
  0
LINE
  5
3C2
330
3BF
100
AcDbEntity
  8
Izmeri
 62
     0
370
    -2
100
AcDbLine
 10
-78.12499999999898
 20
19.99999999997971
 30
0.0
 11
-88.70565130064892
 21
19.99999999997971
 31
0.0
  0
LINE
  5
3C3
330
3BF
100
AcDbEntity
  8
Izmeri
 62
     0
370
    -2
100
AcDbLine
 10
-78.12499999999818
 20
-19.99999999997556
 30
0.0
 11
-88.70565130064892
 21
-19.99999999997556
 31
0.0
  0
LINE
  5
3C4
330
3BF
100
AcDbEntity
  8
Izmeri
 62
     0
370
    -2
100
AcDbLine
 10
-87.45565130064892
 20
17.49999999997971
 30
0.0
 11
-87.45565130064892
 21
-17.49999999997556
 31
0.0
  0
SOLID
  5
3C5
330
3BF
100
AcDbEntity
  8
Izmeri
 62
     0
100
AcDbTrace
 10
-87.03898463398225
 20
17.49999999997971
 30
0.0
 11
-87.8723179673156
 21
17.49999999997971
 31
0.0
 12
-87.45565130064892
 22
19.99999999997971
 32
0.0
 13
-87.45565130064892
 23
19.99999999997971
 33
0.0
  0
SOLID
  5
3C6
330
3BF
100
AcDbEntity
  8
Izmeri
 62
     0
100
AcDbTrace
 10
-87.8723179673156
 20
-17.49999999997556
 30
0.0
 11
-87.03898463398225
 21
-17.49999999997556
 31
0.0
 12
-87.45565130064892
 22
-19.99999999997556
 32
0.0
 13
-87.45565130064892
 23
-19.99999999997556
 33
0.0
  0
MTEXT
  5
3C7
330
3BF
100
AcDbEntity
  8
Izmeri
 62
     0
100
AcDbMText
 10
-89.35708376995315
 20
0.0000000000020748
 30
0.0
 40
2.5
 41
0.0
 46
0.0
 71
     5
 72
     1
  1
40
 11
0.0
 21
1.0
 31
0.0
 73
     1
 44
1.0
  0
POINT
  5
3C8
330
3BF
100
AcDbEntity
  8
Defpoints
 62
     0
100
AcDbPoint
 10
-77.49999999999898
 20
19.99999999997971
 30
0.0
  0
POINT
  5
3C9
330
3BF
100
AcDbEntity
  8
Defpoints
 62
     0
100
AcDbPoint
 10
-77.49999999999818
 20
-19.99999999997556
 30
0.0
  0
POINT
  5
3CA
330
3BF
100
AcDbEntity
  8
Defpoints
 62
     0
100
AcDbPoint
 10
-87.45565130064892
 20
-19.99999999997556
 30
0.0
  0
ENDBLK
  5
3C1
330
3BF
100
AcDbEntity
  8
0
100
AcDbBlockEnd
  0
BLOCK
  5
3CC
330
3CB
100
AcDbEntity
  8
0
100
AcDbBlockBegin
  2
*D23
 70
     1
 10
0.0
 20
0.0
 30
0.0
  3
*D23
  1
*D23
  0
LINE
  5
3CE
330
3CB
100
AcDbEntity
  8
Izmeri
 62
     0
370
    -2
100
AcDbLine
 10
-78.12499999999818
 20
-19.99999999997556
 30
0.0
 11
-88.70565130064881
 21
-19.99999999997556
 31
0.0
  0
LINE
  5
3CF
330
3CB
100
AcDbEntity
  8
Izmeri
 62
     0
370
    -2
100
AcDbLine
 10
-78.12499999999886
 20
-39.99999999999443
 30
0.0
 11
-88.70565130064881
 21
-39.99999999999443
 31
0.0
  0
LINE
  5
3D0
330
3CB
100
AcDbEntity
  8
Izmeri
 62
     0
370
    -2
100
AcDbLine
 10
-87.45565130064881
 20
-22.49999999997556
 30
0.0
 11
-87.45565130064881
 21
-37.49999999999443
 31
0.0
  0
SOLID
  5
3D1
330
3CB
100
AcDbEntity
  8
Izmeri
 62
     0
100
AcDbTrace
 10
-87.03898463398214
 20
-22.49999999997556
 30
0.0
 11
-87.87231796731548
 21
-22.49999999997556
 31
0.0
 12
-87.45565130064881
 22
-19.99999999997556
 32
0.0
 13
-87.45565130064881
 23
-19.99999999997556
 33
0.0
  0
SOLID
  5
3D2
330
3CB
100
AcDbEntity
  8
Izmeri
 62
     0
100
AcDbTrace
 10
-87.87231796731548
 20
-37.49999999999443
 30
0.0
 11
-87.03898463398214
 21
-37.49999999999443
 31
0.0
 12
-87.45565130064881
 22
-39.99999999999443
 32
0.0
 13
-87.45565130064881
 23
-39.99999999999443
 33
0.0
  0
MTEXT
  5
3D3
330
3CB
100
AcDbEntity
  8
Izmeri
 62
     0
100
AcDbMText
 10
-89.35708376995304
 20
-29.99999999998499
 30
0.0
 40
2.5
 41
0.0
 46
0.0
 71
     5
 72
     1
  1
20
 11
0.0
 21
1.0
 31
0.0
 73
     1
 44
1.0
  0
POINT
  5
3D4
330
3CB
100
AcDbEntity
  8
Defpoints
 62
     0
100
AcDbPoint
 10
-77.49999999999818
 20
-19.99999999997556
 30
0.0
  0
POINT
  5
3D5
330
3CB
100
AcDbEntity
  8
Defpoints
 62
     0
100
AcDbPoint
 10
-77.49999999999886
 20
-39.99999999999443
 30
0.0
  0
POINT
  5
3D6
330
3CB
100
AcDbEntity
  8
Defpoints
 62
     0
100
AcDbPoint
 10
-87.45565130064881
 20
-39.99999999999443
 30
0.0
  0
ENDBLK
  5
3CD
330
3CB
100
AcDbEntity
  8
0
100
AcDbBlockEnd
  0
BLOCK
  5
3D8
330
3D7
100
AcDbEntity
  8
0
100
AcDbBlockBegin
  2
*D24
 70
     1
 10
0.0
 20
0.0
 30
0.0
  3
*D24
  1
*D24
  0
LINE
  5
3DA
330
3D7
100
AcDbEntity
  8
Izmeri
 62
     0
370
    -2
100
AcDbLine
 10
-82.49999999999898
 20
30.62499999999261
 30
0.0
 11
-82.49999999999898
 21
53.27841242591035
 31
0.0
  0
LINE
  5
3DB
330
3D7
100
AcDbEntity
  8
Izmeri
 62
     0
370
    -2
100
AcDbLine
 10
82.50000000000102
 20
30.62500000000068
 30
0.0
 11
82.50000000000102
 21
53.27841242591035
 31
0.0
  0
LINE
  5
3DC
330
3D7
100
AcDbEntity
  8
Izmeri
 62
     0
370
    -2
100
AcDbLine
 10
-79.99999999999898
 20
52.02841242591035
 30
0.0
 11
80.00000000000102
 21
52.02841242591035
 31
0.0
  0
SOLID
  5
3DD
330
3D7
100
AcDbEntity
  8
Izmeri
 62
     0
100
AcDbTrace
 10
-79.99999999999898
 20
52.44507909257701
 30
0.0
 11
-79.99999999999898
 21
51.61174575924368
 31
0.0
 12
-82.49999999999898
 22
52.02841242591035
 32
0.0
 13
-82.49999999999898
 23
52.02841242591035
 33
0.0
  0
SOLID
  5
3DE
330
3D7
100
AcDbEntity
  8
Izmeri
 62
     0
100
AcDbTrace
 10
80.00000000000102
 20
51.61174575924368
 30
0.0
 11
80.00000000000102
 21
52.44507909257701
 31
0.0
 12
82.50000000000102
 22
52.02841242591035
 32
0.0
 13
82.50000000000102
 23
52.02841242591035
 33
0.0
  0
MTEXT
  5
3DF
330
3D7
100
AcDbEntity
  8
Izmeri
 62
     0
100
AcDbMText
 10
0.0000000000010232
 20
53.92984489521458
 30
0.0
 40
2.5
 41
0.0
 46
0.0
 71
     5
 72
     1
  1
165
 73
     1
 44
1.0
  0
POINT
  5
3E0
330
3D7
100
AcDbEntity
  8
Defpoints
 62
     0
100
AcDbPoint
 10
-82.49999999999898
 20
29.99999999999261
 30
0.0
  0
POINT
  5
3E1
330
3D7
100
AcDbEntity
  8
Defpoints
 62
     0
100
AcDbPoint
 10
82.50000000000102
 20
30.00000000000068
 30
0.0
  0
POINT
  5
3E2
330
3D7
100
AcDbEntity
  8
Defpoints
 62
     0
100
AcDbPoint
 10
82.50000000000102
 20
52.02841242591035
 30
0.0
  0
ENDBLK
  5
3D9
330
3D7
100
AcDbEntity
  8
0
100
AcDbBlockEnd
  0
BLOCK
  5
3E4
330
3E3
100
AcDbEntity
  8
0
100
AcDbBlockBegin
  2
*D25
 70
     1
 10
0.0
 20
0.0
 30
0.0
  3
*D25
  1
*D25
  0
LINE
  5
3E6
330
3E3
100
AcDbEntity
  8
Izmeri
 62
     0
370
    -2
100
AcDbLine
 10
-32.49999999999898
 20
40.62500000000557
 30
0.0
 11
-32.49999999999898
 21
46.62192936844457
 31
0.0
  0
LINE
  5
3E7
330
3E3
100
AcDbEntity
  8
Izmeri
 62
     0
370
    -2
100
AcDbLine
 10
-82.49999999999898
 20
31.24999999999261
 30
0.0
 11
-82.49999999999898
 21
46.62192936844457
 31
0.0
  0
LINE
  5
3E8
330
3E3
100
AcDbEntity
  8
Izmeri
 62
     0
370
    -2
100
AcDbLine
 10
-34.99999999999898
 20
45.37192936844457
 30
0.0
 11
-79.99999999999898
 21
45.37192936844457
 31
0.0
  0
SOLID
  5
3E9
330
3E3
100
AcDbEntity
  8
Izmeri
 62
     0
100
AcDbTrace
 10
-34.99999999999898
 20
44.9552627017779
 30
0.0
 11
-34.99999999999898
 21
45.78859603511123
 31
0.0
 12
-32.49999999999898
 22
45.37192936844457
 32
0.0
 13
-32.49999999999898
 23
45.37192936844457
 33
0.0
  0
SOLID
  5
3EA
330
3E3
100
AcDbEntity
  8
Izmeri
 62
     0
100
AcDbTrace
 10
-79.99999999999898
 20
45.78859603511123
 30
0.0
 11
-79.99999999999898
 21
44.9552627017779
 31
0.0
 12
-82.49999999999898
 22
45.37192936844457
 32
0.0
 13
-82.49999999999898
 23
45.37192936844457
 33
0.0
  0
MTEXT
  5
3EB
330
3E3
100
AcDbEntity
  8
Izmeri
 62
     0
100
AcDbMText
 10
-57.49999999999898
 20
47.2733618377488
 30
0.0
 40
2.5
 41
0.0
 46
0.0
 71
     5
 72
     1
  1
50
 73
     1
 44
1.0
  0
POINT
  5
3EC
330
3E3
100
AcDbEntity
  8
Defpoints
 62
     0
100
AcDbPoint
 10
-32.49999999999898
 20
40.00000000000557
 30
0.0
  0
POINT
  5
3ED
330
3E3
100
AcDbEntity
  8
Defpoints
 62
     0
100
AcDbPoint
 10
-82.49999999999898
 20
30.62499999999261
 30
0.0
  0
POINT
  5
3EE
330
3E3
100
AcDbEntity
  8
Defpoints
 62
     0
100
AcDbPoint
 10
-82.49999999999898
 20
45.37192936844457
 30
0.0
  0
ENDBLK
  5
3E5
330
3E3
100
AcDbEntity
  8
0
100
AcDbBlockEnd
  0
BLOCK
  5
3F0
330
3EF
100
AcDbEntity
  8
0
100
AcDbBlockBegin
  2
*D26
 70
     1
 10
0.0
 20
0.0
 30
0.0
  3
*D26
  1
*D26
  0
LINE
  5
3F2
330
3EF
100
AcDbEntity
  8
Izmeri
 62
     0
370
    -2
100
AcDbLine
 10
-32.49999999999898
 20
40.62500000000557
 30
0.0
 11
-32.49999999999898
 21
46.62192936844457
 31
0.0
  0
LINE
  5
3F3
330
3EF
100
AcDbEntity
  8
Izmeri
 62
     0
370
    -2
100
AcDbLine
 10
32.50000000000102
 20
40.62500000000557
 30
0.0
 11
32.50000000000102
 21
46.62192936844457
 31
0.0
  0
LINE
  5
3F4
330
3EF
100
AcDbEntity
  8
Izmeri
 62
     0
370
    -2
100
AcDbLine
 10
-29.99999999999898
 20
45.37192936844457
 30
0.0
 11
30.00000000000102
 21
45.37192936844457
 31
0.0
  0
SOLID
  5
3F5
330
3EF
100
AcDbEntity
  8
Izmeri
 62
     0
100
AcDbTrace
 10
-29.99999999999898
 20
45.78859603511123
 30
0.0
 11
-29.99999999999898
 21
44.9552627017779
 31
0.0
 12
-32.49999999999898
 22
45.37192936844457
 32
0.0
 13
-32.49999999999898
 23
45.37192936844457
 33
0.0
  0
SOLID
  5
3F6
330
3EF
100
AcDbEntity
  8
Izmeri
 62
     0
100
AcDbTrace
 10
30.00000000000102
 20
44.9552627017779
 30
0.0
 11
30.00000000000102
 21
45.78859603511123
 31
0.0
 12
32.50000000000102
 22
45.37192936844457
 32
0.0
 13
32.50000000000102
 23
45.37192936844457
 33
0.0
  0
MTEXT
  5
3F7
330
3EF
100
AcDbEntity
  8
Izmeri
 62
     0
100
AcDbMText
 10
0.0000000000010232
 20
47.2733618377488
 30
0.0
 40
2.5
 41
0.0
 46
0.0
 71
     5
 72
     1
  1
65
 73
     1
 44
1.0
  0
POINT
  5
3F8
330
3EF
100
AcDbEntity
  8
Defpoints
 62
     0
100
AcDbPoint
 10
-32.49999999999898
 20
40.00000000000557
 30
0.0
  0
POINT
  5
3F9
330
3EF
100
AcDbEntity
  8
Defpoints
 62
     0
100
AcDbPoint
 10
32.50000000000102
 20
40.00000000000557
 30
0.0
  0
POINT
  5
3FA
330
3EF
100
AcDbEntity
  8
Defpoints
 62
     0
100
AcDbPoint
 10
32.50000000000102
 20
45.37192936844457
 30
0.0
  0
ENDBLK
  5
3F1
330
3EF
100
AcDbEntity
  8
0
100
AcDbBlockEnd
  0
BLOCK
  5
3FC
330
3FB
100
AcDbEntity
  8
0
100
AcDbBlockBegin
  2
*D27
 70
     1
 10
0.0
 20
0.0
 30
0.0
  3
*D27
  1
*D27
  0
LINE
  5
3FE
330
3FB
100
AcDbEntity
  8
Izmeri
 62
     0
370
    -2
100
AcDbLine
 10
32.50000000000102
 20
40.62500000000557
 30
0.0
 11
32.50000000000102
 21
46.62192936844457
 31
0.0
  0
LINE
  5
3FF
330
3FB
100
AcDbEntity
  8
Izmeri
 62
     0
370
    -2
100
AcDbLine
 10
82.50000000000102
 20
31.25000000000068
 30
0.0
 11
82.50000000000102
 21
46.62192936844457
 31
0.0
  0
LINE
  5
400
330
3FB
100
AcDbEntity
  8
Izmeri
 62
     0
370
    -2
100
AcDbLine
 10
35.00000000000102
 20
45.37192936844457
 30
0.0
 11
80.00000000000102
 21
45.37192936844457
 31
0.0
  0
SOLID
  5
401
330
3FB
100
AcDbEntity
  8
Izmeri
 62
     0
100
AcDbTrace
 10
35.00000000000102
 20
45.78859603511123
 30
0.0
 11
35.00000000000102
 21
44.9552627017779
 31
0.0
 12
32.50000000000102
 22
45.37192936844457
 32
0.0
 13
32.50000000000102
 23
45.37192936844457
 33
0.0
  0
SOLID
  5
402
330
3FB
100
AcDbEntity
  8
Izmeri
 62
     0
100
AcDbTrace
 10
80.00000000000102
 20
44.9552627017779
 30
0.0
 11
80.00000000000102
 21
45.78859603511123
 31
0.0
 12
82.50000000000102
 22
45.37192936844457
 32
0.0
 13
82.50000000000102
 23
45.37192936844457
 33
0.0
  0
MTEXT
  5
403
330
3FB
100
AcDbEntity
  8
Izmeri
 62
     0
100
AcDbMText
 10
57.50000000000102
 20
47.2733618377488
 30
0.0
 40
2.5
 41
0.0
 46
0.0
 71
     5
 72
     1
  1
50
 73
     1
 44
1.0
  0
POINT
  5
404
330
3FB
100
AcDbEntity
  8
Defpoints
 62
     0
100
AcDbPoint
 10
32.50000000000102
 20
40.00000000000557
 30
0.0
  0
POINT
  5
405
330
3FB
100
AcDbEntity
  8
Defpoints
 62
     0
100
AcDbPoint
 10
82.50000000000102
 20
30.62500000000068
 30
0.0
  0
POINT
  5
406
330
3FB
100
AcDbEntity
  8
Defpoints
 62
     0
100
AcDbPoint
 10
82.50000000000102
 20
45.37192936844457
 30
0.0
  0
ENDBLK
  5
3FD
330
3FB
100
AcDbEntity
  8
0
100
AcDbBlockEnd
  0
BLOCK
  5
5E7
330
5E6
100
AcDbEntity
  8
0
100
AcDbBlockBegin
  2
*D28
 70
     1
 10
0.0
 20
0.0
 30
0.0
  3
*D28
  1
*D28
  0
LINE
  5
5E9
330
5E6
100
AcDbEntity
  8
0
 62
     0
370
    -2
100
AcDbLine
 10
20.62349708690124
 20
26.07079326249736
 30
0.0
 11
46.29881677115984
 21
26.07079326249737
 31
0.0
  0
LINE
  5
5EA
330
5E6
100
AcDbEntity
  8
0
 62
     0
370
    -2
100
AcDbLine
 10
20.62349708690124
 20
-26.07079326249623
 30
0.0
 11
46.29881677115984
 21
-26.07079326249623
 31
0.0
  0
LINE
  5
5EB
330
5E6
100
AcDbEntity
  8
0
 62
     0
370
    -2
100
AcDbLine
 10
45.04881677115984
 20
23.57079326249737
 30
0.0
 11
45.04881677115984
 21
-23.57079326249623
 31
0.0
  0
SOLID
  5
5EC
330
5E6
100
AcDbEntity
  8
0
 62
     0
100
AcDbTrace
 10
45.4654834378265
 20
23.57079326249737
 30
0.0
 11
44.63215010449317
 21
23.57079326249737
 31
0.0
 12
45.04881677115984
 22
26.07079326249737
 32
0.0
 13
45.04881677115984
 23
26.07079326249737
 33
0.0
  0
SOLID
  5
5ED
330
5E6
100
AcDbEntity
  8
0
 62
     0
100
AcDbTrace
 10
44.63215010449317
 20
-23.57079326249623
 30
0.0
 11
45.4654834378265
 21
-23.57079326249623
 31
0.0
 12
45.04881677115984
 22
-26.07079326249623
 32
0.0
 13
45.04881677115984
 23
-26.07079326249623
 33
0.0
  0
MTEXT
  5
5EE
330
5E6
100
AcDbEntity
  8
0
 62
     0
100
AcDbMText
 10
42.92142932231945
 20
0.0000000000005684
 30
0.0
 40
2.5
 41
0.0
 46
0.0
 71
     5
 72
     1
  1
52,14
 11
0.0
 21
1.0
 31
0.0
 73
     1
 44
1.0
  0
POINT
  5
5EF
330
5E6
100
AcDbEntity
  8
Defpoints
 62
     0
100
AcDbPoint
 10
19.99849708690124
 20
26.07079326249736
 30
0.0
  0
POINT
  5
5F0
330
5E6
100
AcDbEntity
  8
Defpoints
 62
     0
100
AcDbPoint
 10
19.99849708690124
 20
-26.07079326249623
 30
0.0
  0
POINT
  5
5F1
330
5E6
100
AcDbEntity
  8
Defpoints
 62
     0
100
AcDbPoint
 10
45.04881677115984
 20
-26.07079326249623
 30
0.0
  0
ENDBLK
  5
5E8
330
5E6
100
AcDbEntity
  8
0
100
AcDbBlockEnd
  0
BLOCK
  5
615
330
614
100
AcDbEntity
  8
0
100
AcDbBlockBegin
  2
*D29
 70
     1
 10
0.0
 20
0.0
 30
0.0
  3
*D29
  1
*D29
  0
LINE
  5
617
330
614
100
AcDbEntity
  8
Izmeri
 62
     0
370
    -2
100
AcDbLine
 10
-24.19499999999914
 20
23.57000000000669
 30
0.0
 11
-28.35070141717875
 21
23.57000000000669
 31
0.0
  0
LINE
  5
618
330
614
100
AcDbEntity
  8
Izmeri
 62
     0
370
    -2
100
AcDbLine
 10
-24.19499999999914
 20
-23.57000000000556
 30
0.0
 11
-28.35070141717875
 21
-23.57000000000556
 31
0.0
  0
LINE
  5
619
330
614
100
AcDbEntity
  8
Izmeri
 62
     0
370
    -2
100
AcDbLine
 10
-27.10070141717875
 20
21.07000000000669
 30
0.0
 11
-27.10070141717875
 21
-21.07000000000556
 31
0.0
  0
SOLID
  5
61A
330
614
100
AcDbEntity
  8
Izmeri
 62
     0
100
AcDbTrace
 10
-26.68403475051208
 20
21.07000000000669
 30
0.0
 11
-27.51736808384542
 21
21.07000000000669
 31
0.0
 12
-27.10070141717875
 22
23.57000000000669
 32
0.0
 13
-27.10070141717875
 23
23.57000000000669
 33
0.0
  0
SOLID
  5
61B
330
614
100
AcDbEntity
  8
Izmeri
 62
     0
100
AcDbTrace
 10
-27.51736808384542
 20
-21.07000000000556
 30
0.0
 11
-26.68403475051209
 21
-21.07000000000556
 31
0.0
 12
-27.10070141717875
 22
-23.57000000000556
 32
0.0
 13
-27.10070141717875
 23
-23.57000000000556
 33
0.0
  0
MTEXT
  5
61C
330
614
100
AcDbEntity
  8
Izmeri
 62
     0
100
AcDbMText
 10
-29.22808886601914
 20
0.000000000000565
 30
0.0
 40
2.5
 41
0.0
 46
0.0
 71
     5
 72
     1
  1
47,14
 11
7.536516077215906E-17
 21
1.0
 31
0.0
 73
     1
 44
1.0
  0
POINT
  5
61D
330
614
100
AcDbEntity
  8
Defpoints
 62
     0
100
AcDbPoint
 10
-23.56999999999914
 20
23.57000000000669
 30
0.0
  0
POINT
  5
61E
330
614
100
AcDbEntity
  8
Defpoints
 62
     0
100
AcDbPoint
 10
-23.56999999999914
 20
-23.57000000000556
 30
0.0
  0
POINT
  5
61F
330
614
100
AcDbEntity
  8
Defpoints
 62
     0
100
AcDbPoint
 10
-27.10070141717875
 20
-23.57000000000556
 30
0.0
  0
ENDBLK
  5
616
330
614
100
AcDbEntity
  8
0
100
AcDbBlockEnd
  0
BLOCK
  5
624
330
623
100
AcDbEntity
  8
0
100
AcDbBlockBegin
  2
*D30
 70
     1
 10
0.0
 20
0.0
 30
0.0
  3
*D30
  1
*D30
  0
LINE
  5
626
330
623
100
AcDbEntity
  8
Izmeri
 62
     0
370
    -2
100
AcDbLine
 10
-23.56999999999914
 20
22.94500000000669
 30
0.0
 11
-23.56999999999914
 21
19.46391240742324
 31
0.0
  0
LINE
  5
627
330
623
100
AcDbEntity
  8
Izmeri
 62
     0
370
    -2
100
AcDbLine
 10
23.57000000000119
 20
22.94500000000669
 30
0.0
 11
23.57000000000119
 21
19.46391240742324
 31
0.0
  0
LINE
  5
628
330
623
100
AcDbEntity
  8
Izmeri
 62
     0
370
    -2
100
AcDbLine
 10
-21.06999999999914
 20
20.71391240742324
 30
0.0
 11
21.07000000000119
 21
20.71391240742324
 31
0.0
  0
SOLID
  5
629
330
623
100
AcDbEntity
  8
Izmeri
 62
     0
100
AcDbTrace
 10
-21.06999999999914
 20
21.1305790740899
 30
0.0
 11
-21.06999999999914
 21
20.29724574075657
 31
0.0
 12
-23.56999999999914
 22
20.71391240742324
 32
0.0
 13
-23.56999999999914
 23
20.71391240742324
 33
0.0
  0
SOLID
  5
62A
330
623
100
AcDbEntity
  8
Izmeri
 62
     0
100
AcDbTrace
 10
21.07000000000119
 20
20.29724574075657
 30
0.0
 11
21.07000000000119
 21
21.1305790740899
 31
0.0
 12
23.57000000000119
 22
20.71391240742324
 32
0.0
 13
23.57000000000119
 23
20.71391240742324
 33
0.0
  0
MTEXT
  5
62B
330
623
100
AcDbEntity
  8
Izmeri
 62
     0
100
AcDbMText
 10
0.0000000000010232
 20
22.84129985626362
 30
0.0
 40
2.5
 41
0.0
 46
0.0
 71
     5
 72
     1
  1
47,14
 73
     1
 44
1.0
  0
POINT
  5
62C
330
623
100
AcDbEntity
  8
Defpoints
 62
     0
100
AcDbPoint
 10
-23.56999999999914
 20
23.57000000000669
 30
0.0
  0
POINT
  5
62D
330
623
100
AcDbEntity
  8
Defpoints
 62
     0
100
AcDbPoint
 10
23.57000000000119
 20
23.57000000000669
 30
0.0
  0
POINT
  5
62E
330
623
100
AcDbEntity
  8
Defpoints
 62
     0
100
AcDbPoint
 10
23.57000000000119
 20
20.71391240742324
 30
0.0
  0
ENDBLK
  5
625
330
623
100
AcDbEntity
  8
0
100
AcDbBlockEnd
  0
ENDSEC
  0
SECTION
  2
ENTITIES
  0
LINE
  5
339
102
{ACAD_REACTORS
330
390
330
393
102
}
330
1F
100
AcDbEntity
  8
BORDER
  6
ACAD_ISO02W100
 48
0.5
100
AcDbLine
 10
-32.49999999999898
 20
-39.99999999999443
 30
0.0
 11
-32.49999999999898
 21
40.00000000000557
 31
0.0
  0
TEXT
  5
33A
330
1F
100
AcDbEntity
  8
Izmeri
100
AcDbText
 10
-33.889349676954
 20
-4.247439116666214
 30
0.0
 40
3.0
  1
Up 60%%D
 50
90.0
100
AcDbText
  0
TEXT
  5
33B
330
1F
100
AcDbEntity
  8
Izmeri
100
AcDbText
 10
31.64736029882363
 20
-4.7398477303135
 30
0.0
 40
3.0
  1
Up 60%%D
 50
90.0
100
AcDbText
  0
DIMENSION
  5
348
102
{ACAD_XDICTIONARY
360
349
102
}
330
1F
100
AcDbEntity
  8
Izmeri
100
AcDbDimension
280
     0
  2
*D20
 10
-92.96743764153427
 20
-39.99999999999443
 30
0.0
 11
-94.8688701108385
 21
0.0000000000055707
 31
0.0
 70
    32
 71
     5
 42
80.0
 73
     0
 74
     0
 75
     0
  3
ISO-25
100
AcDbAlignedDimension
 13
-77.49999999999898
 23
40.00000000000557
 33
0.0
 14
-77.49999999999898
 24
-39.99999999999443
 34
0.0
 50
90.0
100
AcDbRotatedDimension
  0
DIMENSION
  5
34A
102
{ACAD_XDICTIONARY
360
34B
102
}
330
1F
100
AcDbEntity
  8
Izmeri
100
AcDbDimension
280
     0
  2
*D21
 10
-87.45565130064892
 20
19.99999999997971
 30
0.0
 11
-89.35708376995315
 21
29.99999999999264
 31
0.0
 70
    32
 71
     5
 42
20.00000000002586
 73
     0
 74
     0
 75
     0
  3
ISO-25
100
AcDbAlignedDimension
 13
-77.49999999999898
 23
40.00000000000557
 33
0.0
 14
-77.49999999999898
 24
19.99999999997971
 34
0.0
 50
90.0
100
AcDbRotatedDimension
  0
DIMENSION
  5
34C
102
{ACAD_XDICTIONARY
360
34D
102
}
330
1F
100
AcDbEntity
  8
Izmeri
100
AcDbDimension
280
     0
  2
*D22
 10
-87.45565130064892
 20
-19.99999999997556
 30
0.0
 11
-89.35708376995315
 21
0.0000000000020748
 31
0.0
 70
    32
 71
     5
 42
39.99999999995526
 73
     0
 74
     0
 75
     0
  3
ISO-25
100
AcDbAlignedDimension
 13
-77.49999999999898
 23
19.99999999997971
 33
0.0
 14
-77.49999999999818
 24
-19.99999999997556
 34
0.0
 50
90.0
100
AcDbRotatedDimension
  0
DIMENSION
  5
34E
102
{ACAD_XDICTIONARY
360
34F
102
}
330
1F
100
AcDbEntity
  8
Izmeri
100
AcDbDimension
280
     0
  2
*D23
 10
-87.45565130064881
 20
-39.99999999999443
 30
0.0
 11
-89.35708376995304
 21
-29.99999999998499
 31
0.0
 70
    32
 71
     5
 42
20.00000000001887
 73
     0
 74
     0
 75
     0
  3
ISO-25
100
AcDbAlignedDimension
 13
-77.49999999999818
 23
-19.99999999997556
 33
0.0
 14
-77.49999999999886
 24
-39.99999999999443
 34
0.0
 50
90.0
100
AcDbRotatedDimension
  0
CIRCLE
  5
36C
330
1F
100
AcDbEntity
  8
0
100
AcDbCircle
 10
-0.0000000000084128
 20
35.00000000000557
 30
0.0
 40
1.65
  0
CIRCLE
  5
36D
330
1F
100
AcDbEntity
  8
0
100
AcDbCircle
 10
14.99999999999159
 20
35.00000000000921
 30
0.0
 40
1.65
  0
CIRCLE
  5
36E
330
1F
100
AcDbEntity
  8
0
100
AcDbCircle
 10
-14.99999999999898
 20
-34.99999999999443
 30
0.0
 40
1.65
  0
CIRCLE
  5
36F
330
1F
100
AcDbEntity
  8
0
100
AcDbCircle
 10
0.0000000000010232
 20
-34.99999999999443
 30
0.0
 40
1.65
  0
CIRCLE
  5
370
330
1F
100
AcDbEntity
  8
0
100
AcDbCircle
 10
15.00000000000102
 20
-34.99999999999443
 30
0.0
 40
1.65
  0
CIRCLE
  5
371
330
1F
100
AcDbEntity
  8
0
100
AcDbCircle
 10
9.999999999999204
 20
26.07000000000647
 30
0.0
 40
2.74999999998289
  0
CIRCLE
  5
372
330
1F
100
AcDbEntity
  8
0
100
AcDbCircle
 10
-10.0000000000008
 20
26.07000000000647
 30
0.0
 40
2.74999999998289
  0
CIRCLE
  5
373
330
1F
100
AcDbEntity
  8
0
100
AcDbCircle
 10
-0.0000000000007958
 20
26.07000000000556
 30
0.0
 40
2.74999999998289
  0
CIRCLE
  5
374
330
1F
100
AcDbEntity
  8
0
100
AcDbCircle
 10
10.0000000000008
 20
-26.07000000000647
 30
0.0
 40
2.74999999998289
  0
CIRCLE
  5
375
330
1F
100
AcDbEntity
  8
0
100
AcDbCircle
 10
-9.999999999999204
 20
-26.07000000000647
 30
0.0
 40
2.74999999998289
  0
CIRCLE
  5
376
330
1F
100
AcDbEntity
  8
0
100
AcDbCircle
 10
0.0000000000007958
 20
-26.07000000000556
 30
0.0
 40
2.74999999998289
  0
CIRCLE
  5
377
330
1F
100
AcDbEntity
  8
0
100
AcDbCircle
 10
-15.00000000000841
 20
35.00000000000199
 30
0.0
 40
1.65
  0
CIRCLE
  5
388
330
1F
100
AcDbEntity
  8
BORDER
100
AcDbCircle
 10
0.0
 20
0.0
 30
0.0
 40
11.5
  0
DIMENSION
  5
38B
102
{ACAD_XDICTIONARY
360
38C
102
}
330
1F
100
AcDbEntity
  8
Izmeri
100
AcDbDimension
280
     0
  2
*D24
 10
82.50000000000102
 20
52.02841242591035
 30
0.0
 11
0.0000000000010232
 21
53.92984489521458
 31
0.0
 70
    32
 71
     5
 42
165.0
 73
     0
 74
     0
 75
     0
  3
ISO-25
100
AcDbAlignedDimension
 13
-82.49999999999898
 23
29.99999999999261
 33
0.0
 14
82.50000000000102
 24
30.00000000000068
 34
0.0
100
AcDbRotatedDimension
  0
DIMENSION
  5
38E
102
{ACAD_REACTORS
330
390
102
}
102
{ACAD_XDICTIONARY
360
38F
102
}
330
1F
100
AcDbEntity
  8
Izmeri
100
AcDbDimension
280
     0
  2
*D25
 10
-82.49999999999898
 20
45.37192936844457
 30
0.0
 11
-57.49999999999898
 21
47.2733618377488
 31
0.0
 70
    32
 71
     5
 42
50.0
 73
     0
 74
     0
 75
     0
  3
ISO-25
100
AcDbAlignedDimension
 13
-32.49999999999898
 23
40.00000000000557
 33
0.0
 14
-82.49999999999898
 24
30.62499999999261
 34
0.0
100
AcDbRotatedDimension
  0
DIMENSION
  5
391
102
{ACAD_REACTORS
330
393
102
}
102
{ACAD_XDICTIONARY
360
392
102
}
330
1F
100
AcDbEntity
  8
Izmeri
100
AcDbDimension
280
     0
  2
*D26
 10
32.50000000000102
 20
45.37192936844457
 30
0.0
 11
0.0000000000010232
 21
47.2733618377488
 31
0.0
 70
    32
 71
     5
 42
65.0
 73
     0
 74
     0
 75
     0
  3
ISO-25
100
AcDbAlignedDimension
 13
-32.49999999999898
 23
40.00000000000557
 33
0.0
 14
32.50000000000102
 24
40.00000000000557
 34
0.0
100
AcDbRotatedDimension
  0
DIMENSION
  5
394
102
{ACAD_XDICTIONARY
360
395
102
}
330
1F
100
AcDbEntity
  8
Izmeri
100
AcDbDimension
280
     0
  2
*D27
 10
82.50000000000102
 20
45.37192936844457
 30
0.0
 11
57.50000000000102
 21
47.2733618377488
 31
0.0
 70
    32
 71
     5
 42
50.0
 73
     0
 74
     0
 75
     0
  3
ISO-25
100
AcDbAlignedDimension
 13
32.50000000000102
 23
40.00000000000557
 33
0.0
 14
82.50000000000102
 24
30.62500000000068
 34
0.0
100
AcDbRotatedDimension
  0
LWPOLYLINE
  5
415
330
1F
100
AcDbEntity
  8
BORDER
  6
ACAD_ISO02W100
 48
0.5
100
AcDbPolyline
 90
        2
 70
     0
 43
0.0
 10
32.50000000000102
 20
40.00000000000557
 10
32.50000000000102
 20
-39.99999999999443
  0
LWPOLYLINE
  5
420
330
1F
100
AcDbEntity
  8
BORDER
100
AcDbPolyline
 90
       21
 70
     0
 43
0.0
 10
-78.12499999999886
 20
-39.99999999999443
 10
77.50000000000102
 20
-39.99999999999443
 42
0.4142135623730951
 10
82.50000000000102
 20
-34.99999999999443
 10
82.50000000000102
 20
-24.99999999998647
 42
0.4142135623731283
 10
77.50000000000045
 20
-19.99999999998647
 10
72.50000000000603
 20
-19.99999999998695
 42
-1.000000000000057
 10
72.50000000000409
 20
19.99999999999585
 10
77.50000000000102
 20
19.99999999999585
 42
0.4142135623730951
 10
82.50000000000102
 20
24.99999999999585
 10
82.50000000000102
 20
35.00000000000557
 42
0.4142135623730951
 10
77.50000000000102
 20
40.00000000000557
 10
-77.49999999999898
 20
40.00000000000557
 42
0.4142135623730951
 10
-82.49999999999898
 20
35.00000000000557
 10
-82.49999999999898
 20
24.99999999997971
 42
0.4142135623730951
 10
-77.49999999999898
 20
19.99999999997971
 10
-72.50000000000205
 20
19.99999999997971
 42
-1.000000000000085
 10
-72.50000000000512
 20
-19.99999999997632
 10
-77.49999999999818
 20
-19.99999999997556
 42
0.4142135623731417
 10
-82.49999999999898
 20
-24.99999999997556
 10
-82.49999999999898
 20
-34.99999999999443
 42
0.4142135623730951
 10
-77.49999999999898
 20
-39.99999999999443
  0
LWPOLYLINE
  5
428
330
1F
100
AcDbEntity
  8
0
100
AcDbPolyline
 90
        4
 70
     1
 43
0.0
 10
-73.349999999999
 20
-32.49999999999443
 10
-73.349999999999
 20
-29.99999999999443
 42
0.9999999999999999
 10
-76.64999999999895
 20
-29.99999999999443
 10
-76.64999999999895
 20
-32.49999999999443
 42
0.9999999999999999
  0
LWPOLYLINE
  5
42A
330
1F
100
AcDbEntity
  8
0
100
AcDbPolyline
 90
        4
 70
     1
 43
0.0
 10
-39.599999999999
 20
-32.49999999999443
 10
-39.599999999999
 20
-29.99999999999443
 42
0.9999999999999999
 10
-42.89999999999895
 20
-29.99999999999443
 10
-42.89999999999895
 20
-32.49999999999443
 42
0.9999999999999999
  0
LWPOLYLINE
  5
42C
330
1F
100
AcDbEntity
  8
0
100
AcDbPolyline
 90
        4
 70
     1
 43
0.0
 10
42.900000000001
 20
-32.49999999999443
 10
42.900000000001
 20
-29.99999999999443
 42
0.9999999999999999
 10
39.60000000000105
 20
-29.99999999999443
 10
39.60000000000105
 20
-32.49999999999443
 42
0.9999999999999999
  0
LWPOLYLINE
  5
42E
330
1F
100
AcDbEntity
  8
0
100
AcDbPolyline
 90
        4
 70
     1
 43
0.0
 10
76.650000000001
 20
-32.49999999999443
 10
76.650000000001
 20
-29.99999999999443
 42
0.9999999999999999
 10
73.35000000000105
 20
-29.99999999999443
 10
73.35000000000105
 20
-32.49999999999443
 42
0.9999999999999999
  0
LWPOLYLINE
  5
435
330
1F
100
AcDbEntity
  8
BORDER
100
AcDbPolyline
 90
        4
 70
     1
 43
0.0
 10
39.59999999999377
 20
30.0000000000133
 42
1.000000000000017
 10
42.89999999999372
 20
30.00000000001404
 10
42.89999999999316
 20
32.50000000001404
 42
0.9999999999999826
 10
39.5999999999932
 20
32.5000000000133
  0
LWPOLYLINE
  5
436
330
1F
100
AcDbEntity
  8
BORDER
100
AcDbPolyline
 90
        4
 70
     1
 43
0.0
 10
76.64999999999316
 20
32.50000000002217
 42
0.9999999999999999
 10
73.3499999999932
 20
32.50000000002137
 10
73.34999999999377
 20
30.00000000002137
 42
0.9999999999999999
 10
76.64999999999384
 20
30.00000000002217
  0
LWPOLYLINE
  5
438
330
1F
100
AcDbEntity
  8
0
100
AcDbPolyline
 90
        4
 70
     1
 43
0.0
 10
-73.35000000000684
 20
32.49999999998977
 10
-73.35000000000616
 20
29.99999999998977
 42
-0.9999999999999999
 10
-76.65000000000612
 20
29.99999999998897
 10
-76.65000000000668
 20
32.49999999998897
 42
-0.9999999999999999
  0
LWPOLYLINE
  5
43A
330
1F
100
AcDbEntity
  8
0
100
AcDbPolyline
 90
        4
 70
     1
 43
0.0
 10
-39.60000000000684
 20
32.49999999999784
 10
-39.60000000000616
 20
29.99999999999784
 42
-0.9999999999999826
 10
-42.90000000000623
 20
29.9999999999971
 10
-42.9000000000068
 20
32.4999999999971
 42
-1.000000000000017
  0
LWPOLYLINE
  5
441
330
1F
100
AcDbEntity
  8
BORDER
100
AcDbPolyline
 90
        4
 70
     1
 43
0.0
 10
14.33327381104233
 20
-16.6667261889579
 42
0.9999999999999999
 10
16.6667261889578
 20
-14.3332738110422
 10
14.16672618895757
 20
-11.83327381104212
 42
0.9999999999999999
 10
11.8332738110422
 20
-14.16672618895788
  0
LWPOLYLINE
  5
443
330
1F
100
AcDbEntity
  8
BORDER
100
AcDbPolyline
 90
        4
 70
     1
 43
0.0
 10
-14.16672618895768
 20
-11.8332738110422
 10
-16.66672618895769
 20
-14.33327381104211
 42
0.9999999999999999
 10
-14.33327381104231
 20
-16.66672618895789
 10
-11.8332738110422
 20
-14.16672618895788
 42
0.9999999999999999
  0
LWPOLYLINE
  5
447
330
1F
100
AcDbEntity
  8
BORDER
100
AcDbPolyline
 90
        4
 70
     1
 43
0.0
 10
-14.33327381104233
 20
16.6667261889579
 42
0.9999999999999999
 10
-16.66672618895767
 20
14.3332738110421
 10
-14.16672618895768
 20
11.8332738110422
 42
0.9999999999999999
 10
-11.8332738110422
 20
14.16672618895788
  0
LWPOLYLINE
  5
44B
330
1F
100
AcDbEntity
  8
BORDER
100
AcDbPolyline
 90
        4
 70
     1
 43
0.0
 10
14.16672618895768
 20
11.8332738110422
 10
16.66672618895767
 20
14.3332738110421
 42
1.0
 10
14.33327381104233
 20
16.6667261889579
 10
11.8332738110422
 20
14.16672618895788
 42
0.9999999999999999
  0
LWPOLYLINE
  5
451
102
{ACAD_REACTORS
102
}
330
1F
100
AcDbEntity
  8
BORDER
100
AcDbPolyline
 90
        4
 70
     1
 43
0.0
 10
21.57583228685679
 20
-28.32346138427696
 42
-1.000000000000003
 10
18.4211618869457
 20
-23.81812514071549
 10
21.99266480004565
 20
-21.31733187822482
 42
-1.0
 10
25.14733519995672
 20
-25.8226681217863
  0
LWPOLYLINE
  5
459
102
{ACAD_REACTORS
330
613
330
622
102
}
330
1F
100
AcDbEntity
  8
BORDER
100
AcDbPolyline
 90
        4
 70
     1
 43
0.0
 10
-21.57583228685474
 20
28.3234613842781
 42
-0.9999999999999999
 10
-18.42116188694365
 20
23.81812514071663
 10
-21.9926648000436
 20
21.31733187822596
 42
-0.9999999999999999
 10
-25.14733519995469
 20
25.82266812178742
  0
LWPOLYLINE
  5
45D
102
{ACAD_REACTORS
330
613
102
}
330
1F
100
AcDbEntity
  8
BORDER
100
AcDbPolyline
 90
        4
 70
     1
 43
0.0
 10
-21.57583228685474
 20
-28.32346138427696
 42
1.000000000000003
 10
-18.42116188694365
 20
-23.81812514071549
 10
-21.9926648000436
 20
-21.31733187822482
 42
0.9999999999999999
 10
-25.14733519995468
 20
-25.8226681217863
  0
ARC
  5
5F2
330
1F
100
AcDbEntity
  8
BORDER
100
AcDbCircle
 10
19.99849708690124
 20
26.07079326249736
 30
0.0
 40
2.749999999982897
100
AcDbArc
 50
55.00000000000058
 51
235.0000000000006
  0
LINE
  5
5F3
330
1F
100
AcDbEntity
  8
BORDER
100
AcDbLine
 10
18.4211618869457
 20
23.81812514071663
 30
0.0
 11
21.99266480004565
 21
21.31733187822596
 31
0.0
  0
ARC
  5
5F4
102
{ACAD_REACTORS
330
622
102
}
330
1F
100
AcDbEntity
  8
BORDER
100
AcDbCircle
 10
23.57000000000119
 20
23.57000000000669
 30
0.0
 40
2.749999999982897
100
AcDbArc
 50
235.0000000000006
 51
55.00000000000055
  0
LINE
  5
5F5
330
1F
100
AcDbEntity
  8
BORDER
100
AcDbLine
 10
25.14733519995674
 20
25.82266812178742
 30
0.0
 11
21.57583228685679
 21
28.3234613842781
 31
0.0
  0
ENDSEC
  0
SECTION
  2
OBJECTS
  0
DICTIONARY
  5
C
330
0
100
AcDbDictionary
281
     1
  3
ACAD_COLOR
350
CB
  3
ACAD_DETAILVIEWSTYLE
350
B5
  3
ACAD_FIELDLIST
350
222
  3
ACAD_GROUP
350
D
  3
ACAD_IMAGE_VARS
350
6A
  3
ACAD_LAYOUT
350
1A
  3
ACAD_MATERIAL
350
72
  3
ACAD_MLEADERSTYLE
350
3F
  3
ACAD_MLINESTYLE
350
17
  3
ACAD_PLOTSETTINGS
350
19
  3
ACAD_PLOTSTYLENAME
350
E
  3
ACAD_SCALELIST
350
40
  3
ACAD_SECTIONVIEWSTYLE
350
B6
  3
ACAD_TABLESTYLE
350
3B
  3
ACAD_VISUALSTYLE
350
2A
  3
AcDbVariableDictionary
350
3D
  3
ACDB_RECOMPOSE_DATA
350
631
  3
APPDATA
350
71
  0
SUN
  5
80
330
29
100
AcDbSun
 90
        1
290
     0
 63
     7
421
 16777215
 40
1.0
291
     1
 91
  2455826
 92
 54000000
292
     0
 70
     2
 71
   256
280
     1
  0
DICTIONARY
  5
21E
330
2
100
AcDbDictionary
280
     1
281
     1
  3
ACAD_LAYERSTATES
360
21F
  3
ACLYDICTIONARY
360
5E2
  0
DICTIONARY
  5
F1
330
F0
100
AcDbDictionary
280
     1
281
     1
  3
ACAD_SORTENTS
360
F2
  0
DICTIONARY
  5
F5
330
F4
100
AcDbDictionary
280
     1
281
     1
  3
ACAD_FIELD
360
F6
  0
DICTIONARY
  5
349
330
348
100
AcDbDictionary
280
     1
281
     1
  0
DICTIONARY
  5
34B
330
34A
100
AcDbDictionary
280
     1
281
     1
  0
DICTIONARY
  5
34D
330
34C
100
AcDbDictionary
280
     1
281
     1
  0
DICTIONARY
  5
34F
330
34E
100
AcDbDictionary
280
     1
281
     1
  0
DICTIONARY
  5
38C
330
38B
100
AcDbDictionary
280
     1
281
     1
  0
DICTIONARY
  5
38F
330
38E
100
AcDbDictionary
280
     1
281
     1
  3
ACAD_DIMASSOC
360
390
  0
DICTIONARY
  5
392
330
391
100
AcDbDictionary
280
     1
281
     1
  3
ACAD_DIMASSOC
360
393
  0
DICTIONARY
  5
395
330
394
100
AcDbDictionary
280
     1
281
     1
  0
DICTIONARY
  5
CB
102
{ACAD_REACTORS
330
C
102
}
330
C
100
AcDbDictionary
281
     1
  0
DICTIONARY
  5
B5
102
{ACAD_REACTORS
330
C
102
}
330
C
100
AcDbDictionary
281
     1
  0
FIELDLIST
  5
222
102
{ACAD_REACTORS
330
C
102
}
330
C
100
AcDbIdSet
 90
        1
330
F7
100
AcDbFieldList
  0
DICTIONARY
  5
D
102
{ACAD_REACTORS
330
C
102
}
330
C
100
AcDbDictionary
281
     1
  0
RASTERVARIABLES
  5
6A
102
{ACAD_REACTORS
330
C
102
}
330
C
100
AcDbRasterVariables
 90
        0
 70
     1
 71
     1
 72
     1
  0
DICTIONARY
  5
1A
102
{ACAD_REACTORS
330
C
102
}
330
C
100
AcDbDictionary
281
     1
  3
Model
350
22
  3
Sheet1
350
1E
  3
Sheet2
350
26
  0
DICTIONARY
  5
72
102
{ACAD_REACTORS
330
C
102
}
330
C
100
AcDbDictionary
281
     1
  3
ByBlock
350
74
  3
ByLayer
350
73
  3
Global
350
75
  0
DICTIONARY
  5
3F
102
{ACAD_REACTORS
330
C
102
}
330
C
100
AcDbDictionary
281
     1
  3
Standard
350
B7
  0
DICTIONARY
  5
17
102
{ACAD_REACTORS
330
C
102
}
330
C
100
AcDbDictionary
281
     1
  3
Standard
350
18
  0
DICTIONARY
  5
19
102
{ACAD_REACTORS
330
C
102
}
330
C
100
AcDbDictionary
281
     1
  0
ACDBDICTIONARYWDFLT
  5
E
102
{ACAD_REACTORS
330
C
102
}
330
C
100
AcDbDictionary
281
     1
  3
Normal
350
F
100
AcDbDictionaryWithDefault
340
F
  0
DICTIONARY
  5
40
102
{ACAD_REACTORS
330
C
102
}
330
C
100
AcDbDictionary
281
     1
  3
A0
350
41
  3
A1
350
42
  3
A2
350
43
  3
A3
350
44
  3
A4
350
45
  3
A5
350
46
  3
A6
350
47
  3
A7
350
48
  3
A8
350
49
  3
A9
350
4A
  3
B0
350
4B
  3
B1
350
4C
  3
B2
350
4D
  3
B3
350
4E
  3
B4
350
4F
  3
B5
350
50
  3
B6
350
51
  3
B7
350
52
  3
B8
350
53
  3
B9
350
54
  3
C0
350
55
  3
C1
350
56
  3
C2
350
57
  3
C3
350
58
  3
C4
350
59
  3
C5
350
5A
  3
C6
350
5B
  3
C7
350
5C
  3
C8
350
5D
  3
C9
350
5E
  3
D0
350
5F
  3
D1
350
60
  3
D2
350
61
  0
DICTIONARY
  5
B6
102
{ACAD_REACTORS
330
C
102
}
330
C
100
AcDbDictionary
281
     1
  0
DICTIONARY
  5
3B
102
{ACAD_REACTORS
330
C
102
}
330
C
100
AcDbDictionary
281
     1
  3
Standard
350
3C
  0
DICTIONARY
  5
2A
102
{ACAD_REACTORS
330
C
102
}
330
C
100
AcDbDictionary
281
     1
  3
2dWireframe
350
2F
  3
3D Hidden
350
31
  3
3dWireframe
350
30
  3
Basic
350
32
  3
Brighten
350
36
  3
ColorChange
350
3A
  3
Conceptual
350
34
  3
Dim
350
35
  3
EdgeColorOff
350
7A
  3
Facepattern
350
39
  3
Flat
350
2B
  3
FlatWithEdges
350
2C
  3
Gouraud
350
2D
  3
GouraudWithEdges
350
2E
  3
Hidden
350
77
  3
JitterOff
350
78
  3
Linepattern
350
38
  3
OverhangOff
350
79
  3
Realistic
350
33
  3
Shaded
350
7F
  3
Shaded with edges
350
7E
  3
Shades of Gray
350
7B
  3
Sketchy
350
7C
  3
Thicken
350
37
  3
Wireframe
350
76
  3
X-Ray
350
7D
  0
DICTIONARY
  5
3D
102
{ACAD_REACTORS
330
C
102
}
330
C
100
AcDbDictionary
281
     1
  3
CANNOSCALE
350
62
  3
CMLEADERSTYLE
350
407
  3
CTABLESTYLE
350
3E
  3
LIGHTSINBLOCKS
350
6F
  3
XCLIPFRAME
350
70
  0
XRECORD
  5
631
102
{ACAD_REACTORS
330
C
102
}
330
C
100
AcDbXrecord
280
     1
 90
        1
330
3C
  0
DICTIONARY
  5
71
102
{ACAD_REACTORS
330
C
102
}
330
C
100
AcDbDictionary
281
     1
  0
DICTIONARY
  5
21F
102
{ACAD_REACTORS
330
21E
102
}
330
21E
100
AcDbDictionary
281
     1
  3
ARGON_LAYERP_1
350
409
  3
ARGON_LAYERP_2
350
5E1
  3
ARGON_LAYERP_3
350
610
  0
DICTIONARY
  5
5E2
102
{ACAD_REACTORS
330
21E
102
}
330
21E
100
AcDbDictionary
281
     1
1001
ACAD
1000
<All
  0
SORTENTSTABLE
  5
F2
102
{ACAD_REACTORS
330
F1
102
}
330
F1
100
AcDbSortentsTable
330
F0
  0
DICTIONARY
  5
F6
102
{ACAD_REACTORS
330
F5
102
}
330
F5
100
AcDbDictionary
280
     1
281
     1
  3
TEXT
360
F7
  0
DIMASSOC
  5
390
102
{ACAD_REACTORS
330
38F
102
}
330
38F
100
AcDbDimAssoc
330
38E
 90
        1
 70
     0
 71
     1
  1
AcDbOsnapPointRef
 72
     1
331
339
 73
     0
 91
        0
 40
0.0
 10
0.0
 20
0.0
 30
0.0
 75
     0
  0
DIMASSOC
  5
393
102
{ACAD_REACTORS
330
392
102
}
330
392
100
AcDbDimAssoc
330
391
 90
        1
 70
     0
 71
     1
  1
AcDbOsnapPointRef
 72
     1
331
339
 73
     0
 91
        0
 40
0.0
 10
0.0
 20
0.0
 30
0.0
 75
     0
  0
LAYOUT
  5
22
102
{ACAD_REACTORS
330
1A
102
}
330
1A
100
AcDbPlotSettings
  1

  2
none_device
  4
ISO_A3_(420.00_x_297.00_MM)
  6

 40
7.5
 41
20.0
 42
7.5
 43
20.0
 44
420.0
 45
297.0
 46
20.78282828282826
 47
0.0
 48
0.0
 49
0.0
140
0.0
141
0.0
142
1.0
143
1.155642023346303
 70
  1204
 72
     1
 73
     0
 74
     1
  7
monochrome.ctb
 75
     0
 76
     0
 77
     2
 78
   300
147
0.8653198653198654
148
-134.1869158878504
149
0.0
100
AcDbLayout
  1
Model
 70
     1
 71
     0
 10
0.0
 20
0.0
 11
420.0
 21
297.0
 12
0.0
 22
0.0
 32
0.0
 14
1.000000000000000E+20
 24
1.000000000000000E+20
 34
1.000000000000000E+20
 15
-1.000000000000000E+20
 25
-1.000000000000000E+20
 35
-1.000000000000000E+20
146
0.0
 13
0.0
 23
0.0
 33
0.0
 16
1.0
 26
0.0
 36
0.0
 17
0.0
 27
1.0
 37
0.0
 76
     0
330
1F
331
29
  0
LAYOUT
  5
1E
102
{ACAD_REACTORS
330
1A
102
}
330
1A
100
AcDbPlotSettings
  1

  2
none_device
  4

  6

 40
0.0
 41
0.0
 42
0.0
 43
0.0
 44
0.0
 45
0.0
 46
0.0
 47
0.0
 48
0.0
 49
0.0
140
0.0
141
0.0
142
1.0
143
1.0
 70
   688
 72
     0
 73
     0
 74
     5
  7

 75
    16
 76
     0
 77
     2
 78
   300
147
1.0
148
0.0
149
0.0
100
AcDbLayout
  1
Sheet1
 70
     1
 71
     1
 10
0.0
 20
0.0
 11
420.0
 21
297.0
 12
0.0
 22
0.0
 32
0.0
 14
1.000000000000000E+20
 24
1.000000000000000E+20
 34
1.000000000000000E+20
 15
-1.000000000000000E+20
 25
-1.000000000000000E+20
 35
-1.000000000000000E+20
146
0.0
 13
0.0
 23
0.0
 33
0.0
 16
1.0
 26
0.0
 36
0.0
 17
0.0
 27
1.0
 37
0.0
 76
     0
330
1B
  0
LAYOUT
  5
26
102
{ACAD_REACTORS
330
1A
102
}
330
1A
100
AcDbPlotSettings
  1

  2
none_device
  4

  6

 40
0.0
 41
0.0
 42
0.0
 43
0.0
 44
0.0
 45
0.0
 46
0.0
 47
0.0
 48
0.0
 49
0.0
140
0.0
141
0.0
142
1.0
143
1.0
 70
   688
 72
     0
 73
     0
 74
     5
  7

 75
    16
 76
     0
 77
     2
 78
   300
147
1.0
148
0.0
149
0.0
100
AcDbLayout
  1
Sheet2
 70
     1
 71
     2
 10
0.0
 20
0.0
 11
0.0
 21
0.0
 12
0.0
 22
0.0
 32
0.0
 14
0.0
 24
0.0
 34
0.0
 15
0.0
 25
0.0
 35
0.0
146
0.0
 13
0.0
 23
0.0
 33
0.0
 16
1.0
 26
0.0
 36
0.0
 17
0.0
 27
1.0
 37
0.0
 76
     0
330
23
  0
MATERIAL
  5
74
102
{ACAD_REACTORS
330
72
102
}
330
72
100
AcDbMaterial
  1
ByBlock
 72
     1
 94
      127
  0
MATERIAL
  5
73
102
{ACAD_REACTORS
330
72
102
}
330
72
100
AcDbMaterial
  1
ByLayer
 72
     1
 94
      127
  0
MATERIAL
  5
75
102
{ACAD_REACTORS
330
72
102
}
330
72
100
AcDbMaterial
  1
Global
 72
     1
 94
      127
  0
MLEADERSTYLE
  5
B7
102
{ACAD_REACTORS
330
3F
102
}
330
3F
100
AcDbMLeaderStyle
179
     2
170
     2
171
     1
172
     0
 90
        2
 40
0.0
 41
0.0
173
     1
 91
-1056964608
340
14
 92
       -2
290
     1
 42
2.0
291
     1
 43
8.0
  3
Standard
341
0
 44
4.0
300

342
11
174
     1
178
     6
175
     1
176
     0
 93
-1056964608
 45
4.0
292
     0
297
     0
 46
4.0
343
0
 94
-1056964608
 47
1.0
 49
1.0
140
1.0
293
     1
141
0.0
294
     1
177
     0
142
1.0
295
     0
296
     0
143
3.75
271
     0
272
     9
273
     9
  0
MLINESTYLE
  5
18
102
{ACAD_REACTORS
330
17
102
}
330
17
100
AcDbMlineStyle
  2
Standard
 70
     0
  3

 62
   256
 51
90.0
 52
90.0
 71
     2
 49
0.5
 62
   256
  6
BYLAYER
 49
-0.5
 62
   256
  6
BYLAYER
  0
ACDBPLACEHOLDER
  5
F
102
{ACAD_REACTORS
330
E
102
}
330
E
  0
SCALE
  5
41
102
{ACAD_REACTORS
330
40
102
}
330
40
100
AcDbScale
 70
     0
300
1:1
140
1.0
141
1.0
290
     1
  0
SCALE
  5
42
102
{ACAD_REACTORS
330
40
102
}
330
40
100
AcDbScale
 70
     0
300
1:2
140
1.0
141
2.0
290
     0
  0
SCALE
  5
43
102
{ACAD_REACTORS
330
40
102
}
330
40
100
AcDbScale
 70
     0
300
1:4
140
1.0
141
4.0
290
     0
  0
SCALE
  5
44
102
{ACAD_REACTORS
330
40
102
}
330
40
100
AcDbScale
 70
     0
300
1:5
140
1.0
141
5.0
290
     0
  0
SCALE
  5
45
102
{ACAD_REACTORS
330
40
102
}
330
40
100
AcDbScale
 70
     0
300
1:8
140
1.0
141
8.0
290
     0
  0
SCALE
  5
46
102
{ACAD_REACTORS
330
40
102
}
330
40
100
AcDbScale
 70
     0
300
1:10
140
1.0
141
10.0
290
     0
  0
SCALE
  5
47
102
{ACAD_REACTORS
330
40
102
}
330
40
100
AcDbScale
 70
     0
300
1:16
140
1.0
141
16.0
290
     0
  0
SCALE
  5
48
102
{ACAD_REACTORS
330
40
102
}
330
40
100
AcDbScale
 70
     0
300
1:20
140
1.0
141
20.0
290
     0
  0
SCALE
  5
49
102
{ACAD_REACTORS
330
40
102
}
330
40
100
AcDbScale
 70
     0
300
1:30
140
1.0
141
30.0
290
     0
  0
SCALE
  5
4A
102
{ACAD_REACTORS
330
40
102
}
330
40
100
AcDbScale
 70
     0
300
1:40
140
1.0
141
40.0
290
     0
  0
SCALE
  5
4B
102
{ACAD_REACTORS
330
40
102
}
330
40
100
AcDbScale
 70
     0
300
1:50
140
1.0
141
50.0
290
     0
  0
SCALE
  5
4C
102
{ACAD_REACTORS
330
40
102
}
330
40
100
AcDbScale
 70
     0
300
1:100
140
1.0
141
100.0
290
     0
  0
SCALE
  5
4D
102
{ACAD_REACTORS
330
40
102
}
330
40
100
AcDbScale
 70
     0
300
2:1
140
2.0
141
1.0
290
     0
  0
SCALE
  5
4E
102
{ACAD_REACTORS
330
40
102
}
330
40
100
AcDbScale
 70
     0
300
4:1
140
4.0
141
1.0
290
     0
  0
SCALE
  5
4F
102
{ACAD_REACTORS
330
40
102
}
330
40
100
AcDbScale
 70
     0
300
8:1
140
8.0
141
1.0
290
     0
  0
SCALE
  5
50
102
{ACAD_REACTORS
330
40
102
}
330
40
100
AcDbScale
 70
     0
300
10:1
140
10.0
141
1.0
290
     0
  0
SCALE
  5
51
102
{ACAD_REACTORS
330
40
102
}
330
40
100
AcDbScale
 70
     0
300
100:1
140
100.0
141
1.0
290
     0
  0
SCALE
  5
52
102
{ACAD_REACTORS
330
40
102
}
330
40
100
AcDbScale
 70
     0
300
1/128" = 1'-0"
140
0.0078125
141
12.0
290
     0
  0
SCALE
  5
53
102
{ACAD_REACTORS
330
40
102
}
330
40
100
AcDbScale
 70
     0
300
1/64" = 1'-0"
140
0.015625
141
12.0
290
     0
  0
SCALE
  5
54
102
{ACAD_REACTORS
330
40
102
}
330
40
100
AcDbScale
 70
     0
300
1/32" = 1'-0"
140
0.03125
141
12.0
290
     0
  0
SCALE
  5
55
102
{ACAD_REACTORS
330
40
102
}
330
40
100
AcDbScale
 70
     0
300
1/16" = 1'-0"
140
0.0625
141
12.0
290
     0
  0
SCALE
  5
56
102
{ACAD_REACTORS
330
40
102
}
330
40
100
AcDbScale
 70
     0
300
3/32" = 1'-0"
140
0.09375
141
12.0
290
     0
  0
SCALE
  5
57
102
{ACAD_REACTORS
330
40
102
}
330
40
100
AcDbScale
 70
     0
300
1/8" = 1'-0"
140
0.125
141
12.0
290
     0
  0
SCALE
  5
58
102
{ACAD_REACTORS
330
40
102
}
330
40
100
AcDbScale
 70
     0
300
3/16" = 1'-0"
140
0.1875
141
12.0
290
     0
  0
SCALE
  5
59
102
{ACAD_REACTORS
330
40
102
}
330
40
100
AcDbScale
 70
     0
300
1/4" = 1'-0"
140
0.25
141
12.0
290
     0
  0
SCALE
  5
5A
102
{ACAD_REACTORS
330
40
102
}
330
40
100
AcDbScale
 70
     0
300
3/8" = 1'-0"
140
0.375
141
12.0
290
     0
  0
SCALE
  5
5B
102
{ACAD_REACTORS
330
40
102
}
330
40
100
AcDbScale
 70
     0
300
1/2" = 1'-0"
140
0.5
141
12.0
290
     0
  0
SCALE
  5
5C
102
{ACAD_REACTORS
330
40
102
}
330
40
100
AcDbScale
 70
     0
300
3/4" = 1'-0"
140
0.75
141
12.0
290
     0
  0
SCALE
  5
5D
102
{ACAD_REACTORS
330
40
102
}
330
40
100
AcDbScale
 70
     0
300
1" = 1'-0"
140
1.0
141
12.0
290
     0
  0
SCALE
  5
5E
102
{ACAD_REACTORS
330
40
102
}
330
40
100
AcDbScale
 70
     0
300
1-1/2" = 1'-0"
140
1.5
141
12.0
290
     0
  0
SCALE
  5
5F
102
{ACAD_REACTORS
330
40
102
}
330
40
100
AcDbScale
 70
     0
300
3" = 1'-0"
140
3.0
141
12.0
290
     0
  0
SCALE
  5
60
102
{ACAD_REACTORS
330
40
102
}
330
40
100
AcDbScale
 70
     0
300
6" = 1'-0"
140
6.0
141
12.0
290
     0
  0
SCALE
  5
61
102
{ACAD_REACTORS
330
40
102
}
330
40
100
AcDbScale
 70
     0
300
1'-0" = 1'-0"
140
12.0
141
12.0
290
     0
  0
TABLESTYLE
  5
3C
102
{ACAD_REACTORS
330
3B
102
}
102
{ACAD_XDICTIONARY
360
62F
102
}
330
3B
100
AcDbTableStyle
  3
Standard
 70
     0
 71
     0
 40
1.5
 41
1.5
280
     0
281
     0
  7
Standard
140
4.5
170
     2
 62
     0
 63
   257
283
     0
 90
      512
 91
        0
  1

274
    -2
284
     1
 64
     0
275
    -2
285
     1
 65
     0
276
    -2
286
     1
 66
     0
277
    -2
287
     1
 67
     0
278
    -2
288
     1
 68
     0
279
    -2
289
     1
 69
     0
  7
Standard
140
6.0
170
     5
 62
     0
 63
   257
283
     0
 90
      512
 91
        0
  1

274
    -2
284
     1
 64
     0
275
    -2
285
     1
 65
     0
276
    -2
286
     1
 66
     0
277
    -2
287
     1
 67
     0
278
    -2
288
     1
 68
     0
279
    -2
289
     1
 69
     0
  7
Standard
140
4.5
170
     5
 62
     0
 63
   257
283
     0
 90
      512
 91
        0
  1

274
    -2
284
     1
 64
     0
275
    -2
285
     1
 65
     0
276
    -2
286
     1
 66
     0
277
    -2
287
     1
 67
     0
278
    -2
288
     1
 68
     0
279
    -2
289
     1
 69
     0
  0
VISUALSTYLE
  5
2F
102
{ACAD_REACTORS
330
2A
102
}
330
2A
100
AcDbVisualStyle
  2
2dWireframe
 70
     4
177
     2
291
     0
 71
     0
176
     1
 72
     2
176
     1
 73
     0
176
     1
 90
        0
176
     1
 40
-0.6
176
     1
 41
-30.0
176
     1
 62
     5
 63
     7
421
 16777215
176
     1
 74
     1
176
     1
 91
        4
176
     1
 64
     7
176
     1
 65
   257
176
     1
 75
     1
176
     1
175
     1
176
     1
 42
1.0
176
     1
 92
        0
176
     1
 66
   257
176
     1
 43
1.0
176
     1
 76
     1
176
     1
 77
     6
176
     1
 78
     2
176
     1
 67
     7
176
     1
 79
     5
176
     1
170
     0
176
     1
171
     0
176
     1
290
     0
176
     1
 93
        1
176
     1
 44
0.0
176
     1
173
     0
176
     1
  0
VISUALSTYLE
  5
31
102
{ACAD_REACTORS
330
2A
102
}
330
2A
100
AcDbVisualStyle
  2
3D Hidden
 70
     6
177
     2
291
     0
 71
     1
176
     1
 72
     2
176
     1
 73
     2
176
     1
 90
        0
176
     1
 40
-0.6
176
     1
 41
-30.0
176
     1
 62
     5
 63
     7
421
 16777215
176
     1
 74
     2
176
     1
 91
        2
176
     1
 64
     7
176
     1
 65
   257
176
     1
 75
     2
176
     1
175
     1
176
     1
 42
40.0
176
     1
 92
        0
176
     1
 66
   257
176
     1
 43
1.0
176
     1
 76
     1
176
     1
 77
     6
176
     1
 78
     2
176
     1
 67
     7
176
     1
 79
     3
176
     1
170
     0
176
     1
171
     0
176
     1
290
     0
176
     1
 93
        1
176
     1
 44
0.0
176
     1
173
     0
176
     1
  0
VISUALSTYLE
  5
30
102
{ACAD_REACTORS
330
2A
102
}
330
2A
100
AcDbVisualStyle
  2
3dWireframe
 70
     5
177
     2
291
     0
 71
     0
176
     1
 72
     2
176
     1
 73
     0
176
     1
 90
        0
176
     1
 40
-0.6
176
     1
 41
-30.0
176
     1
 62
     5
 63
     7
421
 16777215
176
     1
 74
     1
176
     1
 91
        4
176
     1
 64
     7
176
     1
 65
   257
176
     1
 75
     1
176
     1
175
     1
176
     1
 42
1.0
176
     1
 92
        0
176
     1
 66
   257
176
     1
 43
1.0
176
     1
 76
     1
176
     1
 77
     6
176
     1
 78
     2
176
     1
 67
     7
176
     1
 79
     5
176
     1
170
     0
176
     1
171
     0
176
     1
290
     0
176
     1
 93
        1
176
     1
 44
0.0
176
     1
173
     0
176
     1
  0
VISUALSTYLE
  5
32
102
{ACAD_REACTORS
330
2A
102
}
330
2A
100
AcDbVisualStyle
  2
Basic
 70
     7
177
     2
291
     1
 71
     1
176
     1
 72
     0
176
     1
 73
     1
176
     1
 90
        0
176
     1
 40
-0.6
176
     1
 41
-30.0
176
     1
 62
     5
 63
     7
421
 16777215
176
     1
 74
     0
176
     1
 91
        4
176
     1
 64
     7
176
     1
 65
   257
176
     1
 75
     1
176
     1
175
     1
176
     1
 42
1.0
176
     1
 92
        8
176
     1
 66
     7
176
     1
 43
1.0
176
     1
 76
     1
176
     1
 77
     6
176
     1
 78
     2
176
     1
 67
     7
176
     1
 79
     5
176
     1
170
     0
176
     1
171
     0
176
     1
290
     0
176
     1
 93
        1
176
     1
 44
0.0
176
     1
173
     0
176
     1
  0
VISUALSTYLE
  5
36
102
{ACAD_REACTORS
330
2A
102
}
330
2A
100
AcDbVisualStyle
  2
Brighten
 70
    12
177
     2
291
     1
 71
     2
176
     1
 72
     2
176
     1
 73
     0
176
     1
 90
        0
176
     1
 40
-0.6
176
     1
 41
-30.0
176
     1
 62
     5
 63
     7
421
 16777215
176
     1
 74
     1
176
     1
 91
        4
176
     1
 64
     7
176
     1
 65
   257
176
     1
 75
     1
176
     1
175
     1
176
     1
 42
1.0
176
     1
 92
        8
176
     1
 66
     7
176
     1
 43
1.0
176
     1
 76
     1
176
     1
 77
     6
176
     1
 78
     2
176
     1
 67
     7
176
     1
 79
     5
176
     1
170
     0
176
     1
171
     0
176
     1
290
     0
176
     1
 93
        1
176
     1
 44
50.0
176
     1
173
     0
176
     1
  0
VISUALSTYLE
  5
3A
102
{ACAD_REACTORS
330
2A
102
}
330
2A
100
AcDbVisualStyle
  2
ColorChange
 70
    16
177
     2
291
     1
 71
     2
176
     1
 72
     2
176
     1
 73
     3
176
     1
 90
        0
176
     1
 40
-0.6
176
     1
 41
-30.0
176
     1
 62
     5
 63
     8
421
  8421504
176
     1
 74
     1
176
     1
 91
        4
176
     1
 64
     7
176
     1
 65
   257
176
     1
 75
     1
176
     1
175
     1
176
     1
 42
1.0
176
     1
 92
        8
176
     1
 66
     8
424
  8421504
176
     1
 43
1.0
176
     1
 76
     1
176
     1
 77
     6
176
     1
 78
     2
176
     1
 67
     7
176
     1
 79
     5
176
     1
170
     0
176
     1
171
     0
176
     1
290
     0
176
     1
 93
        1
176
     1
 44
0.0
176
     1
173
     0
176
     1
  0
VISUALSTYLE
  5
34
102
{ACAD_REACTORS
330
2A
102
}
330
2A
100
AcDbVisualStyle
  2
Conceptual
 70
     9
177
     2
291
     0
 71
     3
176
     1
 72
     2
176
     1
 73
     0
176
     1
 90
        0
176
     1
 40
-0.6
176
     1
 41
-30.0
176
     1
 62
     5
 63
     7
421
 16777215
176
     1
 74
     2
176
     1
 91
        2
176
     1
 64
     7
176
     1
 65
   257
176
     1
 75
     1
176
     1
175
     1
176
     1
 42
40.0
176
     1
 92
        8
176
     1
 66
     7
176
     1
 43
1.0
176
     1
 76
     1
176
     1
 77
     6
176
     1
 78
     2
176
     1
 67
     7
176
     1
 79
     3
176
     1
170
     0
176
     1
171
     0
176
     1
290
     0
176
     1
 93
        1
176
     1
 44
0.0
176
     1
173
     0
176
     1
  0
VISUALSTYLE
  5
35
102
{ACAD_REACTORS
330
2A
102
}
330
2A
100
AcDbVisualStyle
  2
Dim
 70
    11
177
     2
291
     1
 71
     2
176
     1
 72
     2
176
     1
 73
     0
176
     1
 90
        0
176
     1
 40
-0.6
176
     1
 41
-30.0
176
     1
 62
     5
 63
     7
421
 16777215
176
     1
 74
     1
176
     1
 91
        4
176
     1
 64
     7
176
     1
 65
   257
176
     1
 75
     1
176
     1
175
     1
176
     1
 42
1.0
176
     1
 92
        8
176
     1
 66
     7
176
     1
 43
1.0
176
     1
 76
     1
176
     1
 77
     6
176
     1
 78
     2
176
     1
 67
     7
176
     1
 79
     5
176
     1
170
     0
176
     1
171
     0
176
     1
290
     0
176
     1
 93
        1
176
     1
 44
-50.0
176
     1
173
     0
176
     1
  0
VISUALSTYLE
  5
7A
102
{ACAD_REACTORS
330
2A
102
}
330
2A
100
AcDbVisualStyle
  2
EdgeColorOff
 70
    22
177
     2
291
     1
 71
     2
176
     0
 72
     2
176
     0
 73
     0
176
     0
 90
        0
176
     0
 40
0.6
176
     0
 41
30.0
176
     0
 62
     5
 63
     7
421
 16777215
176
     0
 74
     1
176
     0
 91
        4
176
     0
 64
     7
176
     0
 65
   257
176
     0
 75
     1
176
     0
175
     1
176
     0
 42
1.0
176
     0
 92
        8
176
     2
 66
     7
176
     0
 43
1.0
176
     0
 76
     1
176
     0
 77
     6
176
     0
 78
     2
176
     0
 67
     7
176
     0
 79
     5
176
     0
170
     0
176
     0
171
     0
176
     0
290
     0
176
     0
 93
        1
176
     0
 44
0.0
176
     0
173
     0
176
     0
  0
VISUALSTYLE
  5
39
102
{ACAD_REACTORS
330
2A
102
}
330
2A
100
AcDbVisualStyle
  2
Facepattern
 70
    15
177
     2
291
     1
 71
     2
176
     1
 72
     2
176
     1
 73
     0
176
     1
 90
        0
176
     1
 40
-0.6
176
     1
 41
-30.0
176
     1
 62
     5
 63
     7
421
 16777215
176
     1
 74
     1
176
     1
 91
        4
176
     1
 64
     7
176
     1
 65
   257
176
     1
 75
     1
176
     1
175
     1
176
     1
 42
1.0
176
     1
 92
        8
176
     1
 66
     7
176
     1
 43
1.0
176
     1
 76
     1
176
     1
 77
     6
176
     1
 78
     2
176
     1
 67
     7
176
     1
 79
     5
176
     1
170
     0
176
     1
171
     0
176
     1
290
     0
176
     1
 93
        1
176
     1
 44
0.0
176
     1
173
     0
176
     1
  0
VISUALSTYLE
  5
2B
102
{ACAD_REACTORS
330
2A
102
}
330
2A
100
AcDbVisualStyle
  2
Flat
 70
     0
177
     2
291
     1
 71
     2
176
     1
 72
     1
176
     1
 73
     1
176
     1
 90
        2
176
     1
 40
-0.6
176
     1
 41
30.0
176
     1
 62
     5
 63
     7
421
 16777215
176
     1
 74
     0
176
     1
 91
        4
176
     1
 64
     7
176
     1
 65
   257
176
     1
 75
     1
176
     1
175
     1
176
     1
 42
1.0
176
     1
 92
        8
176
     1
 66
     7
176
     1
 43
1.0
176
     1
 76
     1
176
     1
 77
     6
176
     1
 78
     2
176
     1
 67
     7
176
     1
 79
     5
176
     1
170
     0
176
     1
171
     0
176
     1
290
     0
176
     1
 93
       13
176
     1
 44
0.0
176
     1
173
     0
176
     1
  0
VISUALSTYLE
  5
2C
102
{ACAD_REACTORS
330
2A
102
}
330
2A
100
AcDbVisualStyle
  2
FlatWithEdges
 70
     1
177
     2
291
     1
 71
     2
176
     1
 72
     1
176
     1
 73
     1
176
     1
 90
        2
176
     1
 40
-0.6
176
     1
 41
30.0
176
     1
 62
     5
 63
     7
421
 16777215
176
     1
 74
     1
176
     1
 91
        4
176
     1
 64
     7
176
     1
 65
   257
176
     1
 75
     1
176
     1
175
     1
176
     1
 42
1.0
176
     1
 92
        0
176
     1
 66
   257
176
     1
 43
1.0
176
     1
 76
     1
176
     1
 77
     6
176
     1
 78
     2
176
     1
 67
     7
176
     1
 79
     5
176
     1
170
     0
176
     1
171
     0
176
     1
290
     0
176
     1
 93
       13
176
     1
 44
0.0
176
     1
173
     0
176
     1
  0
VISUALSTYLE
  5
2D
102
{ACAD_REACTORS
330
2A
102
}
330
2A
100
AcDbVisualStyle
  2
Gouraud
 70
     2
177
     2
291
     1
 71
     2
176
     1
 72
     2
176
     1
 73
     1
176
     1
 90
        2
176
     1
 40
-0.6
176
     1
 41
30.0
176
     1
 62
     5
 63
     7
421
 16777215
176
     1
 74
     0
176
     1
 91
        4
176
     1
 64
     7
176
     1
 65
   257
176
     1
 75
     1
176
     1
175
     1
176
     1
 42
1.0
176
     1
 92
        0
176
     1
 66
     7
176
     1
 43
1.0
176
     1
 76
     1
176
     1
 77
     6
176
     1
 78
     2
176
     1
 67
     7
176
     1
 79
     5
176
     1
170
     0
176
     1
171
     0
176
     1
290
     0
176
     1
 93
       13
176
     1
 44
0.0
176
     1
173
     0
176
     1
  0
VISUALSTYLE
  5
2E
102
{ACAD_REACTORS
330
2A
102
}
330
2A
100
AcDbVisualStyle
  2
GouraudWithEdges
 70
     3
177
     2
291
     1
 71
     2
176
     1
 72
     2
176
     1
 73
     1
176
     1
 90
        2
176
     1
 40
-0.6
176
     1
 41
30.0
176
     1
 62
     5
 63
     7
421
 16777215
176
     1
 74
     1
176
     1
 91
        4
176
     1
 64
     7
176
     1
 65
   257
176
     1
 75
     1
176
     1
175
     1
176
     1
 42
1.0
176
     1
 92
        0
176
     1
 66
   257
176
     1
 43
1.0
176
     1
 76
     1
176
     1
 77
     6
176
     1
 78
     2
176
     1
 67
     7
176
     1
 79
     5
176
     1
170
     0
176
     1
171
     0
176
     1
290
     0
176
     1
 93
       13
176
     1
 44
0.0
176
     1
173
     0
176
     1
  0
VISUALSTYLE
  5
77
102
{ACAD_REACTORS
330
2A
102
}
330
2A
100
AcDbVisualStyle
  2
Hidden
 70
     6
177
     2
291
     0
 71
     1
176
     1
 72
     2
176
     1
 73
     2
176
     1
 90
        0
176
     1
 40
0.6
176
     1
 41
30.0
176
     1
 62
     5
 63
     7
421
 16777215
176
     1
 74
     2
176
     1
 91
        2
176
     1
 64
     7
176
     1
 65
   257
176
     1
 75
     2
176
     1
175
     1
176
     1
 42
40.0
176
     1
 92
        0
176
     1
 66
   257
176
     1
 43
1.0
176
     1
 76
     1
176
     1
 77
     6
176
     1
 78
     2
176
     1
 67
     7
176
     1
 79
     3
176
     1
170
     0
176
     1
171
     0
176
     1
290
     0
176
     1
 93
        1
176
     1
 44
0.0
176
     1
173
     0
176
     1
  0
VISUALSTYLE
  5
78
102
{ACAD_REACTORS
330
2A
102
}
330
2A
100
AcDbVisualStyle
  2
JitterOff
 70
    20
177
     2
291
     1
 71
     2
176
     0
 72
     2
176
     0
 73
     0
176
     0
 90
        0
176
     0
 40
0.6
176
     0
 41
30.0
176
     0
 62
     5
 63
     7
421
 16777215
176
     0
 74
     1
176
     0
 91
        4
176
     0
 64
     7
176
     0
 65
   257
176
     0
 75
     1
176
     0
175
     1
176
     0
 42
1.0
176
     0
 92
       10
176
     2
 66
     7
176
     0
 43
1.0
176
     0
 76
     1
176
     0
 77
     6
176
     0
 78
     2
176
     0
 67
     7
176
     0
 79
     5
176
     0
170
     0
176
     0
171
     0
176
     0
290
     0
176
     0
 93
        1
176
     0
 44
0.0
176
     0
173
     0
176
     0
  0
VISUALSTYLE
  5
38
102
{ACAD_REACTORS
330
2A
102
}
330
2A
100
AcDbVisualStyle
  2
Linepattern
 70
    14
177
     2
291
     1
 71
     2
176
     1
 72
     2
176
     1
 73
     0
176
     1
 90
        0
176
     1
 40
-0.6
176
     1
 41
-30.0
176
     1
 62
     5
 63
     7
421
 16777215
176
     1
 74
     1
176
     1
 91
        4
176
     1
 64
     7
176
     1
 65
   257
176
     1
 75
     7
176
     1
175
     7
176
     1
 42
1.0
176
     1
 92
        8
176
     1
 66
     7
176
     1
 43
1.0
176
     1
 76
     1
176
     1
 77
     6
176
     1
 78
     2
176
     1
 67
     7
176
     1
 79
     5
176
     1
170
     0
176
     1
171
     0
176
     1
290
     0
176
     1
 93
        1
176
     1
 44
0.0
176
     1
173
     0
176
     1
  0
VISUALSTYLE
  5
79
102
{ACAD_REACTORS
330
2A
102
}
330
2A
100
AcDbVisualStyle
  2
OverhangOff
 70
    21
177
     2
291
     1
 71
     2
176
     0
 72
     2
176
     0
 73
     0
176
     0
 90
        0
176
     0
 40
0.6
176
     0
 41
30.0
176
     0
 62
     5
 63
     7
421
 16777215
176
     0
 74
     1
176
     0
 91
        4
176
     0
 64
     7
176
     0
 65
   257
176
     0
 75
     1
176
     0
175
     1
176
     0
 42
1.0
176
     0
 92
        9
176
     2
 66
     7
176
     0
 43
1.0
176
     0
 76
     1
176
     0
 77
     6
176
     0
 78
     2
176
     0
 67
     7
176
     0
 79
     5
176
     0
170
     0
176
     0
171
     0
176
     0
290
     0
176
     0
 93
        1
176
     0
 44
0.0
176
     0
173
     0
176
     0
  0
VISUALSTYLE
  5
33
102
{ACAD_REACTORS
330
2A
102
}
330
2A
100
AcDbVisualStyle
  2
Realistic
 70
     8
177
     2
291
     0
 71
     2
176
     1
 72
     2
176
     1
 73
     0
176
     1
 90
        0
176
     1
 40
-0.6
176
     1
 41
-30.0
176
     1
 62
     5
 63
     7
421
 16777215
176
     1
 74
     1
176
     1
 91
        0
176
     1
 64
     7
176
     1
 65
   257
176
     1
 75
     1
176
     1
175
     1
176
     1
 42
1.0
176
     1
 92
        8
176
     1
 66
     8
424
  7895160
176
     1
 43
1.0
176
     1
 76
     1
176
     1
 77
     6
176
     1
 78
     2
176
     1
 67
     7
176
     1
 79
     5
176
     1
170
     0
176
     1
171
     0
176
     1
290
     0
176
     1
 93
       13
176
     1
 44
0.0
176
     1
173
     0
176
     1
  0
VISUALSTYLE
  5
7F
102
{ACAD_REACTORS
330
2A
102
}
330
2A
100
AcDbVisualStyle
  2
Shaded
 70
    27
177
     2
291
     0
 71
     2
176
     1
 72
     2
176
     1
 73
     1
176
     1
 90
        2
176
     1
 40
0.6
176
     1
 41
30.0
176
     1
 62
     5
 63
     7
421
 16777215
176
     1
 74
     0
176
     1
 91
        4
176
     1
 64
     7
176
     1
 65
   257
176
     1
 75
     1
176
     1
175
     1
176
     1
 42
1.0
176
     1
 92
        8
176
     1
 66
   257
176
     1
 43
1.0
176
     1
 76
     1
176
     1
 77
     6
176
     1
 78
     2
176
     1
 67
     8
425
  7895160
176
     1
 79
     3
176
     1
170
     0
176
     1
171
     0
176
     1
290
     0
176
     1
 93
        5
176
     1
 44
0.0
176
     1
173
     0
176
     1
  0
VISUALSTYLE
  5
7E
102
{ACAD_REACTORS
330
2A
102
}
330
2A
100
AcDbVisualStyle
  2
Shaded with edges
 70
    26
177
     2
291
     0
 71
     2
176
     1
 72
     2
176
     1
 73
     1
176
     1
 90
        2
176
     1
 40
0.6
176
     1
 41
30.0
176
     1
 62
     5
 63
     7
421
 16777215
176
     1
 74
     1
176
     1
 91
       10
176
     1
 64
     7
176
     1
 65
   257
176
     1
 75
     2
176
     1
175
     1
176
     1
 42
1.0
176
     1
 92
        8
176
     1
 66
   257
176
     1
 43
1.0
176
     1
 76
     1
176
     1
 77
     6
176
     1
 78
     2
176
     1
 67
     7
176
     1
 79
     3
176
     1
170
     0
176
     1
171
     0
176
     1
290
     0
176
     1
 93
        5
176
     1
 44
0.0
176
     1
173
     0
176
     1
  0
VISUALSTYLE
  5
7B
102
{ACAD_REACTORS
330
2A
102
}
330
2A
100
AcDbVisualStyle
  2
Shades of Gray
 70
    23
177
     2
291
     0
 71
     2
176
     1
 72
     2
176
     1
 73
     3
176
     1
 90
        0
176
     1
 40
0.6
176
     1
 41
30.0
176
     1
 62
     5
 63
     7
421
 16777215
176
     1
 74
     2
176
     1
 91
        2
176
     1
 64
     7
176
     1
 65
     7
176
     1
 75
     1
176
     1
175
     1
176
     1
 42
40.0
176
     1
 92
        8
176
     1
 66
     7
176
     1
 43
1.0
176
     1
 76
     1
176
     1
 77
     6
176
     1
 78
     2
176
     1
 67
     7
176
     1
 79
     3
176
     1
170
     0
176
     1
171
     0
176
     1
290
     0
176
     1
 93
        1
176
     1
 44
0.0
176
     1
173
     0
176
     1
  0
VISUALSTYLE
  5
7C
102
{ACAD_REACTORS
330
2A
102
}
330
2A
100
AcDbVisualStyle
  2
Sketchy
 70
    24
177
     2
291
     0
 71
     1
176
     1
 72
     2
176
     1
 73
     2
176
     1
 90
        0
176
     1
 40
0.6
176
     1
 41
30.0
176
     1
 62
     5
 63
     7
421
 16777215
176
     1
 74
     2
176
     1
 91
        2
176
     1
 64
     7
176
     1
 65
     7
176
     1
 75
     1
176
     1
175
     1
176
     1
 42
40.0
176
     1
 92
       11
176
     1
 66
     7
176
     1
 43
1.0
176
     1
 76
     1
176
     1
 77
     6
176
     1
 78
     2
176
     1
 67
     7
176
     1
 79
     6
176
     1
170
     0
176
     1
171
     0
176
     1
290
     0
176
     1
 93
        1
176
     1
 44
0.0
176
     1
173
     0
176
     1
  0
VISUALSTYLE
  5
37
102
{ACAD_REACTORS
330
2A
102
}
330
2A
100
AcDbVisualStyle
  2
Thicken
 70
    13
177
     2
291
     1
 71
     2
176
     1
 72
     2
176
     1
 73
     0
176
     1
 90
        0
176
     1
 40
-0.6
176
     1
 41
-30.0
176
     1
 62
     5
 63
     7
421
 16777215
176
     1
 74
     1
176
     1
 91
        4
176
     1
 64
     7
176
     1
 65
   257
176
     1
 75
     1
176
     1
175
     1
176
     1
 42
1.0
176
     1
 92
       12
176
     1
 66
     7
176
     1
 43
1.0
176
     1
 76
     1
176
     1
 77
     6
176
     1
 78
     2
176
     1
 67
     7
176
     1
 79
     5
176
     1
170
     0
176
     1
171
     0
176
     1
290
     0
176
     1
 93
        1
176
     1
 44
0.0
176
     1
173
     0
176
     1
  0
VISUALSTYLE
  5
76
102
{ACAD_REACTORS
330
2A
102
}
330
2A
100
AcDbVisualStyle
  2
Wireframe
 70
     5
177
     2
291
     0
 71
     0
176
     1
 72
     2
176
     1
 73
     0
176
     1
 90
        0
176
     1
 40
0.6
176
     1
 41
30.0
176
     1
 62
     5
 63
     7
421
 16777215
176
     1
 74
     1
176
     1
 91
        4
176
     1
 64
     7
176
     1
 65
   257
176
     1
 75
     1
176
     1
175
     1
176
     1
 42
1.0
176
     1
 92
        0
176
     1
 66
   257
176
     1
 43
1.0
176
     1
 76
     1
176
     1
 77
     6
176
     1
 78
     2
176
     1
 67
     7
176
     1
 79
     3
176
     1
170
     0
176
     1
171
     0
176
     1
290
     0
176
     1
 93
        1
176
     1
 44
0.0
176
     1
173
     0
176
     1
  0
VISUALSTYLE
  5
7D
102
{ACAD_REACTORS
330
2A
102
}
330
2A
100
AcDbVisualStyle
  2
X-Ray
 70
    25
177
     2
291
     0
 71
     2
176
     1
 72
     2
176
     1
 73
     1
176
     1
 90
        1
176
     1
 40
0.5
176
     1
 41
30.0
176
     1
 62
     5
 63
     7
421
 16777215
176
     1
 74
     1
176
     1
 91
        0
176
     1
 64
     7
176
     1
 65
   257
176
     1
 75
     1
176
     1
175
     1
176
     1
 42
1.0
176
     1
 92
        8
176
     1
 66
     7
176
     1
 43
1.0
176
     1
 76
     1
176
     1
 77
     6
176
     1
 78
     2
176
     1
 67
     7
176
     1
 79
     3
176
     1
170
     0
176
     1
171
     0
176
     1
290
     0
176
     1
 93
       13
176
     1
 44
0.0
176
     1
173
     0
176
     1
  0
DICTIONARYVAR
  5
62
102
{ACAD_REACTORS
330
3D
102
}
330
3D
100
DictionaryVariables
280
     0
  1
1:1
  0
DICTIONARYVAR
  5
407
102
{ACAD_REACTORS
330
3D
102
}
330
3D
100
DictionaryVariables
280
     0
  1
Standard
  0
DICTIONARYVAR
  5
3E
102
{ACAD_REACTORS
330
3D
102
}
330
3D
100
DictionaryVariables
280
     0
  1
Standard
  0
DICTIONARYVAR
  5
6F
102
{ACAD_REACTORS
330
3D
102
}
330
3D
100
DictionaryVariables
280
     0
  1
0
  0
DICTIONARYVAR
  5
70
102
{ACAD_REACTORS
330
3D
102
}
330
3D
100
DictionaryVariables
280
     0
  1
0
  0
XRECORD
  5
409
102
{ACAD_REACTORS
330
21F
102
}
330
21F
100
AcDbXrecord
280
     1
 91
     1023
301

290
     0
302
0
330
10
 90
        8
 62
     7
370
    -3
331
16
  1
Color_7
330
B9
 90
        0
 62
     7
370
    -3
331
16
  1
Color_7
330
BA
 90
        8
 62
     1
370
    25
331
16
  1
Color_1
330
BE
 90
        0
 62
     2
370
    15
331
16
  1
Color_2
330
C0
 90
        8
 62
     7
370
    -3
331
16
  1
Color_7
  0
XRECORD
  5
5E1
102
{ACAD_REACTORS
330
21F
102
}
330
21F
100
AcDbXrecord
280
     1
 91
     1023
301

290
     0
302
0
330
10
 90
        8
 62
     7
370
    -3
331
16
  1
Color_7
330
B9
 90
        0
 62
     7
370
    -3
331
16
  1
Color_7
330
BA
 90
        9
 62
     1
370
    25
331
16
  1
Color_1
330
BE
 90
        0
 62
     2
370
    15
331
16
  1
Color_2
330
C0
 90
        8
 62
     7
370
    -3
331
16
  1
Color_7
  0
XRECORD
  5
610
102
{ACAD_REACTORS
330
21F
102
}
330
21F
100
AcDbXrecord
280
     1
 91
     1023
301

290
     0
302
0
330
10
 90
        8
 62
     7
370
    -3
331
16
  1
Color_7
330
B9
 90
        0
 62
     7
370
    -3
331
16
  1
Color_7
330
BA
 90
        8
 62
     1
370
    25
331
16
  1
Color_1
330
BE
 90
        0
 62
     2
370
    15
331
16
  1
Color_2
330
C0
 90
        8
 62
     7
370
    -3
331
16
  1
Color_7
  0
FIELD
  5
F7
102
{ACAD_REACTORS
330
F6
102
}
330
F6
100
AcDbField
  1
_text
  2
{\fTahoma|b0|i0|c0|p34;\C5;%<\_FldIdx 0>%}
 90
        1
360
F8
 97
        0
 91
       63
 92
        0
 94
        8
 95
        2
 96
        0
300

 93
        1
  6
ACFD_FIELDTEXT_CHECKSUM
 93
        2
 90
        2
140
80535.0
 94
        0
300

302

304
ACVALUE_END
  7
ACFD_FIELD_VALUE
 93
        6
 90
        4
  1
{\fTahoma|b0|i0|c0|p34;\C5;25000_final.dwg}
 94
        0
300

302

304
ACVALUE_END
301
{\fTahoma|b0|i0|c0|p34;\C5;25000_final.dwg}
 98
       43
  0
DICTIONARY
  5
62F
330
3C
100
AcDbDictionary
280
     1
281
     1
  3
ACAD_ROUNDTRIP_2008_TABLESTYLE_CELLSTYLEMAP
360
630
  0
FIELD
  5
F8
330
F7
100
AcDbField
  1
AcVar
  2
\AcVar Filename \f "%fn6"
 90
        0
 97
        0
 91
       63
 92
        0
 94
        8
 95
        2
 96
        0
300

 93
        1
  6
Variable
 93
        2
 90
        4
  1
Filename
 94
        0
300

302

304
ACVALUE_END
  7
ACFD_FIELD_VALUE
 93
        6
 90
        4
  1
/Users/imyz/25000/CAD/25000_final.dwg
 94
        0
300
%fn6
302

304
ACVALUE_END
301
25000_final.dwg
 98
       15
  0
CELLSTYLEMAP
  5
630
102
{ACAD_REACTORS
330
62F
102
}
330
62F
100
AcDbCellStyleMap
 90
        3
300
CELLSTYLE
  1
TABLEFORMAT_BEGIN
 90
        5
170
     1
 91
        0
 92
    32768
 62
   257
 93
        1
300
CONTENTFORMAT
  1
CONTENTFORMAT_BEGIN
 90
        0
 91
        0
 92
      512
 93
        0
300

 40
0.0
140
1.0
 94
        5
 62
     0
340
11
144
6.0
309
CONTENTFORMAT_END
171
     1
301
MARGIN
  1
CELLMARGIN_BEGIN
 40
1.5
 40
1.5
 40
1.5
 40
1.5
 40
0.18
 40
0.18
309
CELLMARGIN_END
 94
        6
 95
        1
302
GRIDFORMAT
  1
GRIDFORMAT_BEGIN
 90
        0
 91
        1
 62
     0
 92
       -2
340
0
 93
        0
 40
0.045
309
GRIDFORMAT_END
 95
        2
302
GRIDFORMAT
  1
GRIDFORMAT_BEGIN
 90
        0
 91
        1
 62
     0
 92
       -2
340
0
 93
        0
 40
0.045
309
GRIDFORMAT_END
 95
        4
302
GRIDFORMAT
  1
GRIDFORMAT_BEGIN
 90
        0
 91
        1
 62
     0
 92
       -2
340
0
 93
        0
 40
0.045
309
GRIDFORMAT_END
 95
        8
302
GRIDFORMAT
  1
GRIDFORMAT_BEGIN
 90
        0
 91
        1
 62
     0
 92
       -2
340
0
 93
        0
 40
0.045
309
GRIDFORMAT_END
 95
       16
302
GRIDFORMAT
  1
GRIDFORMAT_BEGIN
 90
        0
 91
        1
 62
     0
 92
       -2
340
0
 93
        0
 40
0.045
309
GRIDFORMAT_END
 95
       32
302
GRIDFORMAT
  1
GRIDFORMAT_BEGIN
 90
        0
 91
        1
 62
     0
 92
       -2
340
0
 93
        0
 40
0.045
309
GRIDFORMAT_END
309
TABLEFORMAT_END
  1
CELLSTYLE_BEGIN
 90
        1
 91
        1
300
_TITLE
309
CELLSTYLE_END
300
CELLSTYLE
  1
TABLEFORMAT_BEGIN
 90
        5
170
     1
 91
        0
 92
        0
 62
   257
 93
        1
300
CONTENTFORMAT
  1
CONTENTFORMAT_BEGIN
 90
        0
 91
        0
 92
      512
 93
        0
300

 40
0.0
140
1.0
 94
        5
 62
     0
340
11
144
4.5
309
CONTENTFORMAT_END
171
     1
301
MARGIN
  1
CELLMARGIN_BEGIN
 40
1.5
 40
1.5
 40
1.5
 40
1.5
 40
0.18
 40
0.18
309
CELLMARGIN_END
 94
        6
 95
        1
302
GRIDFORMAT
  1
GRIDFORMAT_BEGIN
 90
        0
 91
        1
 62
     0
 92
       -2
340
0
 93
        0
 40
0.045
309
GRIDFORMAT_END
 95
        2
302
GRIDFORMAT
  1
GRIDFORMAT_BEGIN
 90
        0
 91
        1
 62
     0
 92
       -2
340
0
 93
        0
 40
0.045
309
GRIDFORMAT_END
 95
        4
302
GRIDFORMAT
  1
GRIDFORMAT_BEGIN
 90
        0
 91
        1
 62
     0
 92
       -2
340
0
 93
        0
 40
0.045
309
GRIDFORMAT_END
 95
        8
302
GRIDFORMAT
  1
GRIDFORMAT_BEGIN
 90
        0
 91
        1
 62
     0
 92
       -2
340
0
 93
        0
 40
0.045
309
GRIDFORMAT_END
 95
       16
302
GRIDFORMAT
  1
GRIDFORMAT_BEGIN
 90
        0
 91
        1
 62
     0
 92
       -2
340
0
 93
        0
 40
0.045
309
GRIDFORMAT_END
 95
       32
302
GRIDFORMAT
  1
GRIDFORMAT_BEGIN
 90
        0
 91
        1
 62
     0
 92
       -2
340
0
 93
        0
 40
0.045
309
GRIDFORMAT_END
309
TABLEFORMAT_END
  1
CELLSTYLE_BEGIN
 90
        2
 91
        1
300
_HEADER
309
CELLSTYLE_END
300
CELLSTYLE
  1
TABLEFORMAT_BEGIN
 90
        5
170
     1
 91
        0
 92
        0
 62
   257
 93
        1
300
CONTENTFORMAT
  1
CONTENTFORMAT_BEGIN
 90
        0
 91
        0
 92
      512
 93
        0
300

 40
0.0
140
1.0
 94
        2
 62
     0
340
11
144
4.5
309
CONTENTFORMAT_END
171
     1
301
MARGIN
  1
CELLMARGIN_BEGIN
 40
1.5
 40
1.5
 40
1.5
 40
1.5
 40
0.18
 40
0.18
309
CELLMARGIN_END
 94
        6
 95
        1
302
GRIDFORMAT
  1
GRIDFORMAT_BEGIN
 90
        0
 91
        1
 62
     0
 92
       -2
340
0
 93
        0
 40
0.045
309
GRIDFORMAT_END
 95
        2
302
GRIDFORMAT
  1
GRIDFORMAT_BEGIN
 90
        0
 91
        1
 62
     0
 92
       -2
340
0
 93
        0
 40
0.045
309
GRIDFORMAT_END
 95
        4
302
GRIDFORMAT
  1
GRIDFORMAT_BEGIN
 90
        0
 91
        1
 62
     0
 92
       -2
340
0
 93
        0
 40
0.045
309
GRIDFORMAT_END
 95
        8
302
GRIDFORMAT
  1
GRIDFORMAT_BEGIN
 90
        0
 91
        1
 62
     0
 92
       -2
340
0
 93
        0
 40
0.045
309
GRIDFORMAT_END
 95
       16
302
GRIDFORMAT
  1
GRIDFORMAT_BEGIN
 90
        0
 91
        1
 62
     0
 92
       -2
340
0
 93
        0
 40
0.045
309
GRIDFORMAT_END
 95
       32
302
GRIDFORMAT
  1
GRIDFORMAT_BEGIN
 90
        0
 91
        1
 62
     0
 92
       -2
340
0
 93
        0
 40
0.045
309
GRIDFORMAT_END
309
TABLEFORMAT_END
  1
CELLSTYLE_BEGIN
 90
        3
 91
        2
300
_DATA
309
CELLSTYLE_END
  0
ENDSEC
  0
EOF
