  0
SECTION
  2
HEADER
  9
$ACADVER
  1
AC1021
  9
$ACADMAINTVER
 70
    25
  9
$DWGCODEPAGE
  3
ANSI_1252
  9
$LASTSAVEDBY
  1
imyz
  9
$INSBASE
 10
0.0
 20
0.0
 30
0.0
  9
$EXTMIN
 10
1.000000000000000E+20
 20
1.000000000000000E+20
 30
1.000000000000000E+20
  9
$EXTMAX
 10
-1.000000000000000E+20
 20
-1.000000000000000E+20
 30
-1.000000000000000E+20
  9
$LIMMIN
 10
0.0
 20
0.0
  9
$LIMMAX
 10
420.0
 20
297.0
  9
$ORTHOMODE
 70
     0
  9
$REGENMODE
 70
     1
  9
$FILLMODE
 70
     1
  9
$QTEXTMODE
 70
     0
  9
$MIRRTEXT
 70
     0
  9
$LTSCALE
 40
1.0
  9
$ATTMODE
 70
     1
  9
$TEXTSIZE
 40
2.5
  9
$TRACEWID
 40
1.0
  9
$TEXTSTYLE
  7
Standard
  9
$CLAYER
  8
0
  9
$CELTYPE
  6
ByLayer
  9
$CECOLOR
 62
   256
  9
$CELTSCALE
 40
1.0
  9
$DISPSILH
 70
     0
  9
$DIMSCALE
 40
1.0
  9
$DIMASZ
 40
2.5
  9
$DIMEXO
 40
0.625
  9
$DIMDLI
 40
3.75
  9
$DIMRND
 40
0.0
  9
$DIMDLE
 40
0.0
  9
$DIMEXE
 40
1.25
  9
$DIMTP
 40
0.0
  9
$DIMTM
 40
0.0
  9
$DIMTXT
 40
2.5
  9
$DIMCEN
 40
2.5
  9
$DIMTSZ
 40
0.0
  9
$DIMTOL
 70
     0
  9
$DIMLIM
 70
     0
  9
$DIMTIH
 70
     0
  9
$DIMTOH
 70
     0
  9
$DIMSE1
 70
     0
  9
$DIMSE2
 70
     0
  9
$DIMTAD
 70
     1
  9
$DIMZIN
 70
     8
  9
$DIMBLK
  1

  9
$DIMASO
 70
     1
  9
$DIMSHO
 70
     1
  9
$DIMPOST
  1

  9
$DIMAPOST
  1

  9
$DIMALT
 70
     0
  9
$DIMALTD
 70
     3
  9
$DIMALTF
 40
0.03937007874016
  9
$DIMLFAC
 40
1.0
  9
$DIMTOFL
 70
     1
  9
$DIMTVP
 40
0.0
  9
$DIMTIX
 70
     0
  9
$DIMSOXD
 70
     0
  9
$DIMSAH
 70
     0
  9
$DIMBLK1
  1

  9
$DIMBLK2
  1

  9
$DIMSTYLE
  2
ISO-25
  9
$DIMCLRD
 70
     0
  9
$DIMCLRE
 70
     0
  9
$DIMCLRT
 70
     0
  9
$DIMTFAC
 40
1.0
  9
$DIMGAP
 40
0.625
  9
$DIMJUST
 70
     0
  9
$DIMSD1
 70
     0
  9
$DIMSD2
 70
     0
  9
$DIMTOLJ
 70
     0
  9
$DIMTZIN
 70
     8
  9
$DIMALTZ
 70
     0
  9
$DIMALTTZ
 70
     0
  9
$DIMUPT
 70
     0
  9
$DIMDEC
 70
     2
  9
$DIMTDEC
 70
     2
  9
$DIMALTU
 70
     2
  9
$DIMALTTD
 70
     3
  9
$DIMTXSTY
  7
Standard
  9
$DIMAUNIT
 70
     0
  9
$DIMADEC
 70
     0
  9
$DIMALTRND
 40
0.0
  9
$DIMAZIN
 70
     0
  9
$DIMDSEP
 70
    44
  9
$DIMATFIT
 70
     3
  9
$DIMFRAC
 70
     0
  9
$DIMLDRBLK
  1

  9
$DIMLUNIT
 70
     2
  9
$DIMLWD
 70
    -2
  9
$DIMLWE
 70
    -2
  9
$DIMTMOVE
 70
     0
  9
$DIMFXL
 40
1.0
  9
$DIMFXLON
 70
     0
  9
$DIMJOGANG
 40
0.7853981633974483
  9
$DIMTFILL
 70
     0
  9
$DIMTFILLCLR
 70
     0
  9
$DIMARCSYM
 70
     0
  9
$DIMLTYPE
  6

  9
$DIMLTEX1
  6

  9
$DIMLTEX2
  6

  9
$LUNITS
 70
     2
  9
$LUPREC
 70
     3
  9
$SKETCHINC
 40
1.0
  9
$FILLETRAD
 40
10.0
  9
$AUNITS
 70
     0
  9
$AUPREC
 70
     0
  9
$MENU
  1
.
  9
$ELEVATION
 40
0.0
  9
$PELEVATION
 40
0.0
  9
$THICKNESS
 40
0.0
  9
$LIMCHECK
 70
     0
  9
$CHAMFERA
 40
10.0
  9
$CHAMFERB
 40
10.0
  9
$CHAMFERC
 40
20.0
  9
$CHAMFERD
 40
0.0
  9
$SKPOLY
 70
     0
  9
$TDCREATE
 40
2455022.720692847
  9
$TDUCREATE
 40
2455022.637359514
  9
$TDUPDATE
 40
2457231.805775463
  9
$TDUUPDATE
 40
2457231.72244213
  9
$TDINDWG
 40
0.0
  9
$TDUSRTIMER
 40
2457231.72181713
  9
$USRTIMER
 70
     1
  9
$ANGBASE
 50
0.0
  9
$ANGDIR
 70
     0
  9
$PDMODE
 70
     0
  9
$PDSIZE
 40
0.0
  9
$PLINEWID
 40
0.0
  9
$SPLFRAME
 70
     0
  9
$SPLINETYPE
 70
     6
  9
$SPLINESEGS
 70
     8
  9
$HANDSEED
  5
302
  9
$SURFTAB1
 70
     6
  9
$SURFTAB2
 70
     6
  9
$SURFTYPE
 70
     6
  9
$SURFU
 70
     6
  9
$SURFV
 70
     6
  9
$UCSBASE
  2

  9
$UCSNAME
  2

  9
$UCSORG
 10
0.0
 20
0.0
 30
0.0
  9
$UCSXDIR
 10
1.0
 20
0.0
 30
0.0
  9
$UCSYDIR
 10
0.0
 20
1.0
 30
0.0
  9
$UCSORTHOREF
  2

  9
$UCSORTHOVIEW
 70
     0
  9
$UCSORGTOP
 10
0.0
 20
0.0
 30
0.0
  9
$UCSORGBOTTOM
 10
0.0
 20
0.0
 30
0.0
  9
$UCSORGLEFT
 10
0.0
 20
0.0
 30
0.0
  9
$UCSORGRIGHT
 10
0.0
 20
0.0
 30
0.0
  9
$UCSORGFRONT
 10
0.0
 20
0.0
 30
0.0
  9
$UCSORGBACK
 10
0.0
 20
0.0
 30
0.0
  9
$PUCSBASE
  2

  9
$PUCSNAME
  2

  9
$PUCSORG
 10
0.0
 20
0.0
 30
0.0
  9
$PUCSXDIR
 10
1.0
 20
0.0
 30
0.0
  9
$PUCSYDIR
 10
0.0
 20
1.0
 30
0.0
  9
$PUCSORTHOREF
  2

  9
$PUCSORTHOVIEW
 70
     0
  9
$PUCSORGTOP
 10
0.0
 20
0.0
 30
0.0
  9
$PUCSORGBOTTOM
 10
0.0
 20
0.0
 30
0.0
  9
$PUCSORGLEFT
 10
0.0
 20
0.0
 30
0.0
  9
$PUCSORGRIGHT
 10
0.0
 20
0.0
 30
0.0
  9
$PUCSORGFRONT
 10
0.0
 20
0.0
 30
0.0
  9
$PUCSORGBACK
 10
0.0
 20
0.0
 30
0.0
  9
$USERI1
 70
     0
  9
$USERI2
 70
     0
  9
$USERI3
 70
     0
  9
$USERI4
 70
     0
  9
$USERI5
 70
     0
  9
$USERR1
 40
0.0
  9
$USERR2
 40
0.0
  9
$USERR3
 40
0.0
  9
$USERR4
 40
0.0
  9
$USERR5
 40
0.0
  9
$WORLDVIEW
 70
     1
  9
$SHADEDGE
 70
     3
  9
$SHADEDIF
 70
    70
  9
$TILEMODE
 70
     1
  9
$MAXACTVP
 70
    64
  9
$PINSBASE
 10
0.0
 20
0.0
 30
0.0
  9
$PLIMCHECK
 70
     0
  9
$PEXTMIN
 10
1.000000000000000E+20
 20
1.000000000000000E+20
 30
1.000000000000000E+20
  9
$PEXTMAX
 10
-1.000000000000000E+20
 20
-1.000000000000000E+20
 30
-1.000000000000000E+20
  9
$PLIMMIN
 10
0.0
 20
0.0
  9
$PLIMMAX
 10
0.0
 20
0.0
  9
$UNITMODE
 70
     0
  9
$VISRETAIN
 70
     1
  9
$PLINEGEN
 70
     0
  9
$PSLTSCALE
 70
     1
  9
$TREEDEPTH
 70
  3020
  9
$CMLSTYLE
  2
Standard
  9
$CMLJUST
 70
     0
  9
$CMLSCALE
 40
20.0
  9
$PROXYGRAPHICS
 70
     1
  9
$MEASUREMENT
 70
     1
  9
$CELWEIGHT
370
    -1
  9
$ENDCAPS
280
     0
  9
$JOINSTYLE
280
     0
  9
$LWDISPLAY
290
     0
  9
$INSUNITS
 70
     4
  9
$HYPERLINKBASE
  1

  9
$STYLESHEET
  1

  9
$XEDIT
290
     1
  9
$CEPSNTYPE
380
     0
  9
$PSTYLEMODE
290
     1
  9
$FINGERPRINTGUID
  2
{EC6BB858-51AA-46EC-B484-6C9CC7AB3E2E}
  9
$VERSIONGUID
  2
{FAEB1C32-E019-11D5-929B-00C0DF256EC4}
  9
$EXTNAMES
290
     1
  9
$PSVPSCALE
 40
0.0
  9
$OLESTARTUP
290
     0
  9
$SORTENTS
280
   127
  9
$INDEXCTL
280
     0
  9
$HIDETEXT
280
     1
  9
$XCLIPFRAME
290
     0
  9
$HALOGAP
280
     0
  9
$OBSCOLOR
 70
   257
  9
$OBSLTYPE
280
     0
  9
$INTERSECTIONDISPLAY
280
     0
  9
$INTERSECTIONCOLOR
 70
   257
  9
$DIMASSOC
280
     2
  9
$PROJECTNAME
  1

  9
$CAMERADISPLAY
290
     0
  9
$LENSLENGTH
 40
50.0
  9
$CAMERAHEIGHT
 40
0.0
  9
$STEPSPERSEC
 40
2.0
  9
$STEPSIZE
 40
6.0
  9
$3DDWFPREC
 40
2.0
  9
$PSOLWIDTH
 40
5.0
  9
$PSOLHEIGHT
 40
80.0
  9
$LOFTANG1
 40
1.570796326794897
  9
$LOFTANG2
 40
1.570796326794897
  9
$LOFTMAG1
 40
0.0
  9
$LOFTMAG2
 40
0.0
  9
$LOFTPARAM
 70
     7
  9
$LOFTNORMALS
280
     1
  9
$LATITUDE
 40
37.795
  9
$LONGITUDE
 40
-122.394
  9
$NORTHDIRECTION
 40
0.0
  9
$TIMEZONE
 70
 -8000
  9
$LIGHTGLYPHDISPLAY
280
     1
  9
$TILEMODELIGHTSYNCH
280
     1
  9
$SOLIDHIST
280
     1
  9
$SHOWHIST
280
     1
  9
$DWFFRAME
280
     2
  9
$DGNFRAME
280
     2
  9
$REALWORLDSCALE
290
     1
  9
$INTERFERECOLOR
 62
   256
  9
$CSHADOW
280
     0
  9
$SHADOWPLANELOCATION
 40
0.0
  0
ENDSEC
  0
SECTION
  2
CLASSES
  0
CLASS
  1
ACDBDICTIONARYWDFLT
  2
AcDbDictionaryWithDefault
  3
ObjectDBX Classes
 90
        0
 91
        5
280
     0
281
     0
  0
CLASS
  1
VISUALSTYLE
  2
AcDbVisualStyle
  3
ObjectDBX Classes
 90
     4095
 91
        5
280
     0
281
     0
  0
CLASS
  1
TABLESTYLE
  2
AcDbTableStyle
  3
ObjectDBX Classes
 90
     4095
 91
        5
280
     0
281
     0
  0
CLASS
  1
DICTIONARYVAR
  2
AcDbDictionaryVar
  3
ObjectDBX Classes
 90
        0
 91
        5
280
     0
281
     0
  0
CLASS
  1
SCALE
  2
AcDbScale
  3
ObjectDBX Classes
 90
     1153
 91
        5
280
     0
281
     0
  0
CLASS
  1
CELLSTYLEMAP
  2
AcDbCellStyleMap
  3
ObjectDBX Classes
 90
     1152
 91
        5
280
     0
281
     0
  0
CLASS
  1
RASTERVARIABLES
  2
AcDbRasterVariables
  3
ISM
 90
        0
 91
        5
280
     0
281
     0
  0
CLASS
  1
MATERIAL
  2
AcDbMaterial
  3
ObjectDBX Classes
 90
     1153
 91
        5
280
     0
281
     0
  0
CLASS
  1
SUN
  2
AcDbSun
  3
SCENEOE
 90
     1153
 91
        5
280
     0
281
     0
  0
CLASS
  1
MLEADERSTYLE
  2
AcDbMLeaderStyle
  3
ACDB_MLEADERSTYLE_CLASS
 90
     4095
 91
        5
280
     0
281
     0
  0
CLASS
  1
DIMASSOC
  2
AcDbDimAssoc
  3
"AcDbDimAssoc|Product Desc:     AcDim ARX App For Dimension|Company:          Autodesk, Inc.|WEB Address:      www.autodesk.com"
 90
        0
 91
        5
280
     0
281
     0
  0
ENDSEC
  0
SECTION
  2
TABLES
  0
TABLE
  2
VPORT
  5
8
330
0
100
AcDbSymbolTable
 70
     1
  0
VPORT
  5
29
330
8
100
AcDbSymbolTableRecord
100
AcDbViewportTableRecord
  2
*Active
 70
     0
 10
0.0
 20
0.0
 11
1.0
 21
1.0
 12
129.7184246015434
 22
33.6880232365145
 13
0.0
 23
0.0
 14
10.0
 24
10.0
 15
10.0
 25
10.0
 16
0.0
 26
0.0
 36
1.0
 17
-134.1869158878504
 27
0.0
 37
0.0
 40
197.2224
 41
2.047717842323651
 42
50.0
 43
0.0
 44
0.0
 50
0.0
 51
0.0
 71
    16
 72
  1000
 73
     1
 74
     3
 75
     0
 76
     0
 77
     0
 78
     0
281
     0
 65
     1
110
0.0
120
0.0
130
0.0
111
1.0
121
0.0
131
0.0
112
0.0
122
1.0
132
0.0
 79
     0
146
0.0
348
2F
 60
     3
 61
     5
292
     1
282
     1
141
0.0
142
0.0
 63
   256
361
80
  0
ENDTAB
  0
TABLE
  2
LTYPE
  5
5
330
0
100
AcDbSymbolTable
 70
     2
  0
LTYPE
  5
14
330
5
100
AcDbSymbolTableRecord
100
AcDbLinetypeTableRecord
  2
ByBlock
 70
     0
  3

 72
    65
 73
     0
 40
0.0
  0
LTYPE
  5
15
330
5
100
AcDbSymbolTableRecord
100
AcDbLinetypeTableRecord
  2
ByLayer
 70
     0
  3

 72
    65
 73
     0
 40
0.0
  0
LTYPE
  5
16
330
5
100
AcDbSymbolTableRecord
100
AcDbLinetypeTableRecord
  2
Continuous
 70
     0
  3
Solid line
 72
    65
 73
     0
 40
0.0
  0
LTYPE
  5
BD
330
5
100
AcDbSymbolTableRecord
100
AcDbLinetypeTableRecord
  2
ACAD_ISO02W100
 70
     0
  3
ISO dash __ __ __ __ __ __ __ __ __ __ __ __ __
 72
    65
 73
     2
 40
15.0
 49
12.0
 74
     0
 49
-3.0
 74
     0
  0
ENDTAB
  0
TABLE
  2
LAYER
  5
2
102
{ACAD_XDICTIONARY
360
1EC
102
}
330
0
100
AcDbSymbolTable
 70
     4
  0
LAYER
  5
10
330
2
100
AcDbSymbolTableRecord
100
AcDbLayerTableRecord
  2
0
 70
     0
 62
     7
  6
Continuous
370
    -3
390
F
347
75
  0
LAYER
  5
B9
330
2
100
AcDbSymbolTableRecord
100
AcDbLayerTableRecord
  2
Defpoints
 70
     0
 62
     7
  6
Continuous
290
     0
370
    -3
390
F
347
75
  0
LAYER
  5
BA
330
2
100
AcDbSymbolTableRecord
100
AcDbLayerTableRecord
  2
Izmeri
 70
     0
 62
     1
  6
Continuous
370
    25
390
F
347
75
  0
LAYER
  5
BC
330
2
100
AcDbSymbolTableRecord
100
AcDbLayerTableRecord
  2
BORDER
 70
     0
 62
     7
  6
Continuous
370
    -3
390
F
347
75
  0
ENDTAB
  0
TABLE
  2
STYLE
  5
3
330
0
100
AcDbSymbolTable
 70
     1
  0
STYLE
  5
11
330
3
100
AcDbSymbolTableRecord
100
AcDbTextStyleTableRecord
  2
Standard
 70
     0
 40
0.0
 41
1.0
 50
0.0
 71
     0
 42
2.5
  3
arial.ttf
  4

1001
ACAD
1000
Arial
1071
        0
  0
ENDTAB
  0
TABLE
  2
VIEW
  5
6
330
0
100
AcDbSymbolTable
 70
     0
  0
ENDTAB
  0
TABLE
  2
UCS
  5
7
330
0
100
AcDbSymbolTable
 70
     0
  0
ENDTAB
  0
TABLE
  2
APPID
  5
9
330
0
100
AcDbSymbolTable
 70
     3
  0
APPID
  5
12
330
9
100
AcDbSymbolTableRecord
100
AcDbRegAppTableRecord
  2
ACAD
 70
     0
  0
APPID
  5
C0
330
9
100
AcDbSymbolTableRecord
100
AcDbRegAppTableRecord
  2
PLOTTRANSPARENCY
 70
     0
  0
APPID
  5
2FF
330
9
100
AcDbSymbolTableRecord
100
AcDbRegAppTableRecord
  2
ACAD_MLEADERVER
 70
     0
  0
ENDTAB
  0
TABLE
  2
DIMSTYLE
  5
A
330
0
100
AcDbSymbolTable
 70
     1
100
AcDbDimStyleTable
  0
DIMSTYLE
105
27
102
{ACAD_REACTORS
330
E3
330
F1
330
FF
330
10D
330
128
330
136
330
145
330
154
330
174
330
183
330
192
330
1A1
330
1B0
330
1BF
330
1CE
330
1DD
102
}
330
A
100
AcDbSymbolTableRecord
100
AcDbDimStyleTableRecord
  2
ISO-25
 70
     0
 41
2.5
 42
0.625
 43
3.75
 44
1.25
 73
     0
 74
     0
 77
     1
 78
     8
140
2.5
141
2.5
143
0.03937007874016
147
0.625
171
     3
172
     1
178
     0
271
     2
272
     2
274
     3
278
    44
283
     0
284
     8
340
11
  0
ENDTAB
  0
TABLE
  2
BLOCK_RECORD
  5
1
330
0
100
AcDbSymbolTable
 70
    34
  0
BLOCK_RECORD
  5
1F
330
1
100
AcDbSymbolTableRecord
100
AcDbBlockTableRecord
  2
*Model_Space
340
22
 70
     0
280
     1
281
     0
  0
BLOCK_RECORD
  5
1B
330
1
100
AcDbSymbolTableRecord
100
AcDbBlockTableRecord
  2
*Paper_Space
340
1E
 70
     0
280
     1
281
     0
  0
BLOCK_RECORD
  5
23
330
1
100
AcDbSymbolTableRecord
100
AcDbBlockTableRecord
  2
*Paper_Space0
340
26
 70
     0
280
     1
281
     0
  0
BLOCK_RECORD
  5
E5
330
1
100
AcDbSymbolTableRecord
100
AcDbBlockTableRecord
  2
*D2
340
0
 70
     0
280
     1
281
     0
  0
BLOCK_RECORD
  5
F3
330
1
100
AcDbSymbolTableRecord
100
AcDbBlockTableRecord
  2
*D3
340
0
 70
     0
280
     1
281
     0
  0
BLOCK_RECORD
  5
101
330
1
100
AcDbSymbolTableRecord
100
AcDbBlockTableRecord
  2
*D4
340
0
 70
     0
280
     1
281
     0
  0
BLOCK_RECORD
  5
10F
330
1
100
AcDbSymbolTableRecord
100
AcDbBlockTableRecord
  2
*D5
340
0
 70
     0
280
     1
281
     0
  0
BLOCK_RECORD
  5
12A
330
1
100
AcDbSymbolTableRecord
100
AcDbBlockTableRecord
  2
*D6
340
0
 70
     0
280
     1
281
     0
  0
BLOCK_RECORD
  5
139
330
1
100
AcDbSymbolTableRecord
100
AcDbBlockTableRecord
  2
*D7
340
0
 70
     0
280
     1
281
     0
  0
BLOCK_RECORD
  5
148
330
1
100
AcDbSymbolTableRecord
100
AcDbBlockTableRecord
  2
*D8
340
0
 70
     0
280
     1
281
     0
  0
BLOCK_RECORD
  5
156
330
1
100
AcDbSymbolTableRecord
100
AcDbBlockTableRecord
  2
*D9
340
0
 70
     0
280
     1
281
     0
  0
BLOCK_RECORD
  5
177
330
1
100
AcDbSymbolTableRecord
100
AcDbBlockTableRecord
  2
*D10
340
0
 70
     0
280
     1
281
     0
  0
BLOCK_RECORD
  5
186
330
1
100
AcDbSymbolTableRecord
100
AcDbBlockTableRecord
  2
*D11
340
0
 70
     0
280
     1
281
     0
  0
BLOCK_RECORD
  5
195
330
1
100
AcDbSymbolTableRecord
100
AcDbBlockTableRecord
  2
*D12
340
0
 70
     0
280
     1
281
     0
  0
BLOCK_RECORD
  5
1A4
330
1
100
AcDbSymbolTableRecord
100
AcDbBlockTableRecord
  2
*D13
340
0
 70
     0
280
     1
281
     0
  0
BLOCK_RECORD
  5
1B3
330
1
100
AcDbSymbolTableRecord
100
AcDbBlockTableRecord
  2
*D14
340
0
 70
     0
280
     1
281
     0
  0
BLOCK_RECORD
  5
1C2
330
1
100
AcDbSymbolTableRecord
100
AcDbBlockTableRecord
  2
*D15
340
0
 70
     0
280
     1
281
     0
  0
BLOCK_RECORD
  5
1D1
330
1
100
AcDbSymbolTableRecord
100
AcDbBlockTableRecord
  2
*D16
340
0
 70
     0
280
     1
281
     0
  0
BLOCK_RECORD
  5
1E0
330
1
100
AcDbSymbolTableRecord
100
AcDbBlockTableRecord
  2
*D17
340
0
 70
     0
280
     1
281
     0
  0
BLOCK_RECORD
  5
23D
330
1
100
AcDbSymbolTableRecord
100
AcDbBlockTableRecord
  2
*D18
340
0
 70
     0
280
     1
281
     0
  0
BLOCK_RECORD
  5
249
330
1
100
AcDbSymbolTableRecord
100
AcDbBlockTableRecord
  2
*D19
340
0
 70
     0
280
     1
281
     0
  0
BLOCK_RECORD
  5
255
330
1
100
AcDbSymbolTableRecord
100
AcDbBlockTableRecord
  2
*D20
340
0
 70
     0
280
     1
281
     0
  0
BLOCK_RECORD
  5
261
330
1
100
AcDbSymbolTableRecord
100
AcDbBlockTableRecord
  2
*D21
340
0
 70
     0
280
     1
281
     0
  0
BLOCK_RECORD
  5
26D
330
1
100
AcDbSymbolTableRecord
100
AcDbBlockTableRecord
  2
*D22
340
0
 70
     0
280
     1
281
     0
  0
BLOCK_RECORD
  5
279
330
1
100
AcDbSymbolTableRecord
100
AcDbBlockTableRecord
  2
*D23
340
0
 70
     0
280
     1
281
     0
  0
BLOCK_RECORD
  5
285
330
1
100
AcDbSymbolTableRecord
100
AcDbBlockTableRecord
  2
*D24
340
0
 70
     0
280
     1
281
     0
  0
BLOCK_RECORD
  5
291
330
1
100
AcDbSymbolTableRecord
100
AcDbBlockTableRecord
  2
*D25
340
0
 70
     0
280
     1
281
     0
  0
BLOCK_RECORD
  5
29D
330
1
100
AcDbSymbolTableRecord
100
AcDbBlockTableRecord
  2
*D26
340
0
 70
     0
280
     1
281
     0
  0
BLOCK_RECORD
  5
2A9
330
1
100
AcDbSymbolTableRecord
100
AcDbBlockTableRecord
  2
*D27
340
0
 70
     0
280
     1
281
     0
  0
BLOCK_RECORD
  5
2B5
330
1
100
AcDbSymbolTableRecord
100
AcDbBlockTableRecord
  2
*D28
340
0
 70
     0
280
     1
281
     0
  0
BLOCK_RECORD
  5
2C1
330
1
100
AcDbSymbolTableRecord
100
AcDbBlockTableRecord
  2
*D29
340
0
 70
     0
280
     1
281
     0
  0
BLOCK_RECORD
  5
2CD
330
1
100
AcDbSymbolTableRecord
100
AcDbBlockTableRecord
  2
*D30
340
0
 70
     0
280
     1
281
     0
  0
BLOCK_RECORD
  5
2D9
330
1
100
AcDbSymbolTableRecord
100
AcDbBlockTableRecord
  2
*D31
340
0
 70
     0
280
     1
281
     0
  0
BLOCK_RECORD
  5
2E5
330
1
100
AcDbSymbolTableRecord
100
AcDbBlockTableRecord
  2
*D32
340
0
 70
     0
280
     1
281
     0
  0
BLOCK_RECORD
  5
2F1
330
1
100
AcDbSymbolTableRecord
100
AcDbBlockTableRecord
  2
*D33
340
0
 70
     0
280
     1
281
     0
  0
ENDTAB
  0
ENDSEC
  0
SECTION
  2
BLOCKS
  0
BLOCK
  5
20
330
1F
100
AcDbEntity
  8
0
100
AcDbBlockBegin
  2
*Model_Space
 70
     0
 10
0.0
 20
0.0
 30
0.0
  3
*Model_Space
  1
*Model_Space
  0
ENDBLK
  5
21
330
1F
100
AcDbEntity
  8
0
100
AcDbBlockEnd
  0
BLOCK
  5
1C
330
1B
100
AcDbEntity
 67
     1
  8
0
100
AcDbBlockBegin
  2
*Paper_Space
 70
     0
 10
0.0
 20
0.0
 30
0.0
  3
*Paper_Space
  1
*Paper_Space
  0
ENDBLK
  5
1D
330
1B
100
AcDbEntity
 67
     1
  8
0
100
AcDbBlockEnd
  0
BLOCK
  5
24
330
23
100
AcDbEntity
  8
0
100
AcDbBlockBegin
  2
*Paper_Space0
 70
     0
 10
0.0
 20
0.0
 30
0.0
  3
*Paper_Space0
  1
*Paper_Space0
  0
ENDBLK
  5
25
330
23
100
AcDbEntity
  8
0
100
AcDbBlockEnd
  0
BLOCK
  5
E6
330
E5
100
AcDbEntity
  8
0
100
AcDbBlockBegin
  2
*D2
 70
     1
 10
0.0
 20
0.0
 30
0.0
  3
*D2
  1
*D2
  0
LINE
  5
E7
330
E5
100
AcDbEntity
  8
Izmeri
 62
     0
370
    -2
100
AcDbLine
 10
18.02030258014375
 20
94.32198559800244
 30
0.0
 11
1.927864938608456
 21
94.32198559800244
 31
0.0
  0
LINE
  5
E8
330
E5
100
AcDbEntity
  8
Izmeri
 62
     0
370
    -2
100
AcDbLine
 10
18.02030258014375
 20
14.32198559800244
 30
0.0
 11
1.927864938608451
 21
14.32198559800244
 31
0.0
  0
LINE
  5
E9
330
E5
100
AcDbEntity
  8
Izmeri
 62
     0
370
    -2
100
AcDbLine
 10
3.177864938608456
 20
91.82198559800244
 30
0.0
 11
3.177864938608451
 21
16.82198559800244
 31
0.0
  0
SOLID
  5
EA
330
E5
100
AcDbEntity
  8
Izmeri
 62
     0
100
AcDbTrace
 10
3.594531605275122
 20
91.82198559800244
 30
0.0
 11
2.761198271941789
 21
91.82198559800244
 31
0.0
 12
3.177864938608456
 22
94.32198559800244
 32
0.0
 13
3.177864938608456
 23
94.32198559800244
 33
0.0
  0
SOLID
  5
EB
330
E5
100
AcDbEntity
  8
Izmeri
 62
     0
100
AcDbTrace
 10
2.761198271941784
 20
16.82198559800244
 30
0.0
 11
3.594531605275118
 21
16.82198559800244
 31
0.0
 12
3.177864938608451
 22
14.32198559800244
 32
0.0
 13
3.177864938608451
 23
14.32198559800244
 33
0.0
  0
MTEXT
  5
EC
330
E5
100
AcDbEntity
  8
Izmeri
 62
     0
100
AcDbMText
 10
1.276432469304221
 20
54.32198559800244
 30
0.0
 40
2.5
 41
0.0
 46
0.0
 71
     5
 72
     1
  1
80
 11
6.106226635438361E-17
 21
1.0
 31
0.0
 73
     1
 44
1.0
  0
POINT
  5
ED
330
E5
100
AcDbEntity
  8
Defpoints
 62
     0
100
AcDbPoint
 10
18.64530258014375
 20
94.32198559800244
 30
0.0
  0
POINT
  5
EE
330
E5
100
AcDbEntity
  8
Defpoints
 62
     0
100
AcDbPoint
 10
18.64530258014375
 20
14.32198559800244
 30
0.0
  0
POINT
  5
EF
330
E5
100
AcDbEntity
  8
Defpoints
 62
     0
100
AcDbPoint
 10
3.177864938608451
 20
14.32198559800244
 30
0.0
  0
ENDBLK
  5
F0
330
E5
100
AcDbEntity
  8
0
100
AcDbBlockEnd
  0
BLOCK
  5
F4
330
F3
100
AcDbEntity
  8
0
100
AcDbBlockBegin
  2
*D3
 70
     1
 10
0.0
 20
0.0
 30
0.0
  3
*D3
  1
*D3
  0
LINE
  5
F5
330
F3
100
AcDbEntity
  8
Izmeri
 62
     0
370
    -2
100
AcDbLine
 10
18.02030258014375
 20
94.32198559800244
 30
0.0
 11
7.439651279493804
 21
94.32198559800244
 31
0.0
  0
LINE
  5
F6
330
F3
100
AcDbEntity
  8
Izmeri
 62
     0
370
    -2
100
AcDbLine
 10
18.02030258014375
 20
74.32198559797658
 30
0.0
 11
7.439651279493802
 21
74.32198559797658
 31
0.0
  0
LINE
  5
F7
330
F3
100
AcDbEntity
  8
Izmeri
 62
     0
370
    -2
100
AcDbLine
 10
8.689651279493804
 20
91.82198559800244
 30
0.0
 11
8.689651279493802
 21
76.82198559797658
 31
0.0
  0
SOLID
  5
F8
330
F3
100
AcDbEntity
  8
Izmeri
 62
     0
100
AcDbTrace
 10
9.10631794616047
 20
91.82198559800244
 30
0.0
 11
8.272984612827138
 21
91.82198559800244
 31
0.0
 12
8.689651279493804
 22
94.32198559800244
 32
0.0
 13
8.689651279493804
 23
94.32198559800244
 33
0.0
  0
SOLID
  5
F9
330
F3
100
AcDbEntity
  8
Izmeri
 62
     0
100
AcDbTrace
 10
8.272984612827136
 20
76.82198559797658
 30
0.0
 11
9.106317946160468
 21
76.82198559797658
 31
0.0
 12
8.689651279493802
 22
74.32198559797658
 32
0.0
 13
8.689651279493802
 23
74.32198559797658
 33
0.0
  0
MTEXT
  5
FA
330
F3
100
AcDbEntity
  8
Izmeri
 62
     0
100
AcDbMText
 10
6.788218810189576
 20
84.32198559798951
 30
0.0
 40
2.5
 41
0.0
 46
0.0
 71
     5
 72
     1
  1
20
 11
8.881784196989766E-17
 21
1.0
 31
0.0
 73
     1
 44
1.0
  0
POINT
  5
FB
330
F3
100
AcDbEntity
  8
Defpoints
 62
     0
100
AcDbPoint
 10
18.64530258014375
 20
94.32198559800244
 30
0.0
  0
POINT
  5
FC
330
F3
100
AcDbEntity
  8
Defpoints
 62
     0
100
AcDbPoint
 10
18.64530258014375
 20
74.32198559797658
 30
0.0
  0
POINT
  5
FD
330
F3
100
AcDbEntity
  8
Defpoints
 62
     0
100
AcDbPoint
 10
8.689651279493802
 20
74.32198559797658
 30
0.0
  0
ENDBLK
  5
FE
330
F3
100
AcDbEntity
  8
0
100
AcDbBlockEnd
  0
BLOCK
  5
102
330
101
100
AcDbEntity
  8
0
100
AcDbBlockBegin
  2
*D4
 70
     1
 10
0.0
 20
0.0
 30
0.0
  3
*D4
  1
*D4
  0
LINE
  5
103
330
101
100
AcDbEntity
  8
Izmeri
 62
     0
370
    -2
100
AcDbLine
 10
18.02030258014375
 20
74.32198559797658
 30
0.0
 11
7.439651279493804
 21
74.32198559797658
 31
0.0
  0
LINE
  5
104
330
101
100
AcDbEntity
  8
Izmeri
 62
     0
370
    -2
100
AcDbLine
 10
18.02030258014454
 20
34.32198559802131
 30
0.0
 11
7.439651279493802
 21
34.32198559802131
 31
0.0
  0
LINE
  5
105
330
101
100
AcDbEntity
  8
Izmeri
 62
     0
370
    -2
100
AcDbLine
 10
8.689651279493804
 20
71.82198559797658
 30
0.0
 11
8.689651279493802
 21
36.82198559802131
 31
0.0
  0
SOLID
  5
106
330
101
100
AcDbEntity
  8
Izmeri
 62
     0
100
AcDbTrace
 10
9.10631794616047
 20
71.82198559797658
 30
0.0
 11
8.272984612827138
 21
71.82198559797658
 31
0.0
 12
8.689651279493804
 22
74.32198559797658
 32
0.0
 13
8.689651279493804
 23
74.32198559797658
 33
0.0
  0
SOLID
  5
107
330
101
100
AcDbEntity
  8
Izmeri
 62
     0
100
AcDbTrace
 10
8.272984612827136
 20
36.82198559802131
 30
0.0
 11
9.106317946160468
 21
36.82198559802131
 31
0.0
 12
8.689651279493802
 22
34.32198559802131
 32
0.0
 13
8.689651279493802
 23
34.32198559802131
 33
0.0
  0
MTEXT
  5
108
330
101
100
AcDbEntity
  8
Izmeri
 62
     0
100
AcDbMText
 10
6.788218810189569
 20
54.32198559799895
 30
0.0
 40
2.5
 41
0.0
 46
0.0
 71
     5
 72
     1
  1
40
 11
4.440892098505593E-17
 21
1.0
 31
0.0
 73
     1
 44
1.0
  0
POINT
  5
109
330
101
100
AcDbEntity
  8
Defpoints
 62
     0
100
AcDbPoint
 10
18.64530258014375
 20
74.32198559797658
 30
0.0
  0
POINT
  5
10A
330
101
100
AcDbEntity
  8
Defpoints
 62
     0
100
AcDbPoint
 10
18.64530258014454
 20
34.32198559802131
 30
0.0
  0
POINT
  5
10B
330
101
100
AcDbEntity
  8
Defpoints
 62
     0
100
AcDbPoint
 10
8.689651279493802
 20
34.32198559802131
 30
0.0
  0
ENDBLK
  5
10C
330
101
100
AcDbEntity
  8
0
100
AcDbBlockEnd
  0
BLOCK
  5
110
330
10F
100
AcDbEntity
  8
0
100
AcDbBlockBegin
  2
*D5
 70
     1
 10
0.0
 20
0.0
 30
0.0
  3
*D5
  1
*D5
  0
LINE
  5
111
330
10F
100
AcDbEntity
  8
Izmeri
 62
     0
370
    -2
100
AcDbLine
 10
18.02030258014454
 20
34.32198559802131
 30
0.0
 11
7.439651279493917
 21
34.32198559802131
 31
0.0
  0
LINE
  5
112
330
10F
100
AcDbEntity
  8
Izmeri
 62
     0
370
    -2
100
AcDbLine
 10
18.02030258014386
 20
14.32198559800244
 30
0.0
 11
7.439651279493916
 21
14.32198559800244
 31
0.0
  0
LINE
  5
113
330
10F
100
AcDbEntity
  8
Izmeri
 62
     0
370
    -2
100
AcDbLine
 10
8.689651279493917
 20
31.82198559802131
 30
0.0
 11
8.689651279493916
 21
16.82198559800244
 31
0.0
  0
SOLID
  5
114
330
10F
100
AcDbEntity
  8
Izmeri
 62
     0
100
AcDbTrace
 10
9.106317946160583
 20
31.82198559802131
 30
0.0
 11
8.272984612827251
 21
31.82198559802131
 31
0.0
 12
8.689651279493917
 22
34.32198559802131
 32
0.0
 13
8.689651279493917
 23
34.32198559802131
 33
0.0
  0
SOLID
  5
115
330
10F
100
AcDbEntity
  8
Izmeri
 62
     0
100
AcDbTrace
 10
8.27298461282725
 20
16.82198559800244
 30
0.0
 11
9.106317946160582
 21
16.82198559800244
 31
0.0
 12
8.689651279493916
 22
14.32198559800244
 32
0.0
 13
8.689651279493916
 23
14.32198559800244
 33
0.0
  0
MTEXT
  5
116
330
10F
100
AcDbEntity
  8
Izmeri
 62
     0
100
AcDbMText
 10
6.788218810189687
 20
24.32198559801188
 30
0.0
 40
2.5
 41
0.0
 46
0.0
 71
     5
 72
     1
  1
20
 11
8.881784196992871E-17
 21
1.0
 31
0.0
 73
     1
 44
1.0
  0
POINT
  5
117
330
10F
100
AcDbEntity
  8
Defpoints
 62
     0
100
AcDbPoint
 10
18.64530258014454
 20
34.32198559802131
 30
0.0
  0
POINT
  5
118
330
10F
100
AcDbEntity
  8
Defpoints
 62
     0
100
AcDbPoint
 10
18.64530258014386
 20
14.32198559800244
 30
0.0
  0
POINT
  5
119
330
10F
100
AcDbEntity
  8
Defpoints
 62
     0
100
AcDbPoint
 10
8.689651279493916
 20
14.32198559800244
 30
0.0
  0
ENDBLK
  5
11A
330
10F
100
AcDbEntity
  8
0
100
AcDbBlockEnd
  0
BLOCK
  5
12B
330
12A
100
AcDbEntity
  8
0
100
AcDbBlockBegin
  2
*D6
 70
     1
 10
0.0
 20
0.0
 30
0.0
  3
*D6
  1
*D6
  0
LINE
  5
12C
330
12A
100
AcDbEntity
  8
Izmeri
 62
     0
370
    -2
100
AcDbLine
 10
13.64530258014375
 20
84.94698559798948
 30
0.0
 11
13.64530258014375
 21
107.6003980239072
 31
0.0
  0
LINE
  5
12D
330
12A
100
AcDbEntity
  8
Izmeri
 62
     0
370
    -2
100
AcDbLine
 10
178.6453025801437
 20
84.94698559799755
 30
0.0
 11
178.6453025801437
 21
107.6003980239072
 31
0.0
  0
LINE
  5
12E
330
12A
100
AcDbEntity
  8
Izmeri
 62
     0
370
    -2
100
AcDbLine
 10
16.14530258014375
 20
106.3503980239072
 30
0.0
 11
176.1453025801437
 21
106.3503980239072
 31
0.0
  0
SOLID
  5
12F
330
12A
100
AcDbEntity
  8
Izmeri
 62
     0
100
AcDbTrace
 10
16.14530258014375
 20
106.7670646905739
 30
0.0
 11
16.14530258014375
 21
105.9337313572405
 31
0.0
 12
13.64530258014375
 22
106.3503980239072
 32
0.0
 13
13.64530258014375
 23
106.3503980239072
 33
0.0
  0
SOLID
  5
130
330
12A
100
AcDbEntity
  8
Izmeri
 62
     0
100
AcDbTrace
 10
176.1453025801437
 20
105.9337313572405
 30
0.0
 11
176.1453025801437
 21
106.7670646905739
 31
0.0
 12
178.6453025801437
 22
106.3503980239072
 32
0.0
 13
178.6453025801437
 23
106.3503980239072
 33
0.0
  0
MTEXT
  5
131
330
12A
100
AcDbEntity
  8
Izmeri
 62
     0
100
AcDbMText
 10
96.14530258014375
 20
108.2518304932114
 30
0.0
 40
2.5
 41
0.0
 46
0.0
 71
     5
 72
     1
  1
165
 73
     1
 44
1.0
  0
POINT
  5
132
330
12A
100
AcDbEntity
  8
Defpoints
 62
     0
100
AcDbPoint
 10
13.64530258014375
 20
84.32198559798948
 30
0.0
  0
POINT
  5
133
330
12A
100
AcDbEntity
  8
Defpoints
 62
     0
100
AcDbPoint
 10
178.6453025801437
 20
84.32198559799755
 30
0.0
  0
POINT
  5
134
330
12A
100
AcDbEntity
  8
Defpoints
 62
     0
100
AcDbPoint
 10
178.6453025801437
 20
106.3503980239072
 30
0.0
  0
ENDBLK
  5
135
330
12A
100
AcDbEntity
  8
0
100
AcDbBlockEnd
  0
BLOCK
  5
13A
330
139
100
AcDbEntity
  8
0
100
AcDbBlockBegin
  2
*D7
 70
     1
 10
0.0
 20
0.0
 30
0.0
  3
*D7
  1
*D7
  0
LINE
  5
13B
330
139
100
AcDbEntity
  8
Izmeri
 62
     0
370
    -2
100
AcDbLine
 10
63.64530258014375
 20
94.94698559800244
 30
0.0
 11
63.64530258014375
 21
100.9439149664414
 31
0.0
  0
LINE
  5
13C
330
139
100
AcDbEntity
  8
Izmeri
 62
     0
370
    -2
100
AcDbLine
 10
13.64530258014375
 20
85.57198559798948
 30
0.0
 11
13.64530258014375
 21
100.9439149664414
 31
0.0
  0
LINE
  5
13D
330
139
100
AcDbEntity
  8
Izmeri
 62
     0
370
    -2
100
AcDbLine
 10
61.14530258014375
 20
99.69391496644144
 30
0.0
 11
16.14530258014375
 21
99.69391496644144
 31
0.0
  0
SOLID
  5
13E
330
139
100
AcDbEntity
  8
Izmeri
 62
     0
100
AcDbTrace
 10
61.14530258014375
 20
99.27724829977477
 30
0.0
 11
61.14530258014375
 21
100.1105816331081
 31
0.0
 12
63.64530258014375
 22
99.69391496644144
 32
0.0
 13
63.64530258014375
 23
99.69391496644144
 33
0.0
  0
SOLID
  5
13F
330
139
100
AcDbEntity
  8
Izmeri
 62
     0
100
AcDbTrace
 10
16.14530258014375
 20
100.1105816331081
 30
0.0
 11
16.14530258014375
 21
99.27724829977477
 31
0.0
 12
13.64530258014375
 22
99.69391496644144
 32
0.0
 13
13.64530258014375
 23
99.69391496644144
 33
0.0
  0
MTEXT
  5
140
330
139
100
AcDbEntity
  8
Izmeri
 62
     0
100
AcDbMText
 10
38.64530258014375
 20
101.5953474357457
 30
0.0
 40
2.5
 41
0.0
 46
0.0
 71
     5
 72
     1
  1
50
 73
     1
 44
1.0
  0
POINT
  5
141
330
139
100
AcDbEntity
  8
Defpoints
 62
     0
100
AcDbPoint
 10
63.64530258014375
 20
94.32198559800244
 30
0.0
  0
POINT
  5
142
330
139
100
AcDbEntity
  8
Defpoints
 62
     0
100
AcDbPoint
 10
13.64530258014375
 20
84.94698559798948
 30
0.0
  0
POINT
  5
143
330
139
100
AcDbEntity
  8
Defpoints
 62
     0
100
AcDbPoint
 10
13.64530258014375
 20
99.69391496644144
 30
0.0
  0
ENDBLK
  5
144
330
139
100
AcDbEntity
  8
0
100
AcDbBlockEnd
  0
BLOCK
  5
149
330
148
100
AcDbEntity
  8
0
100
AcDbBlockBegin
  2
*D8
 70
     1
 10
0.0
 20
0.0
 30
0.0
  3
*D8
  1
*D8
  0
LINE
  5
14A
330
148
100
AcDbEntity
  8
Izmeri
 62
     0
370
    -2
100
AcDbLine
 10
63.64530258014375
 20
94.94698559800244
 30
0.0
 11
63.64530258014375
 21
100.9439149664414
 31
0.0
  0
LINE
  5
14B
330
148
100
AcDbEntity
  8
Izmeri
 62
     0
370
    -2
100
AcDbLine
 10
128.6453025801437
 20
94.94698559800244
 30
0.0
 11
128.6453025801437
 21
100.9439149664414
 31
0.0
  0
LINE
  5
14C
330
148
100
AcDbEntity
  8
Izmeri
 62
     0
370
    -2
100
AcDbLine
 10
66.14530258014375
 20
99.69391496644144
 30
0.0
 11
126.1453025801437
 21
99.69391496644144
 31
0.0
  0
SOLID
  5
14D
330
148
100
AcDbEntity
  8
Izmeri
 62
     0
100
AcDbTrace
 10
66.14530258014375
 20
100.1105816331081
 30
0.0
 11
66.14530258014375
 21
99.27724829977477
 31
0.0
 12
63.64530258014375
 22
99.69391496644144
 32
0.0
 13
63.64530258014375
 23
99.69391496644144
 33
0.0
  0
SOLID
  5
14E
330
148
100
AcDbEntity
  8
Izmeri
 62
     0
100
AcDbTrace
 10
126.1453025801437
 20
99.27724829977477
 30
0.0
 11
126.1453025801437
 21
100.1105816331081
 31
0.0
 12
128.6453025801437
 22
99.69391496644144
 32
0.0
 13
128.6453025801437
 23
99.69391496644144
 33
0.0
  0
MTEXT
  5
14F
330
148
100
AcDbEntity
  8
Izmeri
 62
     0
100
AcDbMText
 10
96.14530258014375
 20
101.5953474357457
 30
0.0
 40
2.5
 41
0.0
 46
0.0
 71
     5
 72
     1
  1
65
 73
     1
 44
1.0
  0
POINT
  5
150
330
148
100
AcDbEntity
  8
Defpoints
 62
     0
100
AcDbPoint
 10
63.64530258014375
 20
94.32198559800244
 30
0.0
  0
POINT
  5
151
330
148
100
AcDbEntity
  8
Defpoints
 62
     0
100
AcDbPoint
 10
128.6453025801437
 20
94.32198559800244
 30
0.0
  0
POINT
  5
152
330
148
100
AcDbEntity
  8
Defpoints
 62
     0
100
AcDbPoint
 10
128.6453025801437
 20
99.69391496644144
 30
0.0
  0
ENDBLK
  5
153
330
148
100
AcDbEntity
  8
0
100
AcDbBlockEnd
  0
BLOCK
  5
157
330
156
100
AcDbEntity
  8
0
100
AcDbBlockBegin
  2
*D9
 70
     1
 10
0.0
 20
0.0
 30
0.0
  3
*D9
  1
*D9
  0
LINE
  5
158
330
156
100
AcDbEntity
  8
Izmeri
 62
     0
370
    -2
100
AcDbLine
 10
128.6453025801437
 20
94.94698559800244
 30
0.0
 11
128.6453025801437
 21
100.9439149664414
 31
0.0
  0
LINE
  5
159
330
156
100
AcDbEntity
  8
Izmeri
 62
     0
370
    -2
100
AcDbLine
 10
178.6453025801437
 20
85.57198559799755
 30
0.0
 11
178.6453025801437
 21
100.9439149664414
 31
0.0
  0
LINE
  5
15A
330
156
100
AcDbEntity
  8
Izmeri
 62
     0
370
    -2
100
AcDbLine
 10
131.1453025801437
 20
99.69391496644144
 30
0.0
 11
176.1453025801437
 21
99.69391496644144
 31
0.0
  0
SOLID
  5
15B
330
156
100
AcDbEntity
  8
Izmeri
 62
     0
100
AcDbTrace
 10
131.1453025801437
 20
100.1105816331081
 30
0.0
 11
131.1453025801437
 21
99.27724829977477
 31
0.0
 12
128.6453025801437
 22
99.69391496644144
 32
0.0
 13
128.6453025801437
 23
99.69391496644144
 33
0.0
  0
SOLID
  5
15C
330
156
100
AcDbEntity
  8
Izmeri
 62
     0
100
AcDbTrace
 10
176.1453025801437
 20
99.27724829977477
 30
0.0
 11
176.1453025801437
 21
100.1105816331081
 31
0.0
 12
178.6453025801437
 22
99.69391496644144
 32
0.0
 13
178.6453025801437
 23
99.69391496644144
 33
0.0
  0
MTEXT
  5
15D
330
156
100
AcDbEntity
  8
Izmeri
 62
     0
100
AcDbMText
 10
153.6453025801437
 20
101.5953474357457
 30
0.0
 40
2.5
 41
0.0
 46
0.0
 71
     5
 72
     1
  1
50
 73
     1
 44
1.0
  0
POINT
  5
15E
330
156
100
AcDbEntity
  8
Defpoints
 62
     0
100
AcDbPoint
 10
128.6453025801437
 20
94.32198559800244
 30
0.0
  0
POINT
  5
15F
330
156
100
AcDbEntity
  8
Defpoints
 62
     0
100
AcDbPoint
 10
178.6453025801437
 20
84.94698559799755
 30
0.0
  0
POINT
  5
160
330
156
100
AcDbEntity
  8
Defpoints
 62
     0
100
AcDbPoint
 10
178.6453025801437
 20
99.69391496644144
 30
0.0
  0
ENDBLK
  5
161
330
156
100
AcDbEntity
  8
0
100
AcDbBlockEnd
  0
BLOCK
  5
178
330
177
100
AcDbEntity
  8
0
100
AcDbBlockBegin
  2
*D10
 70
     1
 10
0.0
 20
0.0
 30
0.0
  3
*D10
  1
*D10
  0
LINE
  5
179
330
177
100
AcDbEntity
  8
Izmeri
 62
     0
370
    -2
100
AcDbLine
 10
21.14530258014375
 20
21.19698559800244
 30
0.0
 11
21.14530258014375
 21
0.0
 31
0.0
  0
LINE
  5
17A
330
177
100
AcDbEntity
  8
Izmeri
 62
     0
370
    -2
100
AcDbLine
 10
54.89530258014375
 20
21.19698559800244
 30
0.0
 11
54.89530258014375
 21
0.0
 31
0.0
  0
LINE
  5
17B
330
177
100
AcDbEntity
  8
Izmeri
 62
     0
370
    -2
100
AcDbLine
 10
23.64530258014375
 20
1.25
 30
0.0
 11
52.39530258014375
 21
1.25
 31
0.0
  0
SOLID
  5
17C
330
177
100
AcDbEntity
  8
Izmeri
 62
     0
100
AcDbTrace
 10
23.64530258014375
 20
1.666666666666667
 30
0.0
 11
23.64530258014375
 21
0.8333333333333333
 31
0.0
 12
21.14530258014375
 22
1.25
 32
0.0
 13
21.14530258014375
 23
1.25
 33
0.0
  0
SOLID
  5
17D
330
177
100
AcDbEntity
  8
Izmeri
 62
     0
100
AcDbTrace
 10
52.39530258014375
 20
0.8333333333333333
 30
0.0
 11
52.39530258014375
 21
1.666666666666667
 31
0.0
 12
54.89530258014375
 22
1.25
 32
0.0
 13
54.89530258014375
 23
1.25
 33
0.0
  0
MTEXT
  5
17E
330
177
100
AcDbEntity
  8
Izmeri
 62
     0
100
AcDbMText
 10
38.02030258014375
 20
3.377387448840382
 30
0.0
 40
2.5
 41
0.0
 46
0.0
 71
     5
 72
     1
  1
33,75
 73
     1
 44
1.0
  0
POINT
  5
17F
330
177
100
AcDbEntity
  8
Defpoints
 62
     0
100
AcDbPoint
 10
21.14530258014375
 20
21.82198559800244
 30
0.0
  0
POINT
  5
180
330
177
100
AcDbEntity
  8
Defpoints
 62
     0
100
AcDbPoint
 10
54.89530258014375
 20
21.82198559800244
 30
0.0
  0
POINT
  5
181
330
177
100
AcDbEntity
  8
Defpoints
 62
     0
100
AcDbPoint
 10
54.89530258014375
 20
1.25
 30
0.0
  0
ENDBLK
  5
182
330
177
100
AcDbEntity
  8
0
100
AcDbBlockEnd
  0
BLOCK
  5
187
330
186
100
AcDbEntity
  8
0
100
AcDbBlockBegin
  2
*D11
 70
     1
 10
0.0
 20
0.0
 30
0.0
  3
*D11
  1
*D11
  0
LINE
  5
188
330
186
100
AcDbEntity
  8
Izmeri
 62
     0
370
    -2
100
AcDbLine
 10
21.14530258014375
 20
21.19698559800244
 30
0.0
 11
21.14530258014375
 21
0.0
 31
0.0
  0
LINE
  5
189
330
186
100
AcDbEntity
  8
Izmeri
 62
     0
370
    -2
100
AcDbLine
 10
13.64530258014375
 20
21.19698559800244
 30
0.0
 11
13.64530258014375
 21
0.0
 31
0.0
  0
LINE
  5
18A
330
186
100
AcDbEntity
  8
Izmeri
 62
     0
370
    -2
100
AcDbLine
 10
18.64530258014375
 20
1.25
 30
0.0
 11
16.14530258014375
 21
1.25
 31
0.0
  0
SOLID
  5
18B
330
186
100
AcDbEntity
  8
Izmeri
 62
     0
100
AcDbTrace
 10
18.64530258014375
 20
0.8333333333333333
 30
0.0
 11
18.64530258014375
 21
1.666666666666667
 31
0.0
 12
21.14530258014375
 22
1.25
 32
0.0
 13
21.14530258014375
 23
1.25
 33
0.0
  0
SOLID
  5
18C
330
186
100
AcDbEntity
  8
Izmeri
 62
     0
100
AcDbTrace
 10
16.14530258014375
 20
1.666666666666667
 30
0.0
 11
16.14530258014375
 21
0.8333333333333333
 31
0.0
 12
13.64530258014375
 22
1.25
 32
0.0
 13
13.64530258014375
 23
1.25
 33
0.0
  0
MTEXT
  5
18D
330
186
100
AcDbEntity
  8
Izmeri
 62
     0
100
AcDbMText
 10
17.39530258014375
 20
3.372271487039563
 30
0.0
 40
2.5
 41
0.0
 46
0.0
 71
     5
 72
     1
  1
7,5
 73
     1
 44
1.0
  0
POINT
  5
18E
330
186
100
AcDbEntity
  8
Defpoints
 62
     0
100
AcDbPoint
 10
21.14530258014375
 20
21.82198559800244
 30
0.0
  0
POINT
  5
18F
330
186
100
AcDbEntity
  8
Defpoints
 62
     0
100
AcDbPoint
 10
13.64530258014375
 20
21.82198559800244
 30
0.0
  0
POINT
  5
190
330
186
100
AcDbEntity
  8
Defpoints
 62
     0
100
AcDbPoint
 10
13.64530258014375
 20
1.25
 30
0.0
  0
ENDBLK
  5
191
330
186
100
AcDbEntity
  8
0
100
AcDbBlockEnd
  0
BLOCK
  5
196
330
195
100
AcDbEntity
  8
0
100
AcDbBlockBegin
  2
*D12
 70
     1
 10
0.0
 20
0.0
 30
0.0
  3
*D12
  1
*D12
  0
LINE
  5
197
330
195
100
AcDbEntity
  8
Izmeri
 62
     0
370
    -2
100
AcDbLine
 10
54.89530258014375
 20
21.19698559800244
 30
0.0
 11
54.89530258014375
 21
0.0
 31
0.0
  0
LINE
  5
198
330
195
100
AcDbEntity
  8
Izmeri
 62
     0
370
    -2
100
AcDbLine
 10
81.14530258014375
 20
18.69698559800244
 30
0.0
 11
81.14530258014375
 21
0.0
 31
0.0
  0
LINE
  5
199
330
195
100
AcDbEntity
  8
Izmeri
 62
     0
370
    -2
100
AcDbLine
 10
57.39530258014375
 20
1.25
 30
0.0
 11
78.64530258014375
 21
1.25
 31
0.0
  0
SOLID
  5
19A
330
195
100
AcDbEntity
  8
Izmeri
 62
     0
100
AcDbTrace
 10
57.39530258014375
 20
1.666666666666667
 30
0.0
 11
57.39530258014375
 21
0.8333333333333333
 31
0.0
 12
54.89530258014375
 22
1.25
 32
0.0
 13
54.89530258014375
 23
1.25
 33
0.0
  0
SOLID
  5
19B
330
195
100
AcDbEntity
  8
Izmeri
 62
     0
100
AcDbTrace
 10
78.64530258014375
 20
0.8333333333333333
 30
0.0
 11
78.64530258014375
 21
1.666666666666667
 31
0.0
 12
81.14530258014375
 22
1.25
 32
0.0
 13
81.14530258014375
 23
1.25
 33
0.0
  0
MTEXT
  5
19C
330
195
100
AcDbEntity
  8
Izmeri
 62
     0
100
AcDbMText
 10
68.02030258014375
 20
3.377387448840382
 30
0.0
 40
2.5
 41
0.0
 46
0.0
 71
     5
 72
     1
  1
26,25
 73
     1
 44
1.0
  0
POINT
  5
19D
330
195
100
AcDbEntity
  8
Defpoints
 62
     0
100
AcDbPoint
 10
54.89530258014375
 20
21.82198559800244
 30
0.0
  0
POINT
  5
19E
330
195
100
AcDbEntity
  8
Defpoints
 62
     0
100
AcDbPoint
 10
81.14530258014375
 20
19.32198559800244
 30
0.0
  0
POINT
  5
19F
330
195
100
AcDbEntity
  8
Defpoints
 62
     0
100
AcDbPoint
 10
81.14530258014375
 20
1.25
 30
0.0
  0
ENDBLK
  5
1A0
330
195
100
AcDbEntity
  8
0
100
AcDbBlockEnd
  0
BLOCK
  5
1A5
330
1A4
100
AcDbEntity
  8
0
100
AcDbBlockBegin
  2
*D13
 70
     1
 10
0.0
 20
0.0
 30
0.0
  3
*D13
  1
*D13
  0
LINE
  5
1A6
330
1A4
100
AcDbEntity
  8
Izmeri
 62
     0
370
    -2
100
AcDbLine
 10
81.14530258014375
 20
18.69698559800244
 30
0.0
 11
81.14530258014375
 21
0.0
 31
0.0
  0
LINE
  5
1A7
330
1A4
100
AcDbEntity
  8
Izmeri
 62
     0
370
    -2
100
AcDbLine
 10
96.14530258014375
 20
18.69698559800244
 30
0.0
 11
96.14530258014375
 21
0.0
 31
0.0
  0
LINE
  5
1A8
330
1A4
100
AcDbEntity
  8
Izmeri
 62
     0
370
    -2
100
AcDbLine
 10
83.64530258014375
 20
1.25
 30
0.0
 11
93.64530258014375
 21
1.25
 31
0.0
  0
SOLID
  5
1A9
330
1A4
100
AcDbEntity
  8
Izmeri
 62
     0
100
AcDbTrace
 10
83.64530258014375
 20
1.666666666666667
 30
0.0
 11
83.64530258014375
 21
0.8333333333333333
 31
0.0
 12
81.14530258014375
 22
1.25
 32
0.0
 13
81.14530258014375
 23
1.25
 33
0.0
  0
SOLID
  5
1AA
330
1A4
100
AcDbEntity
  8
Izmeri
 62
     0
100
AcDbTrace
 10
93.64530258014375
 20
0.8333333333333333
 30
0.0
 11
93.64530258014375
 21
1.666666666666667
 31
0.0
 12
96.14530258014375
 22
1.25
 32
0.0
 13
96.14530258014375
 23
1.25
 33
0.0
  0
MTEXT
  5
1AB
330
1A4
100
AcDbEntity
  8
Izmeri
 62
     0
100
AcDbMText
 10
88.64530258014375
 20
3.151432469304229
 30
0.0
 40
2.5
 41
0.0
 46
0.0
 71
     5
 72
     1
  1
15
 73
     1
 44
1.0
  0
POINT
  5
1AC
330
1A4
100
AcDbEntity
  8
Defpoints
 62
     0
100
AcDbPoint
 10
81.14530258014375
 20
19.32198559800244
 30
0.0
  0
POINT
  5
1AD
330
1A4
100
AcDbEntity
  8
Defpoints
 62
     0
100
AcDbPoint
 10
96.14530258014375
 20
19.32198559800244
 30
0.0
  0
POINT
  5
1AE
330
1A4
100
AcDbEntity
  8
Defpoints
 62
     0
100
AcDbPoint
 10
96.14530258014375
 20
1.25
 30
0.0
  0
ENDBLK
  5
1AF
330
1A4
100
AcDbEntity
  8
0
100
AcDbBlockEnd
  0
BLOCK
  5
1B4
330
1B3
100
AcDbEntity
  8
0
100
AcDbBlockBegin
  2
*D14
 70
     1
 10
0.0
 20
0.0
 30
0.0
  3
*D14
  1
*D14
  0
LINE
  5
1B5
330
1B3
100
AcDbEntity
  8
Izmeri
 62
     0
370
    -2
100
AcDbLine
 10
96.14530258014375
 20
18.69698559800244
 30
0.0
 11
96.14530258014375
 21
0.0
 31
0.0
  0
LINE
  5
1B6
330
1B3
100
AcDbEntity
  8
Izmeri
 62
     0
370
    -2
100
AcDbLine
 10
111.1453025801437
 20
18.69698559800244
 30
0.0
 11
111.1453025801437
 21
0.0
 31
0.0
  0
LINE
  5
1B7
330
1B3
100
AcDbEntity
  8
Izmeri
 62
     0
370
    -2
100
AcDbLine
 10
98.64530258014375
 20
1.25
 30
0.0
 11
108.6453025801437
 21
1.25
 31
0.0
  0
SOLID
  5
1B8
330
1B3
100
AcDbEntity
  8
Izmeri
 62
     0
100
AcDbTrace
 10
98.64530258014375
 20
1.666666666666667
 30
0.0
 11
98.64530258014375
 21
0.8333333333333333
 31
0.0
 12
96.14530258014375
 22
1.25
 32
0.0
 13
96.14530258014375
 23
1.25
 33
0.0
  0
SOLID
  5
1B9
330
1B3
100
AcDbEntity
  8
Izmeri
 62
     0
100
AcDbTrace
 10
108.6453025801437
 20
0.8333333333333333
 30
0.0
 11
108.6453025801437
 21
1.666666666666667
 31
0.0
 12
111.1453025801437
 22
1.25
 32
0.0
 13
111.1453025801437
 23
1.25
 33
0.0
  0
MTEXT
  5
1BA
330
1B3
100
AcDbEntity
  8
Izmeri
 62
     0
100
AcDbMText
 10
103.6453025801437
 20
3.151432469304229
 30
0.0
 40
2.5
 41
0.0
 46
0.0
 71
     5
 72
     1
  1
15
 73
     1
 44
1.0
  0
POINT
  5
1BB
330
1B3
100
AcDbEntity
  8
Defpoints
 62
     0
100
AcDbPoint
 10
96.14530258014375
 20
19.32198559800244
 30
0.0
  0
POINT
  5
1BC
330
1B3
100
AcDbEntity
  8
Defpoints
 62
     0
100
AcDbPoint
 10
111.1453025801437
 20
19.32198559800244
 30
0.0
  0
POINT
  5
1BD
330
1B3
100
AcDbEntity
  8
Defpoints
 62
     0
100
AcDbPoint
 10
111.1453025801437
 20
1.25
 30
0.0
  0
ENDBLK
  5
1BE
330
1B3
100
AcDbEntity
  8
0
100
AcDbBlockEnd
  0
BLOCK
  5
1C3
330
1C2
100
AcDbEntity
  8
0
100
AcDbBlockBegin
  2
*D15
 70
     1
 10
0.0
 20
0.0
 30
0.0
  3
*D15
  1
*D15
  0
LINE
  5
1C4
330
1C2
100
AcDbEntity
  8
Izmeri
 62
     0
370
    -2
100
AcDbLine
 10
111.1453025801437
 20
18.69698559800244
 30
0.0
 11
111.1453025801437
 21
0.0
 31
0.0
  0
LINE
  5
1C5
330
1C2
100
AcDbEntity
  8
Izmeri
 62
     0
370
    -2
100
AcDbLine
 10
137.3953025801437
 20
21.19698559800244
 30
0.0
 11
137.3953025801437
 21
0.0
 31
0.0
  0
LINE
  5
1C6
330
1C2
100
AcDbEntity
  8
Izmeri
 62
     0
370
    -2
100
AcDbLine
 10
113.6453025801437
 20
1.25
 30
0.0
 11
134.8953025801437
 21
1.25
 31
0.0
  0
SOLID
  5
1C7
330
1C2
100
AcDbEntity
  8
Izmeri
 62
     0
100
AcDbTrace
 10
113.6453025801437
 20
1.666666666666667
 30
0.0
 11
113.6453025801437
 21
0.8333333333333333
 31
0.0
 12
111.1453025801437
 22
1.25
 32
0.0
 13
111.1453025801437
 23
1.25
 33
0.0
  0
SOLID
  5
1C8
330
1C2
100
AcDbEntity
  8
Izmeri
 62
     0
100
AcDbTrace
 10
134.8953025801437
 20
0.8333333333333333
 30
0.0
 11
134.8953025801437
 21
1.666666666666667
 31
0.0
 12
137.3953025801437
 22
1.25
 32
0.0
 13
137.3953025801437
 23
1.25
 33
0.0
  0
MTEXT
  5
1C9
330
1C2
100
AcDbEntity
  8
Izmeri
 62
     0
100
AcDbMText
 10
124.2703025801437
 20
3.377387448840382
 30
0.0
 40
2.5
 41
0.0
 46
0.0
 71
     5
 72
     1
  1
26,25
 73
     1
 44
1.0
  0
POINT
  5
1CA
330
1C2
100
AcDbEntity
  8
Defpoints
 62
     0
100
AcDbPoint
 10
111.1453025801437
 20
19.32198559800244
 30
0.0
  0
POINT
  5
1CB
330
1C2
100
AcDbEntity
  8
Defpoints
 62
     0
100
AcDbPoint
 10
137.3953025801437
 20
21.82198559800244
 30
0.0
  0
POINT
  5
1CC
330
1C2
100
AcDbEntity
  8
Defpoints
 62
     0
100
AcDbPoint
 10
137.3953025801437
 20
1.25
 30
0.0
  0
ENDBLK
  5
1CD
330
1C2
100
AcDbEntity
  8
0
100
AcDbBlockEnd
  0
BLOCK
  5
1D2
330
1D1
100
AcDbEntity
  8
0
100
AcDbBlockBegin
  2
*D16
 70
     1
 10
0.0
 20
0.0
 30
0.0
  3
*D16
  1
*D16
  0
LINE
  5
1D3
330
1D1
100
AcDbEntity
  8
Izmeri
 62
     0
370
    -2
100
AcDbLine
 10
171.1453025801437
 20
21.19698559800244
 30
0.0
 11
171.1453025801437
 21
0.0
 31
0.0
  0
LINE
  5
1D4
330
1D1
100
AcDbEntity
  8
Izmeri
 62
     0
370
    -2
100
AcDbLine
 10
137.3953025801437
 20
21.19698559800244
 30
0.0
 11
137.3953025801437
 21
0.0
 31
0.0
  0
LINE
  5
1D5
330
1D1
100
AcDbEntity
  8
Izmeri
 62
     0
370
    -2
100
AcDbLine
 10
168.6453025801437
 20
1.25
 30
0.0
 11
139.8953025801437
 21
1.25
 31
0.0
  0
SOLID
  5
1D6
330
1D1
100
AcDbEntity
  8
Izmeri
 62
     0
100
AcDbTrace
 10
168.6453025801437
 20
0.8333333333333333
 30
0.0
 11
168.6453025801437
 21
1.666666666666667
 31
0.0
 12
171.1453025801437
 22
1.25
 32
0.0
 13
171.1453025801437
 23
1.25
 33
0.0
  0
SOLID
  5
1D7
330
1D1
100
AcDbEntity
  8
Izmeri
 62
     0
100
AcDbTrace
 10
139.8953025801437
 20
1.666666666666667
 30
0.0
 11
139.8953025801437
 21
0.8333333333333333
 31
0.0
 12
137.3953025801437
 22
1.25
 32
0.0
 13
137.3953025801437
 23
1.25
 33
0.0
  0
MTEXT
  5
1D8
330
1D1
100
AcDbEntity
  8
Izmeri
 62
     0
100
AcDbMText
 10
154.2703025801437
 20
3.377387448840382
 30
0.0
 40
2.5
 41
0.0
 46
0.0
 71
     5
 72
     1
  1
33,75
 73
     1
 44
1.0
  0
POINT
  5
1D9
330
1D1
100
AcDbEntity
  8
Defpoints
 62
     0
100
AcDbPoint
 10
171.1453025801437
 20
21.82198559800244
 30
0.0
  0
POINT
  5
1DA
330
1D1
100
AcDbEntity
  8
Defpoints
 62
     0
100
AcDbPoint
 10
137.3953025801437
 20
21.82198559800244
 30
0.0
  0
POINT
  5
1DB
330
1D1
100
AcDbEntity
  8
Defpoints
 62
     0
100
AcDbPoint
 10
137.3953025801437
 20
1.25
 30
0.0
  0
ENDBLK
  5
1DC
330
1D1
100
AcDbEntity
  8
0
100
AcDbBlockEnd
  0
BLOCK
  5
1E1
330
1E0
100
AcDbEntity
  8
0
100
AcDbBlockBegin
  2
*D17
 70
     1
 10
0.0
 20
0.0
 30
0.0
  3
*D17
  1
*D17
  0
LINE
  5
1E2
330
1E0
100
AcDbEntity
  8
Izmeri
 62
     0
370
    -2
100
AcDbLine
 10
171.1453025801437
 20
21.19698559800244
 30
0.0
 11
171.1453025801437
 21
0.0
 31
0.0
  0
LINE
  5
1E3
330
1E0
100
AcDbEntity
  8
Izmeri
 62
     0
370
    -2
100
AcDbLine
 10
178.6453025801437
 20
21.19698559800244
 30
0.0
 11
178.6453025801437
 21
0.0
 31
0.0
  0
LINE
  5
1E4
330
1E0
100
AcDbEntity
  8
Izmeri
 62
     0
370
    -2
100
AcDbLine
 10
173.6453025801437
 20
1.25
 30
0.0
 11
176.1453025801437
 21
1.25
 31
0.0
  0
SOLID
  5
1E5
330
1E0
100
AcDbEntity
  8
Izmeri
 62
     0
100
AcDbTrace
 10
173.6453025801437
 20
1.666666666666667
 30
0.0
 11
173.6453025801437
 21
0.8333333333333333
 31
0.0
 12
171.1453025801437
 22
1.25
 32
0.0
 13
171.1453025801437
 23
1.25
 33
0.0
  0
SOLID
  5
1E6
330
1E0
100
AcDbEntity
  8
Izmeri
 62
     0
100
AcDbTrace
 10
176.1453025801437
 20
0.8333333333333333
 30
0.0
 11
176.1453025801437
 21
1.666666666666667
 31
0.0
 12
178.6453025801437
 22
1.25
 32
0.0
 13
178.6453025801437
 23
1.25
 33
0.0
  0
MTEXT
  5
1E7
330
1E0
100
AcDbEntity
  8
Izmeri
 62
     0
100
AcDbMText
 10
174.8953025801437
 20
3.372271487039563
 30
0.0
 40
2.5
 41
0.0
 46
0.0
 71
     5
 72
     1
  1
7,5
 73
     1
 44
1.0
  0
POINT
  5
1E8
330
1E0
100
AcDbEntity
  8
Defpoints
 62
     0
100
AcDbPoint
 10
171.1453025801437
 20
21.82198559800244
 30
0.0
  0
POINT
  5
1E9
330
1E0
100
AcDbEntity
  8
Defpoints
 62
     0
100
AcDbPoint
 10
178.6453025801437
 20
21.82198559800244
 30
0.0
  0
POINT
  5
1EA
330
1E0
100
AcDbEntity
  8
Defpoints
 62
     0
100
AcDbPoint
 10
178.6453025801437
 20
1.25
 30
0.0
  0
ENDBLK
  5
1EB
330
1E0
100
AcDbEntity
  8
0
100
AcDbBlockEnd
  0
BLOCK
  5
23E
330
23D
100
AcDbEntity
  8
0
100
AcDbBlockBegin
  2
*D18
 70
     1
 10
0.0
 20
0.0
 30
0.0
  3
*D18
  1
*D18
  0
LINE
  5
240
330
23D
100
AcDbEntity
  8
Izmeri
 62
     0
370
    -2
100
AcDbLine
 10
-78.12499999999895
 20
40.00000000000557
 30
0.0
 11
-94.21743764153425
 21
40.00000000000557
 31
0.0
  0
LINE
  5
241
330
23D
100
AcDbEntity
  8
Izmeri
 62
     0
370
    -2
100
AcDbLine
 10
-78.12499999999895
 20
-39.99999999999443
 30
0.0
 11
-94.21743764153425
 21
-39.99999999999443
 31
0.0
  0
LINE
  5
242
330
23D
100
AcDbEntity
  8
Izmeri
 62
     0
370
    -2
100
AcDbLine
 10
-92.96743764153425
 20
37.50000000000557
 30
0.0
 11
-92.96743764153425
 21
-37.49999999999443
 31
0.0
  0
SOLID
  5
243
330
23D
100
AcDbEntity
  8
Izmeri
 62
     0
100
AcDbTrace
 10
-92.55077097486758
 20
37.50000000000557
 30
0.0
 11
-93.38410430820092
 21
37.50000000000557
 31
0.0
 12
-92.96743764153425
 22
40.00000000000557
 32
0.0
 13
-92.96743764153425
 23
40.00000000000557
 33
0.0
  0
SOLID
  5
244
330
23D
100
AcDbEntity
  8
Izmeri
 62
     0
100
AcDbTrace
 10
-93.38410430820092
 20
-37.49999999999443
 30
0.0
 11
-92.55077097486758
 21
-37.49999999999443
 31
0.0
 12
-92.96743764153425
 22
-39.99999999999443
 32
0.0
 13
-92.96743764153425
 23
-39.99999999999443
 33
0.0
  0
MTEXT
  5
245
330
23D
100
AcDbEntity
  8
Izmeri
 62
     0
100
AcDbMText
 10
-94.86887011083847
 20
0.0000000000055707
 30
0.0
 40
2.5
 41
0.0
 46
0.0
 71
     5
 72
     1
  1
80
 11
0.0
 21
1.0
 31
0.0
 73
     1
 44
1.0
  0
POINT
  5
246
330
23D
100
AcDbEntity
  8
Defpoints
 62
     0
100
AcDbPoint
 10
-77.49999999999895
 20
40.00000000000557
 30
0.0
  0
POINT
  5
247
330
23D
100
AcDbEntity
  8
Defpoints
 62
     0
100
AcDbPoint
 10
-77.49999999999895
 20
-39.99999999999443
 30
0.0
  0
POINT
  5
248
330
23D
100
AcDbEntity
  8
Defpoints
 62
     0
100
AcDbPoint
 10
-92.96743764153425
 20
-39.99999999999443
 30
0.0
  0
ENDBLK
  5
23F
330
23D
100
AcDbEntity
  8
0
100
AcDbBlockEnd
  0
BLOCK
  5
24A
330
249
100
AcDbEntity
  8
0
100
AcDbBlockBegin
  2
*D19
 70
     1
 10
0.0
 20
0.0
 30
0.0
  3
*D19
  1
*D19
  0
LINE
  5
24C
330
249
100
AcDbEntity
  8
Izmeri
 62
     0
370
    -2
100
AcDbLine
 10
-78.12499999999895
 20
40.00000000000557
 30
0.0
 11
-88.7056513006489
 21
40.00000000000557
 31
0.0
  0
LINE
  5
24D
330
249
100
AcDbEntity
  8
Izmeri
 62
     0
370
    -2
100
AcDbLine
 10
-78.12499999999895
 20
19.99999999997971
 30
0.0
 11
-88.7056513006489
 21
19.99999999997971
 31
0.0
  0
LINE
  5
24E
330
249
100
AcDbEntity
  8
Izmeri
 62
     0
370
    -2
100
AcDbLine
 10
-87.4556513006489
 20
37.50000000000557
 30
0.0
 11
-87.4556513006489
 21
22.49999999997971
 31
0.0
  0
SOLID
  5
24F
330
249
100
AcDbEntity
  8
Izmeri
 62
     0
100
AcDbTrace
 10
-87.03898463398222
 20
37.50000000000557
 30
0.0
 11
-87.87231796731557
 21
37.50000000000557
 31
0.0
 12
-87.4556513006489
 22
40.00000000000557
 32
0.0
 13
-87.4556513006489
 23
40.00000000000557
 33
0.0
  0
SOLID
  5
250
330
249
100
AcDbEntity
  8
Izmeri
 62
     0
100
AcDbTrace
 10
-87.87231796731557
 20
22.49999999997971
 30
0.0
 11
-87.03898463398222
 21
22.49999999997971
 31
0.0
 12
-87.4556513006489
 22
19.99999999997971
 32
0.0
 13
-87.4556513006489
 23
19.99999999997971
 33
0.0
  0
MTEXT
  5
251
330
249
100
AcDbEntity
  8
Izmeri
 62
     0
100
AcDbMText
 10
-89.35708376995312
 20
29.99999999999264
 30
0.0
 40
2.5
 41
0.0
 46
0.0
 71
     5
 72
     1
  1
20
 11
0.0
 21
1.0
 31
0.0
 73
     1
 44
1.0
  0
POINT
  5
252
330
249
100
AcDbEntity
  8
Defpoints
 62
     0
100
AcDbPoint
 10
-77.49999999999895
 20
40.00000000000557
 30
0.0
  0
POINT
  5
253
330
249
100
AcDbEntity
  8
Defpoints
 62
     0
100
AcDbPoint
 10
-77.49999999999895
 20
19.99999999997971
 30
0.0
  0
POINT
  5
254
330
249
100
AcDbEntity
  8
Defpoints
 62
     0
100
AcDbPoint
 10
-87.4556513006489
 20
19.99999999997971
 30
0.0
  0
ENDBLK
  5
24B
330
249
100
AcDbEntity
  8
0
100
AcDbBlockEnd
  0
BLOCK
  5
256
330
255
100
AcDbEntity
  8
0
100
AcDbBlockBegin
  2
*D20
 70
     1
 10
0.0
 20
0.0
 30
0.0
  3
*D20
  1
*D20
  0
LINE
  5
258
330
255
100
AcDbEntity
  8
Izmeri
 62
     0
370
    -2
100
AcDbLine
 10
-78.12499999999895
 20
19.99999999997971
 30
0.0
 11
-88.7056513006489
 21
19.99999999997971
 31
0.0
  0
LINE
  5
259
330
255
100
AcDbEntity
  8
Izmeri
 62
     0
370
    -2
100
AcDbLine
 10
-78.12499999999815
 20
-19.99999999997556
 30
0.0
 11
-88.7056513006489
 21
-19.99999999997556
 31
0.0
  0
LINE
  5
25A
330
255
100
AcDbEntity
  8
Izmeri
 62
     0
370
    -2
100
AcDbLine
 10
-87.4556513006489
 20
17.49999999997971
 30
0.0
 11
-87.4556513006489
 21
-17.49999999997556
 31
0.0
  0
SOLID
  5
25B
330
255
100
AcDbEntity
  8
Izmeri
 62
     0
100
AcDbTrace
 10
-87.03898463398222
 20
17.49999999997971
 30
0.0
 11
-87.87231796731557
 21
17.49999999997971
 31
0.0
 12
-87.4556513006489
 22
19.99999999997971
 32
0.0
 13
-87.4556513006489
 23
19.99999999997971
 33
0.0
  0
SOLID
  5
25C
330
255
100
AcDbEntity
  8
Izmeri
 62
     0
100
AcDbTrace
 10
-87.87231796731557
 20
-17.49999999997556
 30
0.0
 11
-87.03898463398222
 21
-17.49999999997556
 31
0.0
 12
-87.4556513006489
 22
-19.99999999997556
 32
0.0
 13
-87.4556513006489
 23
-19.99999999997556
 33
0.0
  0
MTEXT
  5
25D
330
255
100
AcDbEntity
  8
Izmeri
 62
     0
100
AcDbMText
 10
-89.35708376995312
 20
0.0000000000020748
 30
0.0
 40
2.5
 41
0.0
 46
0.0
 71
     5
 72
     1
  1
40
 11
0.0
 21
1.0
 31
0.0
 73
     1
 44
1.0
  0
POINT
  5
25E
330
255
100
AcDbEntity
  8
Defpoints
 62
     0
100
AcDbPoint
 10
-77.49999999999895
 20
19.99999999997971
 30
0.0
  0
POINT
  5
25F
330
255
100
AcDbEntity
  8
Defpoints
 62
     0
100
AcDbPoint
 10
-77.49999999999815
 20
-19.99999999997556
 30
0.0
  0
POINT
  5
260
330
255
100
AcDbEntity
  8
Defpoints
 62
     0
100
AcDbPoint
 10
-87.4556513006489
 20
-19.99999999997556
 30
0.0
  0
ENDBLK
  5
257
330
255
100
AcDbEntity
  8
0
100
AcDbBlockEnd
  0
BLOCK
  5
262
330
261
100
AcDbEntity
  8
0
100
AcDbBlockBegin
  2
*D21
 70
     1
 10
0.0
 20
0.0
 30
0.0
  3
*D21
  1
*D21
  0
LINE
  5
264
330
261
100
AcDbEntity
  8
Izmeri
 62
     0
370
    -2
100
AcDbLine
 10
-78.12499999999815
 20
-19.99999999997556
 30
0.0
 11
-88.70565130064878
 21
-19.99999999997556
 31
0.0
  0
LINE
  5
265
330
261
100
AcDbEntity
  8
Izmeri
 62
     0
370
    -2
100
AcDbLine
 10
-78.12499999999883
 20
-39.99999999999443
 30
0.0
 11
-88.70565130064878
 21
-39.99999999999443
 31
0.0
  0
LINE
  5
266
330
261
100
AcDbEntity
  8
Izmeri
 62
     0
370
    -2
100
AcDbLine
 10
-87.45565130064878
 20
-22.49999999997556
 30
0.0
 11
-87.45565130064878
 21
-37.49999999999443
 31
0.0
  0
SOLID
  5
267
330
261
100
AcDbEntity
  8
Izmeri
 62
     0
100
AcDbTrace
 10
-87.03898463398211
 20
-22.49999999997556
 30
0.0
 11
-87.87231796731545
 21
-22.49999999997556
 31
0.0
 12
-87.45565130064878
 22
-19.99999999997556
 32
0.0
 13
-87.45565130064878
 23
-19.99999999997556
 33
0.0
  0
SOLID
  5
268
330
261
100
AcDbEntity
  8
Izmeri
 62
     0
100
AcDbTrace
 10
-87.87231796731545
 20
-37.49999999999443
 30
0.0
 11
-87.03898463398211
 21
-37.49999999999443
 31
0.0
 12
-87.45565130064878
 22
-39.99999999999443
 32
0.0
 13
-87.45565130064878
 23
-39.99999999999443
 33
0.0
  0
MTEXT
  5
269
330
261
100
AcDbEntity
  8
Izmeri
 62
     0
100
AcDbMText
 10
-89.35708376995301
 20
-29.99999999998499
 30
0.0
 40
2.5
 41
0.0
 46
0.0
 71
     5
 72
     1
  1
20
 11
0.0
 21
1.0
 31
0.0
 73
     1
 44
1.0
  0
POINT
  5
26A
330
261
100
AcDbEntity
  8
Defpoints
 62
     0
100
AcDbPoint
 10
-77.49999999999815
 20
-19.99999999997556
 30
0.0
  0
POINT
  5
26B
330
261
100
AcDbEntity
  8
Defpoints
 62
     0
100
AcDbPoint
 10
-77.49999999999883
 20
-39.99999999999443
 30
0.0
  0
POINT
  5
26C
330
261
100
AcDbEntity
  8
Defpoints
 62
     0
100
AcDbPoint
 10
-87.45565130064878
 20
-39.99999999999443
 30
0.0
  0
ENDBLK
  5
263
330
261
100
AcDbEntity
  8
0
100
AcDbBlockEnd
  0
BLOCK
  5
26E
330
26D
100
AcDbEntity
  8
0
100
AcDbBlockBegin
  2
*D22
 70
     1
 10
0.0
 20
0.0
 30
0.0
  3
*D22
  1
*D22
  0
LINE
  5
270
330
26D
100
AcDbEntity
  8
Izmeri
 62
     0
370
    -2
100
AcDbLine
 10
-82.49999999999895
 20
30.62499999999261
 30
0.0
 11
-82.49999999999895
 21
53.27841242591035
 31
0.0
  0
LINE
  5
271
330
26D
100
AcDbEntity
  8
Izmeri
 62
     0
370
    -2
100
AcDbLine
 10
82.50000000000102
 20
30.62500000000068
 30
0.0
 11
82.50000000000102
 21
53.27841242591035
 31
0.0
  0
LINE
  5
272
330
26D
100
AcDbEntity
  8
Izmeri
 62
     0
370
    -2
100
AcDbLine
 10
-79.99999999999895
 20
52.02841242591035
 30
0.0
 11
80.00000000000102
 21
52.02841242591035
 31
0.0
  0
SOLID
  5
273
330
26D
100
AcDbEntity
  8
Izmeri
 62
     0
100
AcDbTrace
 10
-79.99999999999895
 20
52.44507909257701
 30
0.0
 11
-79.99999999999895
 21
51.61174575924368
 31
0.0
 12
-82.49999999999895
 22
52.02841242591035
 32
0.0
 13
-82.49999999999895
 23
52.02841242591035
 33
0.0
  0
SOLID
  5
274
330
26D
100
AcDbEntity
  8
Izmeri
 62
     0
100
AcDbTrace
 10
80.00000000000102
 20
51.61174575924368
 30
0.0
 11
80.00000000000102
 21
52.44507909257701
 31
0.0
 12
82.50000000000102
 22
52.02841242591035
 32
0.0
 13
82.50000000000102
 23
52.02841242591035
 33
0.0
  0
MTEXT
  5
275
330
26D
100
AcDbEntity
  8
Izmeri
 62
     0
100
AcDbMText
 10
0.0000000000010374
 20
53.92984489521458
 30
0.0
 40
2.5
 41
0.0
 46
0.0
 71
     5
 72
     1
  1
165
 73
     1
 44
1.0
  0
POINT
  5
276
330
26D
100
AcDbEntity
  8
Defpoints
 62
     0
100
AcDbPoint
 10
-82.49999999999895
 20
29.99999999999261
 30
0.0
  0
POINT
  5
277
330
26D
100
AcDbEntity
  8
Defpoints
 62
     0
100
AcDbPoint
 10
82.50000000000102
 20
30.00000000000068
 30
0.0
  0
POINT
  5
278
330
26D
100
AcDbEntity
  8
Defpoints
 62
     0
100
AcDbPoint
 10
82.50000000000102
 20
52.02841242591035
 30
0.0
  0
ENDBLK
  5
26F
330
26D
100
AcDbEntity
  8
0
100
AcDbBlockEnd
  0
BLOCK
  5
27A
330
279
100
AcDbEntity
  8
0
100
AcDbBlockBegin
  2
*D23
 70
     1
 10
0.0
 20
0.0
 30
0.0
  3
*D23
  1
*D23
  0
LINE
  5
27C
330
279
100
AcDbEntity
  8
Izmeri
 62
     0
370
    -2
100
AcDbLine
 10
-32.49999999999898
 20
40.62500000000557
 30
0.0
 11
-32.49999999999898
 21
46.62192936844457
 31
0.0
  0
LINE
  5
27D
330
279
100
AcDbEntity
  8
Izmeri
 62
     0
370
    -2
100
AcDbLine
 10
-82.49999999999895
 20
31.24999999999261
 30
0.0
 11
-82.49999999999895
 21
46.62192936844457
 31
0.0
  0
LINE
  5
27E
330
279
100
AcDbEntity
  8
Izmeri
 62
     0
370
    -2
100
AcDbLine
 10
-34.99999999999898
 20
45.37192936844457
 30
0.0
 11
-79.99999999999895
 21
45.37192936844457
 31
0.0
  0
SOLID
  5
27F
330
279
100
AcDbEntity
  8
Izmeri
 62
     0
100
AcDbTrace
 10
-34.99999999999898
 20
44.9552627017779
 30
0.0
 11
-34.99999999999898
 21
45.78859603511123
 31
0.0
 12
-32.49999999999898
 22
45.37192936844457
 32
0.0
 13
-32.49999999999898
 23
45.37192936844457
 33
0.0
  0
SOLID
  5
280
330
279
100
AcDbEntity
  8
Izmeri
 62
     0
100
AcDbTrace
 10
-79.99999999999895
 20
45.78859603511123
 30
0.0
 11
-79.99999999999895
 21
44.9552627017779
 31
0.0
 12
-82.49999999999895
 22
45.37192936844457
 32
0.0
 13
-82.49999999999895
 23
45.37192936844457
 33
0.0
  0
MTEXT
  5
281
330
279
100
AcDbEntity
  8
Izmeri
 62
     0
100
AcDbMText
 10
-57.49999999999896
 20
47.2733618377488
 30
0.0
 40
2.5
 41
0.0
 46
0.0
 71
     5
 72
     1
  1
50
 73
     1
 44
1.0
  0
POINT
  5
282
330
279
100
AcDbEntity
  8
Defpoints
 62
     0
100
AcDbPoint
 10
-32.49999999999898
 20
40.00000000000557
 30
0.0
  0
POINT
  5
283
330
279
100
AcDbEntity
  8
Defpoints
 62
     0
100
AcDbPoint
 10
-82.49999999999895
 20
30.62499999999261
 30
0.0
  0
POINT
  5
284
330
279
100
AcDbEntity
  8
Defpoints
 62
     0
100
AcDbPoint
 10
-82.49999999999895
 20
45.37192936844457
 30
0.0
  0
ENDBLK
  5
27B
330
279
100
AcDbEntity
  8
0
100
AcDbBlockEnd
  0
BLOCK
  5
286
330
285
100
AcDbEntity
  8
0
100
AcDbBlockBegin
  2
*D24
 70
     1
 10
0.0
 20
0.0
 30
0.0
  3
*D24
  1
*D24
  0
LINE
  5
288
330
285
100
AcDbEntity
  8
Izmeri
 62
     0
370
    -2
100
AcDbLine
 10
-32.49999999999898
 20
40.62500000000557
 30
0.0
 11
-32.49999999999898
 21
46.62192936844457
 31
0.0
  0
LINE
  5
289
330
285
100
AcDbEntity
  8
Izmeri
 62
     0
370
    -2
100
AcDbLine
 10
32.50000000000102
 20
40.62500000000557
 30
0.0
 11
32.50000000000102
 21
46.62192936844457
 31
0.0
  0
LINE
  5
28A
330
285
100
AcDbEntity
  8
Izmeri
 62
     0
370
    -2
100
AcDbLine
 10
-29.99999999999898
 20
45.37192936844457
 30
0.0
 11
30.00000000000102
 21
45.37192936844457
 31
0.0
  0
SOLID
  5
28B
330
285
100
AcDbEntity
  8
Izmeri
 62
     0
100
AcDbTrace
 10
-29.99999999999898
 20
45.78859603511123
 30
0.0
 11
-29.99999999999898
 21
44.9552627017779
 31
0.0
 12
-32.49999999999898
 22
45.37192936844457
 32
0.0
 13
-32.49999999999898
 23
45.37192936844457
 33
0.0
  0
SOLID
  5
28C
330
285
100
AcDbEntity
  8
Izmeri
 62
     0
100
AcDbTrace
 10
30.00000000000102
 20
44.9552627017779
 30
0.0
 11
30.00000000000102
 21
45.78859603511123
 31
0.0
 12
32.50000000000102
 22
45.37192936844457
 32
0.0
 13
32.50000000000102
 23
45.37192936844457
 33
0.0
  0
MTEXT
  5
28D
330
285
100
AcDbEntity
  8
Izmeri
 62
     0
100
AcDbMText
 10
0.0000000000010232
 20
47.2733618377488
 30
0.0
 40
2.5
 41
0.0
 46
0.0
 71
     5
 72
     1
  1
65
 73
     1
 44
1.0
  0
POINT
  5
28E
330
285
100
AcDbEntity
  8
Defpoints
 62
     0
100
AcDbPoint
 10
-32.49999999999898
 20
40.00000000000557
 30
0.0
  0
POINT
  5
28F
330
285
100
AcDbEntity
  8
Defpoints
 62
     0
100
AcDbPoint
 10
32.50000000000102
 20
40.00000000000557
 30
0.0
  0
POINT
  5
290
330
285
100
AcDbEntity
  8
Defpoints
 62
     0
100
AcDbPoint
 10
32.50000000000102
 20
45.37192936844457
 30
0.0
  0
ENDBLK
  5
287
330
285
100
AcDbEntity
  8
0
100
AcDbBlockEnd
  0
BLOCK
  5
292
330
291
100
AcDbEntity
  8
0
100
AcDbBlockBegin
  2
*D25
 70
     1
 10
0.0
 20
0.0
 30
0.0
  3
*D25
  1
*D25
  0
LINE
  5
294
330
291
100
AcDbEntity
  8
Izmeri
 62
     0
370
    -2
100
AcDbLine
 10
32.50000000000102
 20
40.62500000000557
 30
0.0
 11
32.50000000000102
 21
46.62192936844457
 31
0.0
  0
LINE
  5
295
330
291
100
AcDbEntity
  8
Izmeri
 62
     0
370
    -2
100
AcDbLine
 10
82.50000000000102
 20
31.25000000000068
 30
0.0
 11
82.50000000000102
 21
46.62192936844457
 31
0.0
  0
LINE
  5
296
330
291
100
AcDbEntity
  8
Izmeri
 62
     0
370
    -2
100
AcDbLine
 10
35.00000000000102
 20
45.37192936844457
 30
0.0
 11
80.00000000000102
 21
45.37192936844457
 31
0.0
  0
SOLID
  5
297
330
291
100
AcDbEntity
  8
Izmeri
 62
     0
100
AcDbTrace
 10
35.00000000000102
 20
45.78859603511123
 30
0.0
 11
35.00000000000102
 21
44.9552627017779
 31
0.0
 12
32.50000000000102
 22
45.37192936844457
 32
0.0
 13
32.50000000000102
 23
45.37192936844457
 33
0.0
  0
SOLID
  5
298
330
291
100
AcDbEntity
  8
Izmeri
 62
     0
100
AcDbTrace
 10
80.00000000000102
 20
44.9552627017779
 30
0.0
 11
80.00000000000102
 21
45.78859603511123
 31
0.0
 12
82.50000000000102
 22
45.37192936844457
 32
0.0
 13
82.50000000000102
 23
45.37192936844457
 33
0.0
  0
MTEXT
  5
299
330
291
100
AcDbEntity
  8
Izmeri
 62
     0
100
AcDbMText
 10
57.50000000000102
 20
47.2733618377488
 30
0.0
 40
2.5
 41
0.0
 46
0.0
 71
     5
 72
     1
  1
50
 73
     1
 44
1.0
  0
POINT
  5
29A
330
291
100
AcDbEntity
  8
Defpoints
 62
     0
100
AcDbPoint
 10
32.50000000000102
 20
40.00000000000557
 30
0.0
  0
POINT
  5
29B
330
291
100
AcDbEntity
  8
Defpoints
 62
     0
100
AcDbPoint
 10
82.50000000000102
 20
30.62500000000068
 30
0.0
  0
POINT
  5
29C
330
291
100
AcDbEntity
  8
Defpoints
 62
     0
100
AcDbPoint
 10
82.50000000000102
 20
45.37192936844457
 30
0.0
  0
ENDBLK
  5
293
330
291
100
AcDbEntity
  8
0
100
AcDbBlockEnd
  0
BLOCK
  5
29E
330
29D
100
AcDbEntity
  8
0
100
AcDbBlockBegin
  2
*D26
 70
     1
 10
0.0
 20
0.0
 30
0.0
  3
*D26
  1
*D26
  0
LINE
  5
2A0
330
29D
100
AcDbEntity
  8
Izmeri
 62
     0
370
    -2
100
AcDbLine
 10
-74.99999999999895
 20
-33.12499999999443
 30
0.0
 11
-74.99999999999895
 21
-54.32198559799687
 31
0.0
  0
LINE
  5
2A1
330
29D
100
AcDbEntity
  8
Izmeri
 62
     0
370
    -2
100
AcDbLine
 10
-41.24999999999898
 20
-33.12499999999443
 30
0.0
 11
-41.24999999999898
 21
-54.32198559799687
 31
0.0
  0
LINE
  5
2A2
330
29D
100
AcDbEntity
  8
Izmeri
 62
     0
370
    -2
100
AcDbLine
 10
-72.49999999999895
 20
-53.07198559799687
 30
0.0
 11
-43.74999999999898
 21
-53.07198559799687
 31
0.0
  0
SOLID
  5
2A3
330
29D
100
AcDbEntity
  8
Izmeri
 62
     0
100
AcDbTrace
 10
-72.49999999999895
 20
-52.65531893133021
 30
0.0
 11
-72.49999999999895
 21
-53.48865226466354
 31
0.0
 12
-74.99999999999895
 22
-53.07198559799687
 32
0.0
 13
-74.99999999999895
 23
-53.07198559799687
 33
0.0
  0
SOLID
  5
2A4
330
29D
100
AcDbEntity
  8
Izmeri
 62
     0
100
AcDbTrace
 10
-43.74999999999898
 20
-53.48865226466354
 30
0.0
 11
-43.74999999999898
 21
-52.65531893133021
 31
0.0
 12
-41.24999999999898
 22
-53.07198559799687
 32
0.0
 13
-41.24999999999898
 23
-53.07198559799687
 33
0.0
  0
MTEXT
  5
2A5
330
29D
100
AcDbEntity
  8
Izmeri
 62
     0
100
AcDbMText
 10
-58.12499999999896
 20
-50.94459814915649
 30
0.0
 40
2.5
 41
0.0
 46
0.0
 71
     5
 72
     1
  1
33,75
 73
     1
 44
1.0
  0
POINT
  5
2A6
330
29D
100
AcDbEntity
  8
Defpoints
 62
     0
100
AcDbPoint
 10
-74.99999999999895
 20
-32.49999999999443
 30
0.0
  0
POINT
  5
2A7
330
29D
100
AcDbEntity
  8
Defpoints
 62
     0
100
AcDbPoint
 10
-41.24999999999898
 20
-32.49999999999443
 30
0.0
  0
POINT
  5
2A8
330
29D
100
AcDbEntity
  8
Defpoints
 62
     0
100
AcDbPoint
 10
-41.24999999999898
 20
-53.07198559799687
 30
0.0
  0
ENDBLK
  5
29F
330
29D
100
AcDbEntity
  8
0
100
AcDbBlockEnd
  0
BLOCK
  5
2AA
330
2A9
100
AcDbEntity
  8
0
100
AcDbBlockBegin
  2
*D27
 70
     1
 10
0.0
 20
0.0
 30
0.0
  3
*D27
  1
*D27
  0
LINE
  5
2AC
330
2A9
100
AcDbEntity
  8
Izmeri
 62
     0
370
    -2
100
AcDbLine
 10
-74.99999999999895
 20
-33.12499999999443
 30
0.0
 11
-74.99999999999895
 21
-54.32198559799687
 31
0.0
  0
LINE
  5
2AD
330
2A9
100
AcDbEntity
  8
Izmeri
 62
     0
370
    -2
100
AcDbLine
 10
-82.49999999999895
 20
-33.12499999999443
 30
0.0
 11
-82.49999999999895
 21
-54.32198559799687
 31
0.0
  0
LINE
  5
2AE
330
2A9
100
AcDbEntity
  8
Izmeri
 62
     0
370
    -2
100
AcDbLine
 10
-77.49999999999895
 20
-53.07198559799687
 30
0.0
 11
-79.99999999999895
 21
-53.07198559799687
 31
0.0
  0
SOLID
  5
2AF
330
2A9
100
AcDbEntity
  8
Izmeri
 62
     0
100
AcDbTrace
 10
-77.49999999999895
 20
-53.48865226466354
 30
0.0
 11
-77.49999999999895
 21
-52.65531893133021
 31
0.0
 12
-74.99999999999895
 22
-53.07198559799687
 32
0.0
 13
-74.99999999999895
 23
-53.07198559799687
 33
0.0
  0
SOLID
  5
2B0
330
2A9
100
AcDbEntity
  8
Izmeri
 62
     0
100
AcDbTrace
 10
-79.99999999999895
 20
-52.65531893133021
 30
0.0
 11
-79.99999999999895
 21
-53.48865226466354
 31
0.0
 12
-82.49999999999895
 22
-53.07198559799687
 32
0.0
 13
-82.49999999999895
 23
-53.07198559799687
 33
0.0
  0
MTEXT
  5
2B1
330
2A9
100
AcDbEntity
  8
Izmeri
 62
     0
100
AcDbMText
 10
-78.74999999999895
 20
-50.94971411095731
 30
0.0
 40
2.5
 41
0.0
 46
0.0
 71
     5
 72
     1
  1
7,5
 73
     1
 44
1.0
  0
POINT
  5
2B2
330
2A9
100
AcDbEntity
  8
Defpoints
 62
     0
100
AcDbPoint
 10
-74.99999999999895
 20
-32.49999999999443
 30
0.0
  0
POINT
  5
2B3
330
2A9
100
AcDbEntity
  8
Defpoints
 62
     0
100
AcDbPoint
 10
-82.49999999999895
 20
-32.49999999999443
 30
0.0
  0
POINT
  5
2B4
330
2A9
100
AcDbEntity
  8
Defpoints
 62
     0
100
AcDbPoint
 10
-82.49999999999895
 20
-53.07198559799687
 30
0.0
  0
ENDBLK
  5
2AB
330
2A9
100
AcDbEntity
  8
0
100
AcDbBlockEnd
  0
BLOCK
  5
2B6
330
2B5
100
AcDbEntity
  8
0
100
AcDbBlockBegin
  2
*D28
 70
     1
 10
0.0
 20
0.0
 30
0.0
  3
*D28
  1
*D28
  0
LINE
  5
2B8
330
2B5
100
AcDbEntity
  8
Izmeri
 62
     0
370
    -2
100
AcDbLine
 10
-41.24999999999898
 20
-33.12499999999443
 30
0.0
 11
-41.24999999999898
 21
-54.32198559799687
 31
0.0
  0
LINE
  5
2B9
330
2B5
100
AcDbEntity
  8
Izmeri
 62
     0
370
    -2
100
AcDbLine
 10
-14.99999999999898
 20
-35.62499999999443
 30
0.0
 11
-14.99999999999898
 21
-54.32198559799687
 31
0.0
  0
LINE
  5
2BA
330
2B5
100
AcDbEntity
  8
Izmeri
 62
     0
370
    -2
100
AcDbLine
 10
-38.74999999999898
 20
-53.07198559799687
 30
0.0
 11
-17.49999999999898
 21
-53.07198559799687
 31
0.0
  0
SOLID
  5
2BB
330
2B5
100
AcDbEntity
  8
Izmeri
 62
     0
100
AcDbTrace
 10
-38.74999999999898
 20
-52.65531893133021
 30
0.0
 11
-38.74999999999898
 21
-53.48865226466354
 31
0.0
 12
-41.24999999999898
 22
-53.07198559799687
 32
0.0
 13
-41.24999999999898
 23
-53.07198559799687
 33
0.0
  0
SOLID
  5
2BC
330
2B5
100
AcDbEntity
  8
Izmeri
 62
     0
100
AcDbTrace
 10
-17.49999999999898
 20
-53.48865226466354
 30
0.0
 11
-17.49999999999898
 21
-52.65531893133021
 31
0.0
 12
-14.99999999999898
 22
-53.07198559799687
 32
0.0
 13
-14.99999999999898
 23
-53.07198559799687
 33
0.0
  0
MTEXT
  5
2BD
330
2B5
100
AcDbEntity
  8
Izmeri
 62
     0
100
AcDbMText
 10
-28.12499999999898
 20
-50.94459814915649
 30
0.0
 40
2.5
 41
0.0
 46
0.0
 71
     5
 72
     1
  1
26,25
 73
     1
 44
1.0
  0
POINT
  5
2BE
330
2B5
100
AcDbEntity
  8
Defpoints
 62
     0
100
AcDbPoint
 10
-41.24999999999898
 20
-32.49999999999443
 30
0.0
  0
POINT
  5
2BF
330
2B5
100
AcDbEntity
  8
Defpoints
 62
     0
100
AcDbPoint
 10
-14.99999999999898
 20
-34.99999999999443
 30
0.0
  0
POINT
  5
2C0
330
2B5
100
AcDbEntity
  8
Defpoints
 62
     0
100
AcDbPoint
 10
-14.99999999999898
 20
-53.07198559799687
 30
0.0
  0
ENDBLK
  5
2B7
330
2B5
100
AcDbEntity
  8
0
100
AcDbBlockEnd
  0
BLOCK
  5
2C2
330
2C1
100
AcDbEntity
  8
0
100
AcDbBlockBegin
  2
*D29
 70
     1
 10
0.0
 20
0.0
 30
0.0
  3
*D29
  1
*D29
  0
LINE
  5
2C4
330
2C1
100
AcDbEntity
  8
Izmeri
 62
     0
370
    -2
100
AcDbLine
 10
-14.99999999999898
 20
-35.62499999999443
 30
0.0
 11
-14.99999999999898
 21
-54.32198559799687
 31
0.0
  0
LINE
  5
2C5
330
2C1
100
AcDbEntity
  8
Izmeri
 62
     0
370
    -2
100
AcDbLine
 10
0.0000000000010232
 20
-35.62499999999443
 30
0.0
 11
0.0000000000010232
 21
-54.32198559799687
 31
0.0
  0
LINE
  5
2C6
330
2C1
100
AcDbEntity
  8
Izmeri
 62
     0
370
    -2
100
AcDbLine
 10
-12.49999999999898
 20
-53.07198559799687
 30
0.0
 11
-2.499999999998977
 21
-53.07198559799687
 31
0.0
  0
SOLID
  5
2C7
330
2C1
100
AcDbEntity
  8
Izmeri
 62
     0
100
AcDbTrace
 10
-12.49999999999898
 20
-52.65531893133021
 30
0.0
 11
-12.49999999999898
 21
-53.48865226466354
 31
0.0
 12
-14.99999999999898
 22
-53.07198559799687
 32
0.0
 13
-14.99999999999898
 23
-53.07198559799687
 33
0.0
  0
SOLID
  5
2C8
330
2C1
100
AcDbEntity
  8
Izmeri
 62
     0
100
AcDbTrace
 10
-2.499999999998977
 20
-53.48865226466354
 30
0.0
 11
-2.499999999998977
 21
-52.65531893133021
 31
0.0
 12
0.0000000000010232
 22
-53.07198559799687
 32
0.0
 13
0.0000000000010232
 23
-53.07198559799687
 33
0.0
  0
MTEXT
  5
2C9
330
2C1
100
AcDbEntity
  8
Izmeri
 62
     0
100
AcDbMText
 10
-7.499999999998977
 20
-51.17055312869264
 30
0.0
 40
2.5
 41
0.0
 46
0.0
 71
     5
 72
     1
  1
15
 73
     1
 44
1.0
  0
POINT
  5
2CA
330
2C1
100
AcDbEntity
  8
Defpoints
 62
     0
100
AcDbPoint
 10
-14.99999999999898
 20
-34.99999999999443
 30
0.0
  0
POINT
  5
2CB
330
2C1
100
AcDbEntity
  8
Defpoints
 62
     0
100
AcDbPoint
 10
0.0000000000010232
 20
-34.99999999999443
 30
0.0
  0
POINT
  5
2CC
330
2C1
100
AcDbEntity
  8
Defpoints
 62
     0
100
AcDbPoint
 10
0.0000000000010232
 20
-53.07198559799687
 30
0.0
  0
ENDBLK
  5
2C3
330
2C1
100
AcDbEntity
  8
0
100
AcDbBlockEnd
  0
BLOCK
  5
2CE
330
2CD
100
AcDbEntity
  8
0
100
AcDbBlockBegin
  2
*D30
 70
     1
 10
0.0
 20
0.0
 30
0.0
  3
*D30
  1
*D30
  0
LINE
  5
2D0
330
2CD
100
AcDbEntity
  8
Izmeri
 62
     0
370
    -2
100
AcDbLine
 10
0.0000000000010232
 20
-35.62499999999443
 30
0.0
 11
0.0000000000010232
 21
-54.32198559799687
 31
0.0
  0
LINE
  5
2D1
330
2CD
100
AcDbEntity
  8
Izmeri
 62
     0
370
    -2
100
AcDbLine
 10
15.00000000000102
 20
-35.62499999999443
 30
0.0
 11
15.00000000000102
 21
-54.32198559799687
 31
0.0
  0
LINE
  5
2D2
330
2CD
100
AcDbEntity
  8
Izmeri
 62
     0
370
    -2
100
AcDbLine
 10
2.500000000001023
 20
-53.07198559799687
 30
0.0
 11
12.50000000000102
 21
-53.07198559799687
 31
0.0
  0
SOLID
  5
2D3
330
2CD
100
AcDbEntity
  8
Izmeri
 62
     0
100
AcDbTrace
 10
2.500000000001023
 20
-52.65531893133021
 30
0.0
 11
2.500000000001023
 21
-53.48865226466354
 31
0.0
 12
0.0000000000010232
 22
-53.07198559799687
 32
0.0
 13
0.0000000000010232
 23
-53.07198559799687
 33
0.0
  0
SOLID
  5
2D4
330
2CD
100
AcDbEntity
  8
Izmeri
 62
     0
100
AcDbTrace
 10
12.50000000000102
 20
-53.48865226466354
 30
0.0
 11
12.50000000000102
 21
-52.65531893133021
 31
0.0
 12
15.00000000000102
 22
-53.07198559799687
 32
0.0
 13
15.00000000000102
 23
-53.07198559799687
 33
0.0
  0
MTEXT
  5
2D5
330
2CD
100
AcDbEntity
  8
Izmeri
 62
     0
100
AcDbMText
 10
7.500000000001023
 20
-51.17055312869264
 30
0.0
 40
2.5
 41
0.0
 46
0.0
 71
     5
 72
     1
  1
15
 73
     1
 44
1.0
  0
POINT
  5
2D6
330
2CD
100
AcDbEntity
  8
Defpoints
 62
     0
100
AcDbPoint
 10
0.0000000000010232
 20
-34.99999999999443
 30
0.0
  0
POINT
  5
2D7
330
2CD
100
AcDbEntity
  8
Defpoints
 62
     0
100
AcDbPoint
 10
15.00000000000102
 20
-34.99999999999443
 30
0.0
  0
POINT
  5
2D8
330
2CD
100
AcDbEntity
  8
Defpoints
 62
     0
100
AcDbPoint
 10
15.00000000000102
 20
-53.07198559799687
 30
0.0
  0
ENDBLK
  5
2CF
330
2CD
100
AcDbEntity
  8
0
100
AcDbBlockEnd
  0
BLOCK
  5
2DA
330
2D9
100
AcDbEntity
  8
0
100
AcDbBlockBegin
  2
*D31
 70
     1
 10
0.0
 20
0.0
 30
0.0
  3
*D31
  1
*D31
  0
LINE
  5
2DC
330
2D9
100
AcDbEntity
  8
Izmeri
 62
     0
370
    -2
100
AcDbLine
 10
15.00000000000102
 20
-35.62499999999443
 30
0.0
 11
15.00000000000102
 21
-54.32198559799687
 31
0.0
  0
LINE
  5
2DD
330
2D9
100
AcDbEntity
  8
Izmeri
 62
     0
370
    -2
100
AcDbLine
 10
41.25000000000102
 20
-33.12499999999443
 30
0.0
 11
41.25000000000102
 21
-54.32198559799687
 31
0.0
  0
LINE
  5
2DE
330
2D9
100
AcDbEntity
  8
Izmeri
 62
     0
370
    -2
100
AcDbLine
 10
17.50000000000102
 20
-53.07198559799687
 30
0.0
 11
38.75000000000102
 21
-53.07198559799687
 31
0.0
  0
SOLID
  5
2DF
330
2D9
100
AcDbEntity
  8
Izmeri
 62
     0
100
AcDbTrace
 10
17.50000000000102
 20
-52.65531893133021
 30
0.0
 11
17.50000000000102
 21
-53.48865226466354
 31
0.0
 12
15.00000000000102
 22
-53.07198559799687
 32
0.0
 13
15.00000000000102
 23
-53.07198559799687
 33
0.0
  0
SOLID
  5
2E0
330
2D9
100
AcDbEntity
  8
Izmeri
 62
     0
100
AcDbTrace
 10
38.75000000000102
 20
-53.48865226466354
 30
0.0
 11
38.75000000000102
 21
-52.65531893133021
 31
0.0
 12
41.25000000000102
 22
-53.07198559799687
 32
0.0
 13
41.25000000000102
 23
-53.07198559799687
 33
0.0
  0
MTEXT
  5
2E1
330
2D9
100
AcDbEntity
  8
Izmeri
 62
     0
100
AcDbMText
 10
28.12500000000102
 20
-50.94459814915649
 30
0.0
 40
2.5
 41
0.0
 46
0.0
 71
     5
 72
     1
  1
26,25
 73
     1
 44
1.0
  0
POINT
  5
2E2
330
2D9
100
AcDbEntity
  8
Defpoints
 62
     0
100
AcDbPoint
 10
15.00000000000102
 20
-34.99999999999443
 30
0.0
  0
POINT
  5
2E3
330
2D9
100
AcDbEntity
  8
Defpoints
 62
     0
100
AcDbPoint
 10
41.25000000000102
 20
-32.49999999999443
 30
0.0
  0
POINT
  5
2E4
330
2D9
100
AcDbEntity
  8
Defpoints
 62
     0
100
AcDbPoint
 10
41.25000000000102
 20
-53.07198559799687
 30
0.0
  0
ENDBLK
  5
2DB
330
2D9
100
AcDbEntity
  8
0
100
AcDbBlockEnd
  0
BLOCK
  5
2E6
330
2E5
100
AcDbEntity
  8
0
100
AcDbBlockBegin
  2
*D32
 70
     1
 10
0.0
 20
0.0
 30
0.0
  3
*D32
  1
*D32
  0
LINE
  5
2E8
330
2E5
100
AcDbEntity
  8
Izmeri
 62
     0
370
    -2
100
AcDbLine
 10
75.00000000000102
 20
-33.12499999999443
 30
0.0
 11
75.00000000000102
 21
-54.32198559799687
 31
0.0
  0
LINE
  5
2E9
330
2E5
100
AcDbEntity
  8
Izmeri
 62
     0
370
    -2
100
AcDbLine
 10
41.25000000000102
 20
-33.12499999999443
 30
0.0
 11
41.25000000000102
 21
-54.32198559799687
 31
0.0
  0
LINE
  5
2EA
330
2E5
100
AcDbEntity
  8
Izmeri
 62
     0
370
    -2
100
AcDbLine
 10
72.50000000000102
 20
-53.07198559799687
 30
0.0
 11
43.75000000000102
 21
-53.07198559799687
 31
0.0
  0
SOLID
  5
2EB
330
2E5
100
AcDbEntity
  8
Izmeri
 62
     0
100
AcDbTrace
 10
72.50000000000102
 20
-53.48865226466354
 30
0.0
 11
72.50000000000102
 21
-52.65531893133021
 31
0.0
 12
75.00000000000102
 22
-53.07198559799687
 32
0.0
 13
75.00000000000102
 23
-53.07198559799687
 33
0.0
  0
SOLID
  5
2EC
330
2E5
100
AcDbEntity
  8
Izmeri
 62
     0
100
AcDbTrace
 10
43.75000000000102
 20
-52.65531893133021
 30
0.0
 11
43.75000000000102
 21
-53.48865226466354
 31
0.0
 12
41.25000000000102
 22
-53.07198559799687
 32
0.0
 13
41.25000000000102
 23
-53.07198559799687
 33
0.0
  0
MTEXT
  5
2ED
330
2E5
100
AcDbEntity
  8
Izmeri
 62
     0
100
AcDbMText
 10
58.12500000000102
 20
-50.94459814915649
 30
0.0
 40
2.5
 41
0.0
 46
0.0
 71
     5
 72
     1
  1
33,75
 73
     1
 44
1.0
  0
POINT
  5
2EE
330
2E5
100
AcDbEntity
  8
Defpoints
 62
     0
100
AcDbPoint
 10
75.00000000000102
 20
-32.49999999999443
 30
0.0
  0
POINT
  5
2EF
330
2E5
100
AcDbEntity
  8
Defpoints
 62
     0
100
AcDbPoint
 10
41.25000000000102
 20
-32.49999999999443
 30
0.0
  0
POINT
  5
2F0
330
2E5
100
AcDbEntity
  8
Defpoints
 62
     0
100
AcDbPoint
 10
41.25000000000102
 20
-53.07198559799687
 30
0.0
  0
ENDBLK
  5
2E7
330
2E5
100
AcDbEntity
  8
0
100
AcDbBlockEnd
  0
BLOCK
  5
2F2
330
2F1
100
AcDbEntity
  8
0
100
AcDbBlockBegin
  2
*D33
 70
     1
 10
0.0
 20
0.0
 30
0.0
  3
*D33
  1
*D33
  0
LINE
  5
2F4
330
2F1
100
AcDbEntity
  8
Izmeri
 62
     0
370
    -2
100
AcDbLine
 10
75.00000000000102
 20
-33.12499999999443
 30
0.0
 11
75.00000000000102
 21
-54.32198559799687
 31
0.0
  0
LINE
  5
2F5
330
2F1
100
AcDbEntity
  8
Izmeri
 62
     0
370
    -2
100
AcDbLine
 10
82.50000000000102
 20
-33.12499999999443
 30
0.0
 11
82.50000000000102
 21
-54.32198559799687
 31
0.0
  0
LINE
  5
2F6
330
2F1
100
AcDbEntity
  8
Izmeri
 62
     0
370
    -2
100
AcDbLine
 10
77.50000000000102
 20
-53.07198559799687
 30
0.0
 11
80.00000000000102
 21
-53.07198559799687
 31
0.0
  0
SOLID
  5
2F7
330
2F1
100
AcDbEntity
  8
Izmeri
 62
     0
100
AcDbTrace
 10
77.50000000000102
 20
-52.65531893133021
 30
0.0
 11
77.50000000000102
 21
-53.48865226466354
 31
0.0
 12
75.00000000000102
 22
-53.07198559799687
 32
0.0
 13
75.00000000000102
 23
-53.07198559799687
 33
0.0
  0
SOLID
  5
2F8
330
2F1
100
AcDbEntity
  8
Izmeri
 62
     0
100
AcDbTrace
 10
80.00000000000102
 20
-53.48865226466354
 30
0.0
 11
80.00000000000102
 21
-52.65531893133021
 31
0.0
 12
82.50000000000102
 22
-53.07198559799687
 32
0.0
 13
82.50000000000102
 23
-53.07198559799687
 33
0.0
  0
MTEXT
  5
2F9
330
2F1
100
AcDbEntity
  8
Izmeri
 62
     0
100
AcDbMText
 10
78.75000000000102
 20
-50.94971411095731
 30
0.0
 40
2.5
 41
0.0
 46
0.0
 71
     5
 72
     1
  1
7,5
 73
     1
 44
1.0
  0
POINT
  5
2FA
330
2F1
100
AcDbEntity
  8
Defpoints
 62
     0
100
AcDbPoint
 10
75.00000000000102
 20
-32.49999999999443
 30
0.0
  0
POINT
  5
2FB
330
2F1
100
AcDbEntity
  8
Defpoints
 62
     0
100
AcDbPoint
 10
82.50000000000102
 20
-32.49999999999443
 30
0.0
  0
POINT
  5
2FC
330
2F1
100
AcDbEntity
  8
Defpoints
 62
     0
100
AcDbPoint
 10
82.50000000000102
 20
-53.07198559799687
 30
0.0
  0
ENDBLK
  5
2F3
330
2F1
100
AcDbEntity
  8
0
100
AcDbBlockEnd
  0
ENDSEC
  0
SECTION
  2
ENTITIES
  0
CIRCLE
  5
1FC
330
1F
100
AcDbEntity
  8
0
100
AcDbCircle
 10
-0.0000000000084128
 20
35.00000000000557
 30
0.0
 40
1.65
  0
CIRCLE
  5
1FD
330
1F
100
AcDbEntity
  8
0
100
AcDbCircle
 10
14.99999999999159
 20
35.00000000000921
 30
0.0
 40
1.65
  0
CIRCLE
  5
1FE
102
{ACAD_REACTORS
330
22D
330
230
102
}
330
1F
100
AcDbEntity
  8
0
100
AcDbCircle
 10
-14.99999999999898
 20
-34.99999999999443
 30
0.0
 40
1.65
  0
CIRCLE
  5
1FF
102
{ACAD_REACTORS
330
230
330
233
102
}
330
1F
100
AcDbEntity
  8
0
100
AcDbCircle
 10
0.0000000000010232
 20
-34.99999999999443
 30
0.0
 40
1.65
  0
CIRCLE
  5
200
102
{ACAD_REACTORS
330
233
330
236
102
}
330
1F
100
AcDbEntity
  8
0
100
AcDbCircle
 10
15.00000000000102
 20
-34.99999999999443
 30
0.0
 40
1.65
  0
CIRCLE
  5
201
330
1F
100
AcDbEntity
  8
0
100
AcDbCircle
 10
9.999999999999204
 20
26.07000000000647
 30
0.0
 40
2.74999999998289
  0
CIRCLE
  5
202
330
1F
100
AcDbEntity
  8
0
100
AcDbCircle
 10
-10.0000000000008
 20
26.07000000000647
 30
0.0
 40
2.74999999998289
  0
CIRCLE
  5
203
330
1F
100
AcDbEntity
  8
0
100
AcDbCircle
 10
-0.0000000000007958
 20
26.07000000000556
 30
0.0
 40
2.74999999998289
  0
CIRCLE
  5
204
330
1F
100
AcDbEntity
  8
0
100
AcDbCircle
 10
10.0000000000008
 20
-26.07000000000647
 30
0.0
 40
2.74999999998289
  0
CIRCLE
  5
205
330
1F
100
AcDbEntity
  8
0
100
AcDbCircle
 10
-9.999999999999204
 20
-26.07000000000647
 30
0.0
 40
2.74999999998289
  0
CIRCLE
  5
206
330
1F
100
AcDbEntity
  8
0
100
AcDbCircle
 10
0.0000000000007958
 20
-26.07000000000556
 30
0.0
 40
2.74999999998289
  0
CIRCLE
  5
207
330
1F
100
AcDbEntity
  8
0
100
AcDbCircle
 10
-15.00000000000841
 20
35.00000000000199
 30
0.0
 40
1.65
  0
CIRCLE
  5
208
330
1F
100
AcDbEntity
  8
BORDER
100
AcDbCircle
 10
0.0
 20
0.0
 30
0.0
 40
11.5
  0
LWPOLYLINE
  5
214
102
{ACAD_REACTORS
330
22A
330
23C
102
}
330
1F
100
AcDbEntity
  8
BORDER
100
AcDbPolyline
 90
       21
 70
     0
 43
0.0
 10
-78.12499999999883
 20
-39.99999999999443
 10
77.50000000000102
 20
-39.99999999999443
 42
0.4142135623730951
 10
82.50000000000102
 20
-34.99999999999443
 10
82.50000000000102
 20
-24.99999999998647
 42
0.4142135623731283
 10
77.50000000000045
 20
-19.99999999998647
 10
72.50000000000603
 20
-19.99999999998695
 42
-1.000000000000057
 10
72.50000000000409
 20
19.99999999999585
 10
77.50000000000102
 20
19.99999999999585
 42
0.4142135623730951
 10
82.50000000000102
 20
24.99999999999585
 10
82.50000000000102
 20
35.00000000000557
 42
0.4142135623730951
 10
77.50000000000102
 20
40.00000000000557
 10
-77.49999999999895
 20
40.00000000000557
 42
0.4142135623730951
 10
-82.49999999999895
 20
35.00000000000557
 10
-82.49999999999895
 20
24.99999999997971
 42
0.4142135623730951
 10
-77.49999999999895
 20
19.99999999997971
 10
-72.50000000000202
 20
19.99999999997971
 42
-1.000000000000085
 10
-72.50000000000509
 20
-19.99999999997632
 10
-77.49999999999815
 20
-19.99999999997556
 42
0.4142135623731417
 10
-82.49999999999895
 20
-24.99999999997556
 10
-82.49999999999895
 20
-34.99999999999443
 42
0.4142135623730951
 10
-77.49999999999895
 20
-39.99999999999443
  0
LWPOLYLINE
  5
215
102
{ACAD_REACTORS
330
227
330
22A
102
}
330
1F
100
AcDbEntity
  8
0
100
AcDbPolyline
 90
        4
 70
     1
 43
0.0
 10
-73.34999999999897
 20
-32.49999999999443
 10
-73.34999999999897
 20
-29.99999999999443
 42
0.9999999999999999
 10
-76.64999999999893
 20
-29.99999999999443
 10
-76.64999999999893
 20
-32.49999999999443
 42
0.9999999999999999
  0
LWPOLYLINE
  5
216
102
{ACAD_REACTORS
330
227
330
22D
102
}
330
1F
100
AcDbEntity
  8
0
100
AcDbPolyline
 90
        4
 70
     1
 43
0.0
 10
-39.599999999999
 20
-32.49999999999443
 10
-39.599999999999
 20
-29.99999999999443
 42
0.9999999999999999
 10
-42.89999999999895
 20
-29.99999999999443
 10
-42.89999999999895
 20
-32.49999999999443
 42
0.9999999999999999
  0
LWPOLYLINE
  5
217
102
{ACAD_REACTORS
330
236
330
239
102
}
330
1F
100
AcDbEntity
  8
0
100
AcDbPolyline
 90
        4
 70
     1
 43
0.0
 10
42.900000000001
 20
-32.49999999999443
 10
42.900000000001
 20
-29.99999999999443
 42
0.9999999999999999
 10
39.60000000000105
 20
-29.99999999999443
 10
39.60000000000105
 20
-32.49999999999443
 42
0.9999999999999999
  0
LWPOLYLINE
  5
218
102
{ACAD_REACTORS
330
239
330
23C
102
}
330
1F
100
AcDbEntity
  8
0
100
AcDbPolyline
 90
        4
 70
     1
 43
0.0
 10
76.650000000001
 20
-32.49999999999443
 10
76.650000000001
 20
-29.99999999999443
 42
0.9999999999999999
 10
73.35000000000105
 20
-29.99999999999443
 10
73.35000000000105
 20
-32.49999999999443
 42
0.9999999999999999
  0
LWPOLYLINE
  5
219
330
1F
100
AcDbEntity
  8
BORDER
100
AcDbPolyline
 90
        4
 70
     1
 43
0.0
 10
39.59999999999377
 20
30.0000000000133
 42
1.000000000000017
 10
42.89999999999372
 20
30.00000000001404
 10
42.89999999999316
 20
32.50000000001404
 42
0.9999999999999826
 10
39.5999999999932
 20
32.5000000000133
  0
LWPOLYLINE
  5
21A
330
1F
100
AcDbEntity
  8
BORDER
100
AcDbPolyline
 90
        4
 70
     1
 43
0.0
 10
76.64999999999316
 20
32.50000000002217
 42
0.9999999999999999
 10
73.3499999999932
 20
32.50000000002137
 10
73.34999999999377
 20
30.00000000002137
 42
0.9999999999999999
 10
76.64999999999384
 20
30.00000000002217
  0
LWPOLYLINE
  5
21B
330
1F
100
AcDbEntity
  8
0
100
AcDbPolyline
 90
        4
 70
     1
 43
0.0
 10
-73.35000000000682
 20
32.49999999998977
 10
-73.35000000000613
 20
29.99999999998977
 42
-0.9999999999999999
 10
-76.65000000000609
 20
29.99999999998897
 10
-76.65000000000666
 20
32.49999999998897
 42
-0.9999999999999999
  0
LWPOLYLINE
  5
21C
330
1F
100
AcDbEntity
  8
0
100
AcDbPolyline
 90
        4
 70
     1
 43
0.0
 10
-39.60000000000684
 20
32.49999999999784
 10
-39.60000000000616
 20
29.99999999999784
 42
-0.9999999999999826
 10
-42.90000000000623
 20
29.9999999999971
 10
-42.9000000000068
 20
32.4999999999971
 42
-1.000000000000017
  0
LWPOLYLINE
  5
21D
330
1F
100
AcDbEntity
  8
BORDER
100
AcDbPolyline
 90
        4
 70
     1
 43
0.0
 10
14.33327381104232
 20
-16.66672618895791
 42
0.9999999999999999
 10
16.6667261889578
 20
-14.3332738110422
 10
14.16672618895757
 20
-11.83327381104212
 42
0.9999999999999999
 10
11.8332738110422
 20
-14.16672618895788
  0
LWPOLYLINE
  5
21E
330
1F
100
AcDbEntity
  8
BORDER
100
AcDbPolyline
 90
        4
 70
     1
 43
0.0
 10
-14.16672618895768
 20
-11.8332738110422
 10
-16.66672618895768
 20
-14.33327381104212
 42
0.9999999999999999
 10
-14.33327381104232
 20
-16.66672618895788
 10
-11.8332738110422
 20
-14.16672618895788
 42
0.9999999999999999
  0
LWPOLYLINE
  5
21F
330
1F
100
AcDbEntity
  8
BORDER
100
AcDbPolyline
 90
        4
 70
     1
 43
0.0
 10
-14.33327381104232
 20
16.66672618895791
 42
0.9999999999999999
 10
-16.66672618895768
 20
14.33327381104209
 10
-14.16672618895768
 20
11.8332738110422
 42
0.9999999999999999
 10
-11.8332738110422
 20
14.16672618895788
  0
LWPOLYLINE
  5
220
330
1F
100
AcDbEntity
  8
BORDER
100
AcDbPolyline
 90
        4
 70
     1
 43
0.0
 10
14.16672618895768
 20
11.8332738110422
 10
16.66672618895768
 20
14.33327381104209
 42
1.0
 10
14.33327381104237
 20
16.66672618895791
 10
11.8332738110422
 20
14.16672618895788
 42
0.9999999999999999
  0
LWPOLYLINE
  5
221
330
1F
100
AcDbEntity
  8
BORDER
100
AcDbPolyline
 90
        4
 70
     1
 43
0.0
 10
21.57583228685678
 20
-28.32346138427695
 42
-1.000000000000003
 10
18.4211618869457
 20
-23.81812514071549
 10
21.99266480004565
 20
-21.31733187822482
 42
-1.0
 10
25.14733519995673
 20
-25.82266812178631
  0
LWPOLYLINE
  5
222
330
1F
100
AcDbEntity
  8
BORDER
100
AcDbPolyline
 90
        4
 70
     1
 43
0.0
 10
21.57583228685678
 20
28.32346138427809
 42
0.9999999999999999
 10
18.4211618869457
 20
23.81812514071663
 10
21.99266480004565
 20
21.31733187822596
 42
0.9999999999999999
 10
25.14733519995673
 20
25.82266812178742
  0
LWPOLYLINE
  5
223
330
1F
100
AcDbEntity
  8
BORDER
100
AcDbPolyline
 90
        4
 70
     1
 43
0.0
 10
-21.57583228685473
 20
28.32346138427809
 42
-0.9999999999999999
 10
-18.42116188694365
 20
23.81812514071663
 10
-21.9926648000436
 20
21.31733187822596
 42
-0.9999999999999999
 10
-25.14733519995468
 20
25.82266812178742
  0
LWPOLYLINE
  5
224
330
1F
100
AcDbEntity
  8
BORDER
100
AcDbPolyline
 90
        4
 70
     1
 43
0.0
 10
-21.57583228685473
 20
-28.32346138427695
 42
1.000000000000003
 10
-18.42116188694365
 20
-23.81812514071549
 10
-21.9926648000436
 20
-21.31733187822482
 42
0.9999999999999999
 10
-25.14733519995468
 20
-25.82266812178631
  0
ENDSEC
  0
SECTION
  2
OBJECTS
  0
DICTIONARY
  5
C
330
0
100
AcDbDictionary
281
     1
  3
ACAD_COLOR
350
C2
  3
ACAD_DETAILVIEWSTYLE
350
B5
  3
ACAD_GROUP
350
D
  3
ACAD_IMAGE_VARS
350
6A
  3
ACAD_LAYOUT
350
1A
  3
ACAD_MATERIAL
350
72
  3
ACAD_MLEADERSTYLE
350
3F
  3
ACAD_MLINESTYLE
350
17
  3
ACAD_PLOTSETTINGS
350
19
  3
ACAD_PLOTSTYLENAME
350
E
  3
ACAD_SCALELIST
350
40
  3
ACAD_SECTIONVIEWSTYLE
350
B6
  3
ACAD_TABLESTYLE
350
3B
  3
ACAD_VISUALSTYLE
350
2A
  3
AcDbVariableDictionary
350
3D
  3
ACDB_RECOMPOSE_DATA
350
300
  3
APPDATA
350
71
  0
SUN
  5
80
330
29
100
AcDbSun
 90
        1
290
     0
 63
     7
421
 16777215
 40
1.0
291
     1
 91
  2455826
 92
 54000000
292
     0
 70
     2
 71
   256
280
     1
  0
DICTIONARY
  5
1EC
330
2
100
AcDbDictionary
280
     1
281
     1
  3
ACAD_LAYERSTATES
360
1ED
  0
DICTIONARY
  5
C2
102
{ACAD_REACTORS
330
C
102
}
330
C
100
AcDbDictionary
281
     1
  0
DICTIONARY
  5
B5
102
{ACAD_REACTORS
330
C
102
}
330
C
100
AcDbDictionary
281
     1
  0
DICTIONARY
  5
D
102
{ACAD_REACTORS
330
C
102
}
330
C
100
AcDbDictionary
281
     1
  0
RASTERVARIABLES
  5
6A
102
{ACAD_REACTORS
330
C
102
}
330
C
100
AcDbRasterVariables
 90
        0
 70
     1
 71
     1
 72
     1
  0
DICTIONARY
  5
1A
102
{ACAD_REACTORS
330
C
102
}
330
C
100
AcDbDictionary
281
     1
  3
Model
350
22
  3
Sheet1
350
1E
  3
Sheet2
350
26
  0
DICTIONARY
  5
72
102
{ACAD_REACTORS
330
C
102
}
330
C
100
AcDbDictionary
281
     1
  3
ByBlock
350
74
  3
ByLayer
350
73
  3
Global
350
75
  0
DICTIONARY
  5
3F
102
{ACAD_REACTORS
330
C
102
}
330
C
100
AcDbDictionary
281
     1
  3
Standard
350
B7
  0
DICTIONARY
  5
17
102
{ACAD_REACTORS
330
C
102
}
330
C
100
AcDbDictionary
281
     1
  3
Standard
350
18
  0
DICTIONARY
  5
19
102
{ACAD_REACTORS
330
C
102
}
330
C
100
AcDbDictionary
281
     1
  0
ACDBDICTIONARYWDFLT
  5
E
102
{ACAD_REACTORS
330
C
102
}
330
C
100
AcDbDictionary
281
     1
  3
Normal
350
F
100
AcDbDictionaryWithDefault
340
F
  0
DICTIONARY
  5
40
102
{ACAD_REACTORS
330
C
102
}
330
C
100
AcDbDictionary
281
     1
  3
A0
350
41
  3
A1
350
42
  3
A2
350
43
  3
A3
350
44
  3
A4
350
45
  3
A5
350
46
  3
A6
350
47
  3
A7
350
48
  3
A8
350
49
  3
A9
350
4A
  3
B0
350
4B
  3
B1
350
4C
  3
B2
350
4D
  3
B3
350
4E
  3
B4
350
4F
  3
B5
350
50
  3
B6
350
51
  3
B7
350
52
  3
B8
350
53
  3
B9
350
54
  3
C0
350
55
  3
C1
350
56
  3
C2
350
57
  3
C3
350
58
  3
C4
350
59
  3
C5
350
5A
  3
C6
350
5B
  3
C7
350
5C
  3
C8
350
5D
  3
C9
350
5E
  3
D0
350
5F
  3
D1
350
60
  3
D2
350
61
  0
DICTIONARY
  5
B6
102
{ACAD_REACTORS
330
C
102
}
330
C
100
AcDbDictionary
281
     1
  0
DICTIONARY
  5
3B
102
{ACAD_REACTORS
330
C
102
}
330
C
100
AcDbDictionary
281
     1
  3
Standard
350
3C
  0
DICTIONARY
  5
2A
102
{ACAD_REACTORS
330
C
102
}
330
C
100
AcDbDictionary
281
     1
  3
2dWireframe
350
2F
  3
3D Hidden
350
31
  3
3dWireframe
350
30
  3
Basic
350
32
  3
Brighten
350
36
  3
ColorChange
350
3A
  3
Conceptual
350
34
  3
Dim
350
35
  3
EdgeColorOff
350
7A
  3
Facepattern
350
39
  3
Flat
350
2B
  3
FlatWithEdges
350
2C
  3
Gouraud
350
2D
  3
GouraudWithEdges
350
2E
  3
Hidden
350
77
  3
JitterOff
350
78
  3
Linepattern
350
38
  3
OverhangOff
350
79
  3
Realistic
350
33
  3
Shaded
350
7F
  3
Shaded with edges
350
7E
  3
Shades of Gray
350
7B
  3
Sketchy
350
7C
  3
Thicken
350
37
  3
Wireframe
350
76
  3
X-Ray
350
7D
  0
DICTIONARY
  5
3D
102
{ACAD_REACTORS
330
C
102
}
330
C
100
AcDbDictionary
281
     1
  3
CANNOSCALE
350
62
  3
CMLEADERSTYLE
350
301
  3
CTABLESTYLE
350
3E
  3
LIGHTSINBLOCKS
350
6F
  3
XCLIPFRAME
350
70
  0
XRECORD
  5
300
102
{ACAD_REACTORS
330
C
102
}
330
C
100
AcDbXrecord
280
     1
 90
        1
330
3C
  0
DICTIONARY
  5
71
102
{ACAD_REACTORS
330
C
102
}
330
C
100
AcDbDictionary
281
     1
  0
DICTIONARY
  5
1ED
102
{ACAD_REACTORS
330
1EC
102
}
330
1EC
100
AcDbDictionary
281
     1
  0
LAYOUT
  5
22
102
{ACAD_REACTORS
330
1A
102
}
330
1A
100
AcDbPlotSettings
  1

  2
none_device
  4
ISO_A3_(420.00_x_297.00_MM)
  6

 40
7.5
 41
20.0
 42
7.5
 43
20.0
 44
420.0
 45
297.0
 46
20.78282828282826
 47
0.0
 48
0.0
 49
0.0
140
0.0
141
0.0
142
1.0
143
1.155642023346303
 70
  1204
 72
     1
 73
     0
 74
     1
  7
monochrome.ctb
 75
     0
 76
     0
 77
     2
 78
   300
147
0.8653198653198654
148
-134.1869158878504
149
0.0
100
AcDbLayout
  1
Model
 70
     1
 71
     0
 10
0.0
 20
0.0
 11
420.0
 21
297.0
 12
0.0
 22
0.0
 32
0.0
 14
1.000000000000000E+20
 24
1.000000000000000E+20
 34
1.000000000000000E+20
 15
-1.000000000000000E+20
 25
-1.000000000000000E+20
 35
-1.000000000000000E+20
146
0.0
 13
0.0
 23
0.0
 33
0.0
 16
1.0
 26
0.0
 36
0.0
 17
0.0
 27
1.0
 37
0.0
 76
     0
330
1F
331
29
  0
LAYOUT
  5
1E
102
{ACAD_REACTORS
330
1A
102
}
330
1A
100
AcDbPlotSettings
  1

  2
none_device
  4

  6

 40
0.0
 41
0.0
 42
0.0
 43
0.0
 44
0.0
 45
0.0
 46
0.0
 47
0.0
 48
0.0
 49
0.0
140
0.0
141
0.0
142
1.0
143
1.0
 70
   688
 72
     0
 73
     0
 74
     5
  7

 75
    16
 76
     0
 77
     2
 78
   300
147
1.0
148
0.0
149
0.0
100
AcDbLayout
  1
Sheet1
 70
     1
 71
     1
 10
0.0
 20
0.0
 11
420.0
 21
297.0
 12
0.0
 22
0.0
 32
0.0
 14
1.000000000000000E+20
 24
1.000000000000000E+20
 34
1.000000000000000E+20
 15
-1.000000000000000E+20
 25
-1.000000000000000E+20
 35
-1.000000000000000E+20
146
0.0
 13
0.0
 23
0.0
 33
0.0
 16
1.0
 26
0.0
 36
0.0
 17
0.0
 27
1.0
 37
0.0
 76
     0
330
1B
  0
LAYOUT
  5
26
102
{ACAD_REACTORS
330
1A
102
}
330
1A
100
AcDbPlotSettings
  1

  2
none_device
  4

  6

 40
0.0
 41
0.0
 42
0.0
 43
0.0
 44
0.0
 45
0.0
 46
0.0
 47
0.0
 48
0.0
 49
0.0
140
0.0
141
0.0
142
1.0
143
1.0
 70
   688
 72
     0
 73
     0
 74
     5
  7

 75
    16
 76
     0
 77
     2
 78
   300
147
1.0
148
0.0
149
0.0
100
AcDbLayout
  1
Sheet2
 70
     1
 71
     2
 10
0.0
 20
0.0
 11
0.0
 21
0.0
 12
0.0
 22
0.0
 32
0.0
 14
0.0
 24
0.0
 34
0.0
 15
0.0
 25
0.0
 35
0.0
146
0.0
 13
0.0
 23
0.0
 33
0.0
 16
1.0
 26
0.0
 36
0.0
 17
0.0
 27
1.0
 37
0.0
 76
     0
330
23
  0
MATERIAL
  5
74
102
{ACAD_REACTORS
330
72
102
}
330
72
100
AcDbMaterial
  1
ByBlock
 72
     1
 94
      127
  0
MATERIAL
  5
73
102
{ACAD_REACTORS
330
72
102
}
330
72
100
AcDbMaterial
  1
ByLayer
 72
     1
 94
      127
  0
MATERIAL
  5
75
102
{ACAD_REACTORS
330
72
102
}
330
72
100
AcDbMaterial
  1
Global
 72
     1
 94
      127
  0
MLEADERSTYLE
  5
B7
102
{ACAD_REACTORS
330
3F
102
}
330
3F
100
AcDbMLeaderStyle
170
     2
171
     1
172
     0
 90
        2
 40
0.0
 41
0.0
173
     1
 91
-1056964608
340
14
 92
       -2
290
     1
 42
2.0
291
     1
 43
8.0
  3
Standard
341
0
 44
4.0
300

342
11
174
     1
178
     6
175
     1
176
     0
 93
-1056964608
 45
4.0
292
     0
297
     0
 46
4.0
343
0
 94
-1056964608
 47
1.0
 49
1.0
140
1.0
293
     1
141
0.0
294
     1
177
     0
142
1.0
295
     0
296
     0
143
3.75
1001
ACAD_MLEADERVER
1070
     2
  0
MLINESTYLE
  5
18
102
{ACAD_REACTORS
330
17
102
}
330
17
100
AcDbMlineStyle
  2
Standard
 70
     0
  3

 62
   256
 51
90.0
 52
90.0
 71
     2
 49
0.5
 62
   256
  6
BYLAYER
 49
-0.5
 62
   256
  6
BYLAYER
  0
ACDBPLACEHOLDER
  5
F
102
{ACAD_REACTORS
330
E
102
}
330
E
  0
SCALE
  5
41
102
{ACAD_REACTORS
330
40
102
}
330
40
100
AcDbScale
 70
     0
300
1:1
140
1.0
141
1.0
290
     1
  0
SCALE
  5
42
102
{ACAD_REACTORS
330
40
102
}
330
40
100
AcDbScale
 70
     0
300
1:2
140
1.0
141
2.0
290
     0
  0
SCALE
  5
43
102
{ACAD_REACTORS
330
40
102
}
330
40
100
AcDbScale
 70
     0
300
1:4
140
1.0
141
4.0
290
     0
  0
SCALE
  5
44
102
{ACAD_REACTORS
330
40
102
}
330
40
100
AcDbScale
 70
     0
300
1:5
140
1.0
141
5.0
290
     0
  0
SCALE
  5
45
102
{ACAD_REACTORS
330
40
102
}
330
40
100
AcDbScale
 70
     0
300
1:8
140
1.0
141
8.0
290
     0
  0
SCALE
  5
46
102
{ACAD_REACTORS
330
40
102
}
330
40
100
AcDbScale
 70
     0
300
1:10
140
1.0
141
10.0
290
     0
  0
SCALE
  5
47
102
{ACAD_REACTORS
330
40
102
}
330
40
100
AcDbScale
 70
     0
300
1:16
140
1.0
141
16.0
290
     0
  0
SCALE
  5
48
102
{ACAD_REACTORS
330
40
102
}
330
40
100
AcDbScale
 70
     0
300
1:20
140
1.0
141
20.0
290
     0
  0
SCALE
  5
49
102
{ACAD_REACTORS
330
40
102
}
330
40
100
AcDbScale
 70
     0
300
1:30
140
1.0
141
30.0
290
     0
  0
SCALE
  5
4A
102
{ACAD_REACTORS
330
40
102
}
330
40
100
AcDbScale
 70
     0
300
1:40
140
1.0
141
40.0
290
     0
  0
SCALE
  5
4B
102
{ACAD_REACTORS
330
40
102
}
330
40
100
AcDbScale
 70
     0
300
1:50
140
1.0
141
50.0
290
     0
  0
SCALE
  5
4C
102
{ACAD_REACTORS
330
40
102
}
330
40
100
AcDbScale
 70
     0
300
1:100
140
1.0
141
100.0
290
     0
  0
SCALE
  5
4D
102
{ACAD_REACTORS
330
40
102
}
330
40
100
AcDbScale
 70
     0
300
2:1
140
2.0
141
1.0
290
     0
  0
SCALE
  5
4E
102
{ACAD_REACTORS
330
40
102
}
330
40
100
AcDbScale
 70
     0
300
4:1
140
4.0
141
1.0
290
     0
  0
SCALE
  5
4F
102
{ACAD_REACTORS
330
40
102
}
330
40
100
AcDbScale
 70
     0
300
8:1
140
8.0
141
1.0
290
     0
  0
SCALE
  5
50
102
{ACAD_REACTORS
330
40
102
}
330
40
100
AcDbScale
 70
     0
300
10:1
140
10.0
141
1.0
290
     0
  0
SCALE
  5
51
102
{ACAD_REACTORS
330
40
102
}
330
40
100
AcDbScale
 70
     0
300
100:1
140
100.0
141
1.0
290
     0
  0
SCALE
  5
52
102
{ACAD_REACTORS
330
40
102
}
330
40
100
AcDbScale
 70
     0
300
1/128" = 1'-0"
140
0.0078125
141
12.0
290
     0
  0
SCALE
  5
53
102
{ACAD_REACTORS
330
40
102
}
330
40
100
AcDbScale
 70
     0
300
1/64" = 1'-0"
140
0.015625
141
12.0
290
     0
  0
SCALE
  5
54
102
{ACAD_REACTORS
330
40
102
}
330
40
100
AcDbScale
 70
     0
300
1/32" = 1'-0"
140
0.03125
141
12.0
290
     0
  0
SCALE
  5
55
102
{ACAD_REACTORS
330
40
102
}
330
40
100
AcDbScale
 70
     0
300
1/16" = 1'-0"
140
0.0625
141
12.0
290
     0
  0
SCALE
  5
56
102
{ACAD_REACTORS
330
40
102
}
330
40
100
AcDbScale
 70
     0
300
3/32" = 1'-0"
140
0.09375
141
12.0
290
     0
  0
SCALE
  5
57
102
{ACAD_REACTORS
330
40
102
}
330
40
100
AcDbScale
 70
     0
300
1/8" = 1'-0"
140
0.125
141
12.0
290
     0
  0
SCALE
  5
58
102
{ACAD_REACTORS
330
40
102
}
330
40
100
AcDbScale
 70
     0
300
3/16" = 1'-0"
140
0.1875
141
12.0
290
     0
  0
SCALE
  5
59
102
{ACAD_REACTORS
330
40
102
}
330
40
100
AcDbScale
 70
     0
300
1/4" = 1'-0"
140
0.25
141
12.0
290
     0
  0
SCALE
  5
5A
102
{ACAD_REACTORS
330
40
102
}
330
40
100
AcDbScale
 70
     0
300
3/8" = 1'-0"
140
0.375
141
12.0
290
     0
  0
SCALE
  5
5B
102
{ACAD_REACTORS
330
40
102
}
330
40
100
AcDbScale
 70
     0
300
1/2" = 1'-0"
140
0.5
141
12.0
290
     0
  0
SCALE
  5
5C
102
{ACAD_REACTORS
330
40
102
}
330
40
100
AcDbScale
 70
     0
300
3/4" = 1'-0"
140
0.75
141
12.0
290
     0
  0
SCALE
  5
5D
102
{ACAD_REACTORS
330
40
102
}
330
40
100
AcDbScale
 70
     0
300
1" = 1'-0"
140
1.0
141
12.0
290
     0
  0
SCALE
  5
5E
102
{ACAD_REACTORS
330
40
102
}
330
40
100
AcDbScale
 70
     0
300
1-1/2" = 1'-0"
140
1.5
141
12.0
290
     0
  0
SCALE
  5
5F
102
{ACAD_REACTORS
330
40
102
}
330
40
100
AcDbScale
 70
     0
300
3" = 1'-0"
140
3.0
141
12.0
290
     0
  0
SCALE
  5
60
102
{ACAD_REACTORS
330
40
102
}
330
40
100
AcDbScale
 70
     0
300
6" = 1'-0"
140
6.0
141
12.0
290
     0
  0
SCALE
  5
61
102
{ACAD_REACTORS
330
40
102
}
330
40
100
AcDbScale
 70
     0
300
1'-0" = 1'-0"
140
12.0
141
12.0
290
     0
  0
TABLESTYLE
  5
3C
102
{ACAD_REACTORS
330
3B
102
}
102
{ACAD_XDICTIONARY
360
2FD
102
}
330
3B
100
AcDbTableStyle
  3
Standard
 70
     0
 71
     0
 40
1.5
 41
1.5
280
     0
281
     0
  7
Standard
140
4.5
170
     2
 62
     0
 63
   257
283
     0
 90
      512
 91
        0
  1

274
    -2
284
     1
 64
     0
275
    -2
285
     1
 65
     0
276
    -2
286
     1
 66
     0
277
    -2
287
     1
 67
     0
278
    -2
288
     1
 68
     0
279
    -2
289
     1
 69
     0
  7
Standard
140
6.0
170
     5
 62
     0
 63
   257
283
     0
 90
      512
 91
        0
  1

274
    -2
284
     1
 64
     0
275
    -2
285
     1
 65
     0
276
    -2
286
     1
 66
     0
277
    -2
287
     1
 67
     0
278
    -2
288
     1
 68
     0
279
    -2
289
     1
 69
     0
  7
Standard
140
4.5
170
     5
 62
     0
 63
   257
283
     0
 90
      512
 91
        0
  1

274
    -2
284
     1
 64
     0
275
    -2
285
     1
 65
     0
276
    -2
286
     1
 66
     0
277
    -2
287
     1
 67
     0
278
    -2
288
     1
 68
     0
279
    -2
289
     1
 69
     0
  0
VISUALSTYLE
  5
2F
102
{ACAD_REACTORS
330
2A
102
}
330
2A
100
AcDbVisualStyle
  2
2dWireframe
 70
     4
 71
     0
 72
     2
 73
     0
 90
        0
 40
-0.6
 41
-30.0
 62
     5
 63
     7
421
 16777215
 74
     1
 91
        4
 64
     7
 65
   257
 75
     1
175
     1
 42
1.0
 92
        0
 66
   257
 43
1.0
 76
     1
 77
     6
 78
     2
 67
     7
 79
     5
170
     0
171
     0
290
     0
174
     0
 93
        1
 44
0.0
173
     0
291
     0
 45
0.0
  0
VISUALSTYLE
  5
31
102
{ACAD_REACTORS
330
2A
102
}
330
2A
100
AcDbVisualStyle
  2
3D Hidden
 70
     6
 71
     1
 72
     2
 73
     2
 90
        0
 40
-0.6
 41
-30.0
 62
     5
 63
     7
421
 16777215
 74
     2
 91
        2
 64
     7
 65
   257
 75
     2
175
     1
 42
40.0
 92
        0
 66
   257
 43
1.0
 76
     1
 77
     6
 78
     2
 67
     7
 79
     3
170
     0
171
     0
290
     0
174
     0
 93
        1
 44
0.0
173
     0
291
     0
 45
0.0
  0
VISUALSTYLE
  5
30
102
{ACAD_REACTORS
330
2A
102
}
330
2A
100
AcDbVisualStyle
  2
3dWireframe
 70
     5
 71
     0
 72
     2
 73
     0
 90
        0
 40
-0.6
 41
-30.0
 62
     5
 63
     7
421
 16777215
 74
     1
 91
        4
 64
     7
 65
   257
 75
     1
175
     1
 42
1.0
 92
        0
 66
   257
 43
1.0
 76
     1
 77
     6
 78
     2
 67
     7
 79
     5
170
     0
171
     0
290
     0
174
     0
 93
        1
 44
0.0
173
     0
291
     0
 45
0.0
  0
VISUALSTYLE
  5
32
102
{ACAD_REACTORS
330
2A
102
}
330
2A
100
AcDbVisualStyle
  2
Basic
 70
     7
 71
     1
 72
     0
 73
     1
 90
        0
 40
-0.6
 41
-30.0
 62
     5
 63
     7
421
 16777215
 74
     0
 91
        4
 64
     7
 65
   257
 75
     1
175
     1
 42
1.0
 92
        8
 66
     7
 43
1.0
 76
     1
 77
     6
 78
     2
 67
     7
 79
     5
170
     0
171
     0
290
     0
174
     0
 93
        1
 44
0.0
173
     0
291
     1
 45
0.0
  0
VISUALSTYLE
  5
36
102
{ACAD_REACTORS
330
2A
102
}
330
2A
100
AcDbVisualStyle
  2
Brighten
 70
    12
 71
     2
 72
     2
 73
     0
 90
        0
 40
-0.6
 41
-30.0
 62
     5
 63
     7
421
 16777215
 74
     1
 91
        4
 64
     7
 65
   257
 75
     1
175
     1
 42
1.0
 92
        8
 66
     7
 43
1.0
 76
     1
 77
     6
 78
     2
 67
     7
 79
     5
170
     0
171
     0
290
     0
174
     0
 93
        1
 44
50.0
173
     0
291
     1
 45
0.0
  0
VISUALSTYLE
  5
3A
102
{ACAD_REACTORS
330
2A
102
}
330
2A
100
AcDbVisualStyle
  2
ColorChange
 70
    16
 71
     2
 72
     2
 73
     3
 90
        0
 40
-0.6
 41
-30.0
 62
     5
 63
     8
421
  8421504
 74
     1
 91
        4
 64
     7
 65
   257
 75
     1
175
     1
 42
1.0
 92
        8
 66
     8
424
  8421504
 43
1.0
 76
     1
 77
     6
 78
     2
 67
     7
 79
     5
170
     0
171
     0
290
     0
174
     0
 93
        1
 44
0.0
173
     0
291
     1
 45
0.0
  0
VISUALSTYLE
  5
34
102
{ACAD_REACTORS
330
2A
102
}
330
2A
100
AcDbVisualStyle
  2
Conceptual
 70
     9
 71
     3
 72
     2
 73
     0
 90
        0
 40
-0.6
 41
-30.0
 62
     5
 63
     7
421
 16777215
 74
     2
 91
        2
 64
     7
 65
   257
 75
     1
175
     1
 42
40.0
 92
        8
 66
     7
 43
1.0
 76
     1
 77
     6
 78
     2
 67
     7
 79
     3
170
     0
171
     0
290
     0
174
     0
 93
        1
 44
0.0
173
     0
291
     0
 45
0.0
  0
VISUALSTYLE
  5
35
102
{ACAD_REACTORS
330
2A
102
}
330
2A
100
AcDbVisualStyle
  2
Dim
 70
    11
 71
     2
 72
     2
 73
     0
 90
        0
 40
-0.6
 41
-30.0
 62
     5
 63
     7
421
 16777215
 74
     1
 91
        4
 64
     7
 65
   257
 75
     1
175
     1
 42
1.0
 92
        8
 66
     7
 43
1.0
 76
     1
 77
     6
 78
     2
 67
     7
 79
     5
170
     0
171
     0
290
     0
174
     0
 93
        1
 44
-50.0
173
     0
291
     1
 45
0.0
  0
VISUALSTYLE
  5
7A
102
{ACAD_REACTORS
330
2A
102
}
330
2A
100
AcDbVisualStyle
  2
EdgeColorOff
 70
    22
 71
     2
 72
     2
 73
     0
 90
        0
 40
0.6
 41
30.0
 62
     5
 63
     7
421
 16777215
 74
     1
 91
        4
 64
     7
 65
   257
 75
     1
175
     1
 42
1.0
 92
        8
 66
     7
 43
1.0
 76
     1
 77
     6
 78
     2
 67
     7
 79
     5
170
     0
171
     0
290
     0
174
     0
 93
        1
 44
0.0
173
     0
291
     1
 45
0.0
  0
VISUALSTYLE
  5
39
102
{ACAD_REACTORS
330
2A
102
}
330
2A
100
AcDbVisualStyle
  2
Facepattern
 70
    15
 71
     2
 72
     2
 73
     0
 90
        0
 40
-0.6
 41
-30.0
 62
     5
 63
     7
421
 16777215
 74
     1
 91
        4
 64
     7
 65
   257
 75
     1
175
     1
 42
1.0
 92
        8
 66
     7
 43
1.0
 76
     1
 77
     6
 78
     2
 67
     7
 79
     5
170
     0
171
     0
290
     0
174
     0
 93
        1
 44
0.0
173
     0
291
     1
 45
0.0
  0
VISUALSTYLE
  5
2B
102
{ACAD_REACTORS
330
2A
102
}
330
2A
100
AcDbVisualStyle
  2
Flat
 70
     0
 71
     2
 72
     1
 73
     1
 90
        2
 40
-0.6
 41
30.0
 62
     5
 63
     7
421
 16777215
 74
     0
 91
        4
 64
     7
 65
   257
 75
     1
175
     1
 42
1.0
 92
        8
 66
     7
 43
1.0
 76
     1
 77
     6
 78
     2
 67
     7
 79
     5
170
     0
171
     0
290
     0
174
     0
 93
       13
 44
0.0
173
     0
291
     1
 45
0.0
  0
VISUALSTYLE
  5
2C
102
{ACAD_REACTORS
330
2A
102
}
330
2A
100
AcDbVisualStyle
  2
FlatWithEdges
 70
     1
 71
     2
 72
     1
 73
     1
 90
        2
 40
-0.6
 41
30.0
 62
     5
 63
     7
421
 16777215
 74
     1
 91
        4
 64
     7
 65
   257
 75
     1
175
     1
 42
1.0
 92
        0
 66
   257
 43
1.0
 76
     1
 77
     6
 78
     2
 67
     7
 79
     5
170
     0
171
     0
290
     0
174
     0
 93
       13
 44
0.0
173
     0
291
     1
 45
0.0
  0
VISUALSTYLE
  5
2D
102
{ACAD_REACTORS
330
2A
102
}
330
2A
100
AcDbVisualStyle
  2
Gouraud
 70
     2
 71
     2
 72
     2
 73
     1
 90
        2
 40
-0.6
 41
30.0
 62
     5
 63
     7
421
 16777215
 74
     0
 91
        4
 64
     7
 65
   257
 75
     1
175
     1
 42
1.0
 92
        0
 66
     7
 43
1.0
 76
     1
 77
     6
 78
     2
 67
     7
 79
     5
170
     0
171
     0
290
     0
174
     0
 93
       13
 44
0.0
173
     0
291
     1
 45
0.0
  0
VISUALSTYLE
  5
2E
102
{ACAD_REACTORS
330
2A
102
}
330
2A
100
AcDbVisualStyle
  2
GouraudWithEdges
 70
     3
 71
     2
 72
     2
 73
     1
 90
        2
 40
-0.6
 41
30.0
 62
     5
 63
     7
421
 16777215
 74
     1
 91
        4
 64
     7
 65
   257
 75
     1
175
     1
 42
1.0
 92
        0
 66
   257
 43
1.0
 76
     1
 77
     6
 78
     2
 67
     7
 79
     5
170
     0
171
     0
290
     0
174
     0
 93
       13
 44
0.0
173
     0
291
     1
 45
0.0
  0
VISUALSTYLE
  5
77
102
{ACAD_REACTORS
330
2A
102
}
330
2A
100
AcDbVisualStyle
  2
Hidden
 70
     6
 71
     1
 72
     2
 73
     2
 90
        0
 40
0.6
 41
30.0
 62
     5
 63
     7
421
 16777215
 74
     2
 91
        2
 64
     7
 65
   257
 75
     2
175
     1
 42
40.0
 92
        0
 66
   257
 43
1.0
 76
     1
 77
     6
 78
     2
 67
     7
 79
     3
170
     0
171
     0
290
     0
174
     0
 93
        1
 44
0.0
173
     0
291
     0
 45
0.0
  0
VISUALSTYLE
  5
78
102
{ACAD_REACTORS
330
2A
102
}
330
2A
100
AcDbVisualStyle
  2
JitterOff
 70
    20
 71
     2
 72
     2
 73
     0
 90
        0
 40
0.6
 41
30.0
 62
     5
 63
     7
421
 16777215
 74
     1
 91
        4
 64
     7
 65
   257
 75
     1
175
     1
 42
1.0
 92
       10
 66
     7
 43
1.0
 76
     1
 77
     6
 78
     2
 67
     7
 79
     5
170
     0
171
     0
290
     0
174
     0
 93
        1
 44
0.0
173
     0
291
     1
 45
0.0
  0
VISUALSTYLE
  5
38
102
{ACAD_REACTORS
330
2A
102
}
330
2A
100
AcDbVisualStyle
  2
Linepattern
 70
    14
 71
     2
 72
     2
 73
     0
 90
        0
 40
-0.6
 41
-30.0
 62
     5
 63
     7
421
 16777215
 74
     1
 91
        4
 64
     7
 65
   257
 75
     7
175
     7
 42
1.0
 92
        8
 66
     7
 43
1.0
 76
     1
 77
     6
 78
     2
 67
     7
 79
     5
170
     0
171
     0
290
     0
174
     0
 93
        1
 44
0.0
173
     0
291
     1
 45
0.0
  0
VISUALSTYLE
  5
79
102
{ACAD_REACTORS
330
2A
102
}
330
2A
100
AcDbVisualStyle
  2
OverhangOff
 70
    21
 71
     2
 72
     2
 73
     0
 90
        0
 40
0.6
 41
30.0
 62
     5
 63
     7
421
 16777215
 74
     1
 91
        4
 64
     7
 65
   257
 75
     1
175
     1
 42
1.0
 92
        9
 66
     7
 43
1.0
 76
     1
 77
     6
 78
     2
 67
     7
 79
     5
170
     0
171
     0
290
     0
174
     0
 93
        1
 44
0.0
173
     0
291
     1
 45
0.0
  0
VISUALSTYLE
  5
33
102
{ACAD_REACTORS
330
2A
102
}
330
2A
100
AcDbVisualStyle
  2
Realistic
 70
     8
 71
     2
 72
     2
 73
     0
 90
        0
 40
-0.6
 41
-30.0
 62
     5
 63
     7
421
 16777215
 74
     1
 91
        0
 64
     7
 65
   257
 75
     1
175
     1
 42
1.0
 92
        8
 66
     8
424
  7895160
 43
1.0
 76
     1
 77
     6
 78
     2
 67
     7
 79
     5
170
     0
171
     0
290
     0
174
     0
 93
       13
 44
0.0
173
     0
291
     0
 45
0.0
  0
VISUALSTYLE
  5
7F
102
{ACAD_REACTORS
330
2A
102
}
330
2A
100
AcDbVisualStyle
  2
Shaded
 70
    27
 71
     2
 72
     2
 73
     1
 90
        2
 40
0.6
 41
30.0
 62
     5
 63
     7
421
 16777215
 74
     0
 91
        4
 64
     7
 65
   257
 75
     1
175
     1
 42
1.0
 92
        8
 66
   257
 43
1.0
 76
     1
 77
     6
 78
     2
 67
     8
425
  7895160
 79
     3
170
     0
171
     0
290
     0
174
     0
 93
        5
 44
0.0
173
     0
291
     0
 45
0.0
  0
VISUALSTYLE
  5
7E
102
{ACAD_REACTORS
330
2A
102
}
330
2A
100
AcDbVisualStyle
  2
Shaded with edges
 70
    26
 71
     2
 72
     2
 73
     1
 90
        2
 40
0.6
 41
30.0
 62
     5
 63
     7
421
 16777215
 74
     1
 91
       10
 64
     7
 65
   257
 75
     2
175
     1
 42
1.0
 92
        8
 66
   257
 43
1.0
 76
     1
 77
     6
 78
     2
 67
     7
 79
     3
170
     0
171
     0
290
     0
174
     0
 93
        5
 44
0.0
173
     0
291
     0
 45
0.0
  0
VISUALSTYLE
  5
7B
102
{ACAD_REACTORS
330
2A
102
}
330
2A
100
AcDbVisualStyle
  2
Shades of Gray
 70
    23
 71
     2
 72
     2
 73
     3
 90
        0
 40
0.6
 41
30.0
 62
     5
 63
     7
421
 16777215
 74
     2
 91
        2
 64
     7
 65
     7
 75
     1
175
     1
 42
40.0
 92
        8
 66
     7
 43
1.0
 76
     1
 77
     6
 78
     2
 67
     7
 79
     3
170
     0
171
     0
290
     0
174
     0
 93
        1
 44
0.0
173
     0
291
     0
 45
0.0
  0
VISUALSTYLE
  5
7C
102
{ACAD_REACTORS
330
2A
102
}
330
2A
100
AcDbVisualStyle
  2
Sketchy
 70
    24
 71
     1
 72
     2
 73
     2
 90
        0
 40
0.6
 41
30.0
 62
     5
 63
     7
421
 16777215
 74
     2
 91
        2
 64
     7
 65
     7
 75
     1
175
     1
 42
40.0
 92
       11
 66
     7
 43
1.0
 76
     1
 77
     6
 78
     2
 67
     7
 79
     6
170
     0
171
     0
290
     0
174
     0
 93
        1
 44
0.0
173
     0
291
     0
 45
0.0
  0
VISUALSTYLE
  5
37
102
{ACAD_REACTORS
330
2A
102
}
330
2A
100
AcDbVisualStyle
  2
Thicken
 70
    13
 71
     2
 72
     2
 73
     0
 90
        0
 40
-0.6
 41
-30.0
 62
     5
 63
     7
421
 16777215
 74
     1
 91
        4
 64
     7
 65
   257
 75
     1
175
     1
 42
1.0
 92
       12
 66
     7
 43
1.0
 76
     1
 77
     6
 78
     2
 67
     7
 79
     5
170
     0
171
     0
290
     0
174
     0
 93
        1
 44
0.0
173
     0
291
     1
 45
0.0
  0
VISUALSTYLE
  5
76
102
{ACAD_REACTORS
330
2A
102
}
330
2A
100
AcDbVisualStyle
  2
Wireframe
 70
     5
 71
     0
 72
     2
 73
     0
 90
        0
 40
0.6
 41
30.0
 62
     5
 63
     7
421
 16777215
 74
     1
 91
        4
 64
     7
 65
   257
 75
     1
175
     1
 42
1.0
 92
        0
 66
   257
 43
1.0
 76
     1
 77
     6
 78
     2
 67
     7
 79
     3
170
     0
171
     0
290
     0
174
     0
 93
        1
 44
0.0
173
     0
291
     0
 45
0.0
  0
VISUALSTYLE
  5
7D
102
{ACAD_REACTORS
330
2A
102
}
330
2A
100
AcDbVisualStyle
  2
X-Ray
 70
    25
 71
     2
 72
     2
 73
     1
 90
        1
 40
0.5
 41
30.0
 62
     5
 63
     7
421
 16777215
 74
     1
 91
        0
 64
     7
 65
   257
 75
     1
175
     1
 42
1.0
 92
        8
 66
     7
 43
1.0
 76
     1
 77
     6
 78
     2
 67
     7
 79
     3
170
     0
171
     0
290
     0
174
     0
 93
       13
 44
0.0
173
     0
291
     0
 45
0.0
  0
DICTIONARYVAR
  5
62
102
{ACAD_REACTORS
330
3D
102
}
330
3D
100
DictionaryVariables
280
     0
  1
1:1
  0
DICTIONARYVAR
  5
301
102
{ACAD_REACTORS
330
3D
102
}
330
3D
100
DictionaryVariables
280
     0
  1
Standard
  0
DICTIONARYVAR
  5
3E
102
{ACAD_REACTORS
330
3D
102
}
330
3D
100
DictionaryVariables
280
     0
  1
Standard
  0
DICTIONARYVAR
  5
6F
102
{ACAD_REACTORS
330
3D
102
}
330
3D
100
DictionaryVariables
280
     0
  1
0
  0
DICTIONARYVAR
  5
70
102
{ACAD_REACTORS
330
3D
102
}
330
3D
100
DictionaryVariables
280
     0
  1
0
  0
DICTIONARY
  5
2FD
330
3C
100
AcDbDictionary
280
     1
281
     1
  3
ACAD_ROUNDTRIP_2008_TABLESTYLE_CELLSTYLEMAP
360
2FE
  0
CELLSTYLEMAP
  5
2FE
102
{ACAD_REACTORS
330
2FD
102
}
330
2FD
100
AcDbCellStyleMap
 90
        3
300
CELLSTYLE
  1
TABLEFORMAT_BEGIN
 90
        5
170
     1
 91
        0
 92
    32768
 62
   257
 93
        1
300
CONTENTFORMAT
  1
CONTENTFORMAT_BEGIN
 90
        0
 91
        0
 92
      512
 93
        0
300

 40
0.0
140
1.0
 94
        5
 62
     0
340
11
144
6.0
309
CONTENTFORMAT_END
171
     1
301
MARGIN
  1
CELLMARGIN_BEGIN
 40
1.5
 40
1.5
 40
1.5
 40
1.5
 40
0.18
 40
0.18
309
CELLMARGIN_END
 94
        6
 95
        1
302
GRIDFORMAT
  1
GRIDFORMAT_BEGIN
 90
        0
 91
        1
 62
     0
 92
       -2
340
0
 93
        0
 40
0.045
309
GRIDFORMAT_END
 95
        2
302
GRIDFORMAT
  1
GRIDFORMAT_BEGIN
 90
        0
 91
        1
 62
     0
 92
       -2
340
0
 93
        0
 40
0.045
309
GRIDFORMAT_END
 95
        4
302
GRIDFORMAT
  1
GRIDFORMAT_BEGIN
 90
        0
 91
        1
 62
     0
 92
       -2
340
0
 93
        0
 40
0.045
309
GRIDFORMAT_END
 95
        8
302
GRIDFORMAT
  1
GRIDFORMAT_BEGIN
 90
        0
 91
        1
 62
     0
 92
       -2
340
0
 93
        0
 40
0.045
309
GRIDFORMAT_END
 95
       16
302
GRIDFORMAT
  1
GRIDFORMAT_BEGIN
 90
        0
 91
        1
 62
     0
 92
       -2
340
0
 93
        0
 40
0.045
309
GRIDFORMAT_END
 95
       32
302
GRIDFORMAT
  1
GRIDFORMAT_BEGIN
 90
        0
 91
        1
 62
     0
 92
       -2
340
0
 93
        0
 40
0.045
309
GRIDFORMAT_END
309
TABLEFORMAT_END
  1
CELLSTYLE_BEGIN
 90
        1
 91
        1
300
_TITLE
309
CELLSTYLE_END
300
CELLSTYLE
  1
TABLEFORMAT_BEGIN
 90
        5
170
     1
 91
        0
 92
        0
 62
   257
 93
        1
300
CONTENTFORMAT
  1
CONTENTFORMAT_BEGIN
 90
        0
 91
        0
 92
      512
 93
        0
300

 40
0.0
140
1.0
 94
        5
 62
     0
340
11
144
4.5
309
CONTENTFORMAT_END
171
     1
301
MARGIN
  1
CELLMARGIN_BEGIN
 40
1.5
 40
1.5
 40
1.5
 40
1.5
 40
0.18
 40
0.18
309
CELLMARGIN_END
 94
        6
 95
        1
302
GRIDFORMAT
  1
GRIDFORMAT_BEGIN
 90
        0
 91
        1
 62
     0
 92
       -2
340
0
 93
        0
 40
0.045
309
GRIDFORMAT_END
 95
        2
302
GRIDFORMAT
  1
GRIDFORMAT_BEGIN
 90
        0
 91
        1
 62
     0
 92
       -2
340
0
 93
        0
 40
0.045
309
GRIDFORMAT_END
 95
        4
302
GRIDFORMAT
  1
GRIDFORMAT_BEGIN
 90
        0
 91
        1
 62
     0
 92
       -2
340
0
 93
        0
 40
0.045
309
GRIDFORMAT_END
 95
        8
302
GRIDFORMAT
  1
GRIDFORMAT_BEGIN
 90
        0
 91
        1
 62
     0
 92
       -2
340
0
 93
        0
 40
0.045
309
GRIDFORMAT_END
 95
       16
302
GRIDFORMAT
  1
GRIDFORMAT_BEGIN
 90
        0
 91
        1
 62
     0
 92
       -2
340
0
 93
        0
 40
0.045
309
GRIDFORMAT_END
 95
       32
302
GRIDFORMAT
  1
GRIDFORMAT_BEGIN
 90
        0
 91
        1
 62
     0
 92
       -2
340
0
 93
        0
 40
0.045
309
GRIDFORMAT_END
309
TABLEFORMAT_END
  1
CELLSTYLE_BEGIN
 90
        2
 91
        1
300
_HEADER
309
CELLSTYLE_END
300
CELLSTYLE
  1
TABLEFORMAT_BEGIN
 90
        5
170
     1
 91
        0
 92
        0
 62
   257
 93
        1
300
CONTENTFORMAT
  1
CONTENTFORMAT_BEGIN
 90
        0
 91
        0
 92
      512
 93
        0
300

 40
0.0
140
1.0
 94
        2
 62
     0
340
11
144
4.5
309
CONTENTFORMAT_END
171
     1
301
MARGIN
  1
CELLMARGIN_BEGIN
 40
1.5
 40
1.5
 40
1.5
 40
1.5
 40
0.18
 40
0.18
309
CELLMARGIN_END
 94
        6
 95
        1
302
GRIDFORMAT
  1
GRIDFORMAT_BEGIN
 90
        0
 91
        1
 62
     0
 92
       -2
340
0
 93
        0
 40
0.045
309
GRIDFORMAT_END
 95
        2
302
GRIDFORMAT
  1
GRIDFORMAT_BEGIN
 90
        0
 91
        1
 62
     0
 92
       -2
340
0
 93
        0
 40
0.045
309
GRIDFORMAT_END
 95
        4
302
GRIDFORMAT
  1
GRIDFORMAT_BEGIN
 90
        0
 91
        1
 62
     0
 92
       -2
340
0
 93
        0
 40
0.045
309
GRIDFORMAT_END
 95
        8
302
GRIDFORMAT
  1
GRIDFORMAT_BEGIN
 90
        0
 91
        1
 62
     0
 92
       -2
340
0
 93
        0
 40
0.045
309
GRIDFORMAT_END
 95
       16
302
GRIDFORMAT
  1
GRIDFORMAT_BEGIN
 90
        0
 91
        1
 62
     0
 92
       -2
340
0
 93
        0
 40
0.045
309
GRIDFORMAT_END
 95
       32
302
GRIDFORMAT
  1
GRIDFORMAT_BEGIN
 90
        0
 91
        1
 62
     0
 92
       -2
340
0
 93
        0
 40
0.045
309
GRIDFORMAT_END
309
TABLEFORMAT_END
  1
CELLSTYLE_BEGIN
 90
        3
 91
        2
300
_DATA
309
CELLSTYLE_END
  0
ENDSEC
  0
EOF
